<svg xmlns="http://www.w3.org/2000/svg" viewBox="0 0 538.78 538.92"><defs><style>.cls-1{fill:#142338;}.cls-2{fill:#fff;}</style></defs><g id="Layer_2" data-name="Layer 2"><g id="Layer_1-2" data-name="Layer 1"><path class="cls-1" d="M538.78,255.23V284a25.73,25.73,0,0,0-.46,2.9,253.83,253.83,0,0,1-11,60.87c-19.59,62.79-56.75,112.6-112,148.2-52.82,34-110.89,47.66-173.5,41.47a263.59,263.59,0,0,1-89.17-25.18A269.07,269.07,0,0,1,1,247.38a265.62,265.62,0,0,1,19.64-81.19Q50,95.95,111.67,51.08a269.56,269.56,0,0,1,275.42-24A269.45,269.45,0,0,1,537.14,238.89C537.77,244.33,538.24,249.78,538.78,255.23ZM97.65,321.63h149V300.25H213.69v-83.8H190.05V321c-5.15-6.42-9.88-12.23-14.5-18.13a4.84,4.84,0,0,0-4.29-2c-15.7.09-31.4.05-47.1.05H120.8V279h46.78V258.15H120.82V237h57.05V216.41H97.65Zm228-.15a6.84,6.84,0,0,0,1.19.27c26.6,0,53.2.3,79.8-.11a31.31,31.31,0,0,0,3.28-62.32c-5.59-.79-11.37-.37-17.06-.44a11.27,11.27,0,0,1-8.53-3.69,10.74,10.74,0,0,1-2.1-12,10.53,10.53,0,0,1,10.31-6.87c6.5-.05,13,0,19.5,0,3.79,0,8.22,1,11.19-.57s4.5-5.9,6.62-9c2.25-3.35,4.45-6.74,6.85-10.39-1-.08-1.51-.15-2-.15q-21,0-42,0a30.44,30.44,0,0,0-6,.52c-16.5,3.33-27.11,17.84-25.45,34.69,1.5,15.29,15.1,27.3,31.26,27.57,4.5.08,9,0,13.5.18a10.44,10.44,0,0,1,8.78,4.95,10.81,10.81,0,0,1,.62,11.41,10.34,10.34,0,0,1-9.63,6q-18.6.11-37.2,0a5.51,5.51,0,0,0-4.82,2.24c-4.63,5.68-9.45,11.21-14.83,17.53V216.45H325.6ZM258.1,216.33V321.57h56V300.31H281.16v-84Z"/><path class="cls-2" d="M97.65,321.63V216.41h80.22V237H120.82v21.13h46.76V279H120.8v21.86h3.36c15.7,0,31.4,0,47.1-.05a4.84,4.84,0,0,1,4.29,2c4.62,5.9,9.35,11.71,14.5,18.13V216.45h23.64v83.8h32.93v21.38Z"/><path class="cls-2" d="M325.6,321.48v-105h23.33V321.28c5.38-6.32,10.2-11.85,14.83-17.53a5.51,5.51,0,0,1,4.82-2.24q18.6.12,37.2,0a10.34,10.34,0,0,0,9.63-6,10.81,10.81,0,0,0-.62-11.41,10.44,10.44,0,0,0-8.78-4.95c-4.49-.14-9-.1-13.5-.18-16.16-.27-29.76-12.28-31.26-27.57-1.66-16.85,8.95-31.36,25.45-34.69a30.44,30.44,0,0,1,6-.52q21-.06,42,0c.48,0,1,.07,2,.15-2.4,3.65-4.6,7-6.85,10.39-2.12,3.14-3.65,7.43-6.62,9s-7.4.54-11.19.57c-6.5,0-13,0-19.5,0a10.53,10.53,0,0,0-10.31,6.87,10.74,10.74,0,0,0,2.1,12,11.27,11.27,0,0,0,8.53,3.69c5.69.07,11.47-.35,17.06.44a31.31,31.31,0,0,1-3.28,62.32c-26.6.41-53.2.12-79.8.11A6.84,6.84,0,0,1,325.6,321.48Z"/><path class="cls-2" d="M258.1,216.33h23.06v84h32.93v21.26h-56Z"/><path class="cls-2" d="M152.5,389.41a5.74,5.74,0,0,1-5.76-5.76v-23a5.74,5.74,0,0,1,5.76-5.76h28.7v3.89H152.5a1.9,1.9,0,0,0-1.88,1.87v23a1.91,1.91,0,0,0,1.88,1.88h28.7v3.88Z"/><path class="cls-2" d="M191.76,389.41a5.82,5.82,0,0,1-5.81-5.8V367.38a5.84,5.84,0,0,1,5.81-5.81h16.7a5.65,5.65,0,0,1,4.16,1.71,5.6,5.6,0,0,1,1.7,4.1v16.23a5.8,5.8,0,0,1-5.86,5.8Zm0-3.93h16.7a1.9,1.9,0,0,0,1.88-1.87V367.38a1.81,1.81,0,0,0-.56-1.32,1.78,1.78,0,0,0-1.32-.55h-16.7a1.88,1.88,0,0,0-1.87,1.87v16.23a1.8,1.8,0,0,0,.55,1.32A1.84,1.84,0,0,0,191.76,385.48Z"/><path class="cls-2" d="M219.31,389.41V361.57h36.77a5.79,5.79,0,0,1,5.81,5.81v22H258v-22a1.75,1.75,0,0,0-.58-1.32,1.86,1.86,0,0,0-1.34-.55H244.51a1.88,1.88,0,0,0-1.87,1.87v22h-4v-22a1.88,1.88,0,0,0-1.87-1.87H225.17a1.77,1.77,0,0,0-1.32.55,1.8,1.8,0,0,0-.55,1.32v22Z"/><path class="cls-2" d="M266.25,400.45V361.57h22.56a5.82,5.82,0,0,1,5.81,5.81v16.23a5.8,5.8,0,0,1-5.81,5.8H270.19v11Zm5.86-15h16.7a1.88,1.88,0,0,0,1.88-1.87V367.38a1.84,1.84,0,0,0-.55-1.32,1.8,1.8,0,0,0-1.33-.55h-16.7a1.86,1.86,0,0,0-1.34.55,1.75,1.75,0,0,0-.58,1.32v16.23a1.75,1.75,0,0,0,.58,1.32A1.9,1.9,0,0,0,272.11,385.48Z"/><path class="cls-2" d="M303.84,389.41a5.8,5.8,0,0,1-5.81-5.8V373.53h24.38v-6.15a1.88,1.88,0,0,0-1.87-1.87H298v-3.94h22.51a5.63,5.63,0,0,1,4.15,1.71,5.57,5.57,0,0,1,1.71,4.1v22Zm0-3.93h18.57v-8H302v6.15a1.8,1.8,0,0,0,.55,1.32A1.84,1.84,0,0,0,303.84,385.48Z"/><path class="cls-2" d="M330.72,389.41V361.57h22.56a5.84,5.84,0,0,1,5.81,5.81v22h-3.94v-22a1.88,1.88,0,0,0-1.87-1.87H336.57a1.86,1.86,0,0,0-1.34.55,1.79,1.79,0,0,0-.58,1.32v22Z"/><path class="cls-2" d="M368.69,400.45v-4h17.37a1.88,1.88,0,0,0,1.87-1.87v-5.19H369.36a5.8,5.8,0,0,1-5.81-5.8V361.67h3.94v21.94a1.8,1.8,0,0,0,.55,1.32,1.84,1.84,0,0,0,1.32.55h16.7a1.84,1.84,0,0,0,1.32-.55,1.8,1.8,0,0,0,.55-1.32V361.67h3.94V394.6a5.7,5.7,0,0,1-1.68,4.15,5.56,5.56,0,0,1-4.13,1.7Z"/></g></g></svg>