<svg xmlns="http://www.w3.org/2000/svg" xmlns:xlink="http://www.w3.org/1999/xlink" width="0" height="0" style="position:absolute">
	
		<symbol id="ico-bitcoin" viewBox="0 0 16 21">
			<defs><style>.cls-1{fill:#fff;fill-rule:evenodd}</style></defs><path id="Forma_1" data-name="Forma 1" class="cls-1" d="M754.371 1309.02a4.015 4.015 0 0 0-2.329-1.3 2.962 2.962 0 0 0 1.744-3.26 3.069 3.069 0 0 0-.486-1.44 3.006 3.006 0 0 0-1.1-.99 6.191 6.191 0 0 0-1.5-.57 12.73 12.73 0 0 0-1.864-.28V1298h-2.05v3.09c-.354 0-.9.01-1.623.03V1298h-2.05v3.18c-.293.01-.723.01-1.291.01l-2.822-.01v2.07h1.477a1.05 1.05 0 0 1 1.185.86v3.62a1.28 1.28 0 0 1 .213.01h-.215v5.08a.7.7 0 0 1-.772.64h-1.477l-.411 2.31h2.662c.169 0 .413 0 .732.01h.719v3.22h2.05v-3.18c.373.01.914.01 1.624.01v3.17h2.049v-3.22a14.683 14.683 0 0 0 1.937-.19 7.87 7.87 0 0 0 1.617-.43 4.571 4.571 0 0 0 1.291-.74 3.609 3.609 0 0 0 .859-1.12 4.612 4.612 0 0 0 .432-1.58 3.58 3.58 0 0 0-.601-2.7zm-9.17-5.63c.062 0 .237 0 .525-.01s.528-.01.719-.01.448.01.772.03.6.06.819.1a4.239 4.239 0 0 1 .732.21 2.062 2.062 0 0 1 .639.35 1.853 1.853 0 0 1 .4.53 1.6 1.6 0 0 1 .167.74 1.71 1.71 0 0 1-.12.65 1.207 1.207 0 0 1-.359.48 3.149 3.149 0 0 1-.493.34 2.257 2.257 0 0 1-.645.24c-.262.05-.49.1-.685.13a4.587 4.587 0 0 1-.732.07c-.293.02-.515.02-.666.03h-.614c-.262-.01-.415-.01-.459-.01v-3.87zm5.6 8.59a1.691 1.691 0 0 1-.326.51 1.932 1.932 0 0 1-.526.38 4.774 4.774 0 0 1-1.371.44c-.289.05-.541.08-.759.11s-.477.03-.779.05-.537.01-.705.01h-.639c-.258-.01-.422-.01-.493-.01v-4.26c.071 0 .282-.01.633-.02s.636-.01.858-.01.528.01.919.04a7.481 7.481 0 0 1 .985.11 6.107 6.107 0 0 1 .872.24 2.494 2.494 0 0 1 .765.38 1.965 1.965 0 0 1 .492.58 1.632 1.632 0 0 1 .2.81 1.555 1.555 0 0 1-.127.64z" transform="translate(-739 -1298)"></path>
		</symbol>
	
		<symbol id="ico-ethereum" viewBox="0 0 48 48">
			<path d="M11 24L25 2l14 22-14 8z"></path><path d="M25 2l14 22-14 8z"></path><path d="M11 27l14 8 14-8-14 19z"></path><path d="M25 35l14-8-14 19zM11 24l14-6 14 6-14 8z"></path><path d="M25 18l14 6-14 8z"></path>
		</symbol>
	
		<symbol id="ico-euro" viewBox="0 0 17 20">
			<defs><style>.cls-1{fill:#484747;fill-rule:evenodd}</style></defs><path id="Forma_1" data-name="Forma 1" class="cls-1" d="M224.061 564.6a6.676 6.676 0 0 1 6-4.348 6.028 6.028 0 0 1 3.921 1.476H237a8.621 8.621 0 0 0-6.943-3.728 9.056 9.056 0 0 0-8.385 6.6h2.389zm9.905 9.674a6.075 6.075 0 0 1-3.909 1.474 6.821 6.821 0 0 1-6.273-5.1h-2.324c1.038 4.232 4.5 7.351 8.6 7.351a8.577 8.577 0 0 0 6.94-3.726h-3.033zM220 565.162h12.542v2.085H220v-2.085zm0 2.838h12.542v2.085H220V568z" transform="translate(-220 -558)"></path>
		</symbol>
	
		<symbol id="ico-rub" viewBox="0 0 14 19">
			<defs><style>.cls-1{fill:#fff;fill-rule:evenodd}</style></defs><path id="Forma_1" data-name="Forma 1" class="cls-1" d="M140.125 573.888h-2.031v2.155h-1.777V578h5.583v-1.957h-1.777v-2.155zm4-14.888H136v2.347h2.093v6.628H136v2.348h2.093v.434h2.031v-.434h4a5.665 5.665 0 1 0-.002-11.323zm0 8.975h-4v-6.628h4a3.316 3.316 0 1 1-.003 6.628zM136 571.149h10.965v2.351H136v-2.347z" transform="translate(-136 -559)"></path>
		</symbol>
	
		<symbol id="ico-tughrik" viewBox="0 0 18 20">
			<defs><style>.cls-1{fill:#484747;fill-rule:evenodd}</style></defs><path id="Forma_1" data-name="Forma 1" class="cls-1" d="M263 560.468h7.712v1.4H263v2.47h7.712v11.193h-1.5V578h5.588v-2.47h-1.5v-11.192h7.7v-2.47h-7.712v-1.4H281V558h-18v2.469z" transform="translate(-263 -558)"></path>
		</symbol>
	
		<symbol id="ico-uah" viewBox="0 0 11 20">
			<defs><style>.cls-1{fill:#484747;fill-rule:evenodd}</style></defs><path id="Forma_1" data-name="Forma 1" class="cls-1" d="M312.617 569.381h3.01l.756-.762h-3.01zm1.883 7.476h-.174a2.479 2.479 0 0 1-2.229-1.647 2.678 2.678 0 0 1 .593-2.869l.832-.837h-2.9a4.8 4.8 0 0 0-.514 4.476 4.612 4.612 0 0 0 4.106 3.017c.094 0 .188.007.283.007a5.524 5.524 0 0 0 5.5-5.536h-2.127a3.385 3.385 0 0 1-3.37 3.389zm0-15.714h.174a2.479 2.479 0 0 1 2.229 1.647 2.678 2.678 0 0 1-.593 2.869l-.832.837h2.9a4.8 4.8 0 0 0 .514-4.475 4.609 4.609 0 0 0-4.106-3.017c-.097-.004-.186-.004-.286-.004a5.524 5.524 0 0 0-5.5 5.536h2.129a3.385 3.385 0 0 1 3.371-3.393zm-5.056 8.6h10.112v1.4h-10.112v-1.4zm0-2.881h10.112v1.4h-10.112v-1.4z" transform="translate(-309 -559)"></path>
		</symbol>
	
		<symbol id="ico-usd" viewBox="0 0 10 20">
			<defs><style>.cls-1{fill:#484747;fill-rule:evenodd}</style></defs><path id="Forma_1" data-name="Forma 1" class="cls-1" d="M187.29 558.748v2.145a3.212 3.212 0 0 1 1.774 2.9H191a5.2 5.2 0 0 0-3.71-5.045zm0 8.419v2.145a3.253 3.253 0 0 1 0 5.795v2.145a5.282 5.282 0 0 0 0-10.085zm-2.58 7.94a3.212 3.212 0 0 1-1.774-2.9H181a5.2 5.2 0 0 0 3.709 5.043v-2.145zm0-6.274v-2.145a3.253 3.253 0 0 1 0-5.795v-2.145a5.282 5.282 0 0 0 0 10.085zm.484-10.833h1.612v20h-1.612v-20z" transform="translate(-181 -558)"></path>
		</symbol>
	
</svg>
