<svg xmlns="http://www.w3.org/2000/svg" xmlns:xlink="http://www.w3.org/1999/xlink" width="0" height="0" style="position:absolute">
	
		<symbol id="ico-bonus" viewBox="0 0 90 72">
			<path fill-opacity="0" d="M0 0h90v72H0z"></path><path d="M0 13v51h90V13H0zm87 48H3V16h84v45zM57 25h3v3h-3v-3zm0 6h3v3h-3v-3zm0 6h3v3h-3v-3zm0 6h3v3h-3v-3zm0 6h3v3h-3v-3zm0 6h3v3h-3v-3zM46.5 25v-1.05a4.943 4.943 0 0 0-7.7-4.12L31.05 25h-.6l-7.75-5.17a4.949 4.949 0 0 0-7.7 4.12V25H9v9h3v24h36V34h3v-9h-4.5zM18 23.95a1.959 1.959 0 0 1 1.94-1.96 2.054 2.054 0 0 1 1.1.33L25.05 25H18v-1.05zM28.5 55H15V34h13.5v21zm0-24H12v-3h16.5v3zm11.96-8.67a1.95 1.95 0 0 1 2.71.53 1.916 1.916 0 0 1 .33 1.09V25h-7.05zM45 55H31.5V34H45v21zm3-24H31.5v-3H48v3zm9-12h3v3h-3v-3zm15 36h12v3H72v-3zm-6-6h18v3H66v-3zm9-18h-3a3 3 0 0 1 0-6h3a3 3 0 0 1 3 3h3a6 6 0 0 0-6-6v-3h-3v3a6 6 0 0 0 0 12h3a3 3 0 0 1 0 6h-3a3 3 0 0 1-3-3h-3a6 6 0 0 0 6 6v3h3v-3a6 6 0 0 0 0-12z"></path>
		</symbol>
	
		<symbol id="ico-case" viewBox="0 0 90 72">
			<path fill-opacity="0" d="M0 0h90v72H0z"></path><path d="M62.828 14.59H43.821V8.32a3.312 3.312 0 0 0-3.3-3.32h-14.8a3.311 3.311 0 0 0-3.3 3.32v6.29H3.428a3.312 3.312 0 0 0-3.3 3.32v42.75a3.312 3.312 0 0 0 3.3 3.32h59.4a3.312 3.312 0 0 0 3.3-3.32V17.92a3.314 3.314 0 0 0-3.3-3.33zm-37.283-.19l.032-6.11a.174.174 0 0 1 .172-.17h14.835a.174.174 0 0 1 .172.17v6.11a.176.176 0 0 1-.172.18H25.718a.176.176 0 0 1-.172-.18zM3.426 17.74h59.4c-1.469 2.81-9.113 16.07-23.339 19.25v-1.83a3.306 3.306 0 0 0-3.236-3.32h-6.252a3.312 3.312 0 0 0-3.3 3.32v1.86C12.489 33.87 4.814 20.56 3.36 17.77zm32.953 17.42v9.17a.174.174 0 0 1-.172.17h-6.206a.174.174 0 0 1-.172-.17v-9.17a.174.174 0 0 1 .172-.17h6.252a.169.169 0 0 1 .127.17zm26.575 25.53a.176.176 0 0 1-.172.18H3.428a.176.176 0 0 1-.172-.18V23.63c3.845 5.63 11.5 14.18 23.448 16.6v4.08a3.314 3.314 0 0 0 3.3 3.33h6.252a3.314 3.314 0 0 0 3.3-3.33v-4.08c11.943-2.39 19.6-11.02 23.448-16.6z"></path>
		</symbol>
	
		<symbol id="ico-contract" viewBox="0 0 90 72">
			<path fill-opacity="0" d="M0 0h90v72H0z"></path><path d="M19.189 24.29l-.617-7.43a.934.934 0 0 0-.932-.86h-.935v-.94a2.804 2.804 0 1 0-5.609 0V16h-.934a.94.94 0 0 0-.931.84l-.748 7.5a.925.925 0 0 0 .931 1.03h8.852a.928.928 0 0 0 .934-.93 1.081 1.081 0 0 0-.011-.15zm-6.223-9.23a.935.935 0 0 1 1.87 0V16h-1.87v-.94zm-2.519 8.44l.561-5.62h5.772l.467 5.62h-6.8zM44 14.34c0-.02-.006-.04-.01-.06v-.03l-.02-.08v-.01c0-.01-.017-.05-.027-.07s0-.01 0-.01a.326.326 0 0 0-.034-.07c0-.01 0-.01-.006-.01a.324.324 0 0 0-.037-.07.094.094 0 0 0-.01-.01q-.019-.03-.042-.06c0-.01-.008-.01-.012-.02a.566.566 0 0 1-.062-.07l-7.478-7.5a1.381 1.381 0 0 0-.068-.06c-.006 0-.012-.01-.019-.01a.165.165 0 0 0-.054-.04.017.017 0 0 0-.018-.01.2.2 0 0 0-.061-.04.014.014 0 0 1-.014-.01l-.068-.03h-.011l-.075-.03h-.012a.214.214 0 0 0-.077-.02.026.026 0 0 1-.024-.01.159.159 0 0 1-.067-.01H1.935A.937.937 0 0 0 1 6.94v56.68a.937.937 0 0 0 .935.94h21.189a.94.94 0 0 0 0-1.88H2.87V7.87h31.782v6.57a.929.929 0 0 0 .935.93h6.543v47.31h-5.3a.94.94 0 0 0 0 1.88h6.23a.937.937 0 0 0 .935-.94V14.44c.005-.03.005-.07.005-.1zm-7.473-.84V9.2l4.286 4.3h-4.286zm-.935 19.19H9.413a.935.935 0 1 0 0 1.87h26.174a.935.935 0 1 0 0-1.87zm0 5H9.413a.935.935 0 1 0 0 1.87h26.174a.935.935 0 1 0 0-1.87zm0 5H9.413a.935.935 0 1 0 0 1.87h26.174a.935.935 0 1 0 0-1.87zm-14.957 5H9.413a.935.935 0 1 0 0 1.87H20.63a.935.935 0 1 0 0-1.87zm15.893 9.06a6.544 6.544 0 1 0-10.594 5.15v7.29c0 .01 0 .03.008.05s.007.03.01.04l.012.05c.005.02.009.03.014.04s.01.03.016.05a.182.182 0 0 1 .02.04c.006.01.012.03.019.04s.017.03.025.04.014.03.021.04.022.03.033.04.011.02.018.03c.021.03.043.05.066.08a.039.039 0 0 1 .021.02c.017.01.035.03.053.04l.034.03.046.03a.066.066 0 0 0 .036.02l.051.03c.012.01.024.01.036.02s.038.01.058.02.021.01.032.01a.171.171 0 0 0 .068.02c.009 0 .018.01.027.01.025 0 .051.01.077.01h.021a.3.3 0 0 0 .093.01h.01a.6.6 0 0 0 .134-.01.032.032 0 0 0 .028-.01.3.3 0 0 0 .13-.03.024.024 0 0 0 .023-.01.623.623 0 0 0 .13-.05v-.01a.655.655 0 0 0 .124-.08l.008-.01 2.532-2.03 2.532 2.03c0 .01 0 .01.008.01a.655.655 0 0 0 .124.08v.01a.6.6 0 0 0 .13.05.024.024 0 0 0 .023.01.3.3 0 0 0 .129.03.034.034 0 0 0 .028.01.605.605 0 0 0 .135.01h.023a.289.289 0 0 0 .093-.01h.022c.026 0 .052-.01.077-.01.009 0 .018-.01.026-.01a.181.181 0 0 0 .069-.02c.01 0 .02-.01.031-.01s.04-.01.059-.02.023-.01.035-.02l.051-.03a.065.065 0 0 0 .037-.02l.046-.03.034-.03c.018-.01.035-.03.052-.04a.042.042 0 0 1 .021-.02c.024-.03.046-.05.067-.08l.018-.03c.007-.01.022-.03.033-.04s.014-.03.021-.04.017-.03.025-.04.013-.03.019-.04a.182.182 0 0 1 .02-.04l.015-.05a.325.325 0 0 0 .015-.04c0-.02.008-.03.012-.05l.01-.04c.003-.01 0-.03.008-.05s0-.03 0-.04v-.06-7.19a6.553 6.553 0 0 0 2.507-5.15zm-5.946 9.09l-.013-.01c-.007 0-.014-.01-.021-.01a.176.176 0 0 0-.05-.04c-.011-.01-.021-.01-.031-.02l-.048-.03a.073.073 0 0 1-.039-.02.088.088 0 0 1-.043-.02c-.015 0-.03-.01-.046-.01a.054.054 0 0 0-.038-.01c-.017-.01-.033-.01-.05-.02a.056.056 0 0 1-.038-.01h-.049a.061.061 0 0 0-.041-.01h-.218a.1.1 0 0 1-.054.01.043.043 0 0 1-.033.01c-.018.01-.036.01-.055.02a.046.046 0 0 0-.034.01.11.11 0 0 0-.05.02c-.013 0-.026.01-.039.01a.081.081 0 0 1-.042.02l-.046.03c-.011.01-.022.01-.032.02a.179.179 0 0 0-.051.04c-.007 0-.014.01-.02.01l-.013.01-1.584 1.27v-4.17a6.616 6.616 0 0 0 4.363 0v4.17zm-.6-4.4a4.69 4.69 0 1 1 4.675-4.69 4.691 4.691 0 0 1-4.678 4.69zm0-7.5a2.81 2.81 0 1 0 2.8 2.81 2.81 2.81 0 0 0-2.802-2.81zm0 3.75a.94.94 0 1 1 .934-.94.937.937 0 0 1-.936.94z"></path>
		</symbol>
	
		<symbol id="ico-credit" viewBox="0 0 90 72">
			<path fill-opacity="0" d="M0 0h90v72H0z"></path><path d="M62.85 41.24h-1v-9.03a4.229 4.229 0 0 0-1.8-3.46v-1.23a3.241 3.241 0 0 0-3.239-3.24h-.75l2.869-4.2a3.1 3.1 0 0 0-.815-4.3L38.649 2.54a3.029 3.029 0 0 0-2.32-.48 3.064 3.064 0 0 0-1.983 1.29l-16.8 24.62h-4.675l1.128-11.4a.354.354 0 0 1 .213-.29 7.207 7.207 0 0 0 3.546-2.87.331.331 0 0 1 .318-.15l7.333.72a.955.955 0 1 0 .188-1.9l-7.333-.72a2.252 2.252 0 0 0-2.119 1.02 5.349 5.349 0 0 1-2.608 2.12 2.223 2.223 0 0 0-1.441 1.88l-1.147 11.59H9.73l1.784-18.03a1.18 1.18 0 0 1 1.3-1.06l14.819 1.46a.955.955 0 1 0 .188-1.9L13.002 6.98a3.093 3.093 0 0 0-3.386 2.77L8.178 24.28H5.73a3.241 3.241 0 0 0-3.24 3.24v.84a4.235 4.235 0 0 0-2.479 3.85v32.55A4.248 4.248 0 0 0 4.261 69H57.6a4.248 4.248 0 0 0 4.249-4.24v-9.03h1a2.156 2.156 0 0 0 2.15-2.15V43.39a2.156 2.156 0 0 0-2.149-2.15zm-6.044-15.05a1.332 1.332 0 0 1 1.327 1.33v.49a3.177 3.177 0 0 0-.536-.04H53.54l1.213-1.78h2.053zM35.921 4.43a1.194 1.194 0 0 1 .759-.5 1.68 1.68 0 0 1 .223-.02 1.147 1.147 0 0 1 .664.21l19.466 13.24a1.193 1.193 0 0 1 .312 1.65l-6.119 8.96h-1.468l3-4.4a2.218 2.218 0 0 0 .1-2.36 5.361 5.361 0 0 1-.641-3.3 2.226 2.226 0 0 0-.967-2.14L41.159 8.9a2.24 2.24 0 0 0-2.351-.11 5.343 5.343 0 0 1-3.3.61 2.262 2.262 0 0 0-2.169.96L21.322 27.97h-1.469zm.421 16.21a7.884 7.884 0 0 0-7.86 7.33h-4.846L34.92 11.44a.326.326 0 0 1 .279-.15h.044a7.309 7.309 0 0 0 4.493-.83.34.34 0 0 1 .35.02l10.091 6.87a.339.339 0 0 1 .148.32 7.271 7.271 0 0 0 .872 4.48.334.334 0 0 1-.019.35l-3.734 5.47H44.2a7.884 7.884 0 0 0-7.858-7.33zm5.943 7.33H30.4a5.968 5.968 0 0 1 11.885 0zm-37.894-.45a1.332 1.332 0 0 1 1.328-1.33h2.259l-.175 1.78H4.391v-.45zm-2.479 4.69a2.34 2.34 0 0 1 2.338-2.33H57.6a2.339 2.339 0 0 1 2.337 2.33v2.65H1.912v-2.65zm58.022 32.55a2.339 2.339 0 0 1-2.337 2.33H4.25a2.34 2.34 0 0 1-2.338-2.33v-2.65h5.156a.955.955 0 1 0 0-1.91H1.912V36.77h58.022v4.47h-9.091a7.265 7.265 0 0 0-6.522 4.08l-.013.03-.028.06a7.977 7.977 0 0 0-.362.92v.01a7.242 7.242 0 0 0 6.925 9.39h9.091v4.47H13.19a.955.955 0 1 0 0 1.91h46.744v2.65zm3.154-11.18a.241.241 0 0 1-.238.24H50.844a5.336 5.336 0 0 1-4.694-2.8 2.472 2.472 0 0 1-.118-.23 4.687 4.687 0 0 1-.2-.47 5.343 5.343 0 0 1 0-3.67 4.929 4.929 0 0 1 .2-.47 2.472 2.472 0 0 1 .118-.23 5.336 5.336 0 0 1 4.694-2.8H62.85a.241.241 0 0 1 .238.24v10.19zm-12.02-8.97a3.875 3.875 0 1 0 3.879 3.88 3.883 3.883 0 0 0-3.879-3.88zm0 5.84a1.965 1.965 0 1 1 1.967-1.96 1.966 1.966 0 0 1-1.967 1.96z"></path>
		</symbol>
	
		<symbol id="ico-crypto" viewBox="0 0 90 72">
			<path fill-opacity="0" d="M0 0h90v72H0z"></path><path d="M46.7 22.3a23.62 23.62 0 1 0 0 33.4 23.47 23.47 0 0 0 0-33.4zm-1.209 32.19A21.907 21.907 0 1 1 51.907 39a21.758 21.758 0 0 1-6.416 15.49zm3.338-38.85a.855.855 0 0 0-1.074 1.33 28.3 28.3 0 0 1-31.309 46.87.847.847 0 0 0-1.16.34.856.856 0 0 0 .34 1.16A30.1 30.1 0 0 0 30 69a30 30 0 0 0 18.829-53.36zm-4.658-3.09A30 30 0 0 0 10.979 62.2a.85.85 0 0 0 .542.19.837.837 0 0 0 .661-.31.851.851 0 0 0-.118-1.2 28.294 28.294 0 0 1 31.3-46.82.857.857 0 0 0 .807-1.51zM30 11.53a.852.852 0 0 0-.855.85v1.38a.855.855 0 0 0 1.71 0v-1.38a.852.852 0 0 0-.855-.85zm0 51.86a.852.852 0 0 0-.855.85v1.38a.855.855 0 0 0 1.71 0v-1.38a.852.852 0 0 0-.855-.85zm26.616-25.24h-1.373a.85.85 0 1 0 0 1.7h1.373a.85.85 0 1 0 0-1.7zm-51.859 0H3.384a.85.85 0 1 0 0 1.7h1.373a.85.85 0 1 0 0-1.7zm44.668-18.57a.844.844 0 0 0-1.209 0l-.971.97a.852.852 0 0 0 1.209 1.2l.971-.97a.844.844 0 0 0 0-1.2zm-36.67 36.67a.844.844 0 0 0-1.209 0l-.971.97a.852.852 0 1 0 1.209 1.2l.971-.97a.846.846 0 0 0 0-1.2zm36.67.97l-.971-.97a.852.852 0 1 0-1.209 1.2l.971.97a.852.852 0 1 0 1.209-1.2zM12.754 20.55l-.97-.97a.852.852 0 1 0-1.209 1.2l.971.97a.851.851 0 1 0 1.208-1.2zm28.282-6.71a.857.857 0 0 0-1.126.44l-.552 1.26a.86.86 0 0 0 .44 1.13.833.833 0 0 0 .343.07.853.853 0 0 0 .783-.51l.552-1.26a.86.86 0 0 0-.44-1.13zM20.2 61.33a.856.856 0 0 0-1.126.44l-.552 1.26a.86.86 0 0 0 .44 1.13.833.833 0 0 0 .343.07.853.853 0 0 0 .783-.51l.551-1.26a.86.86 0 0 0-.439-1.13zm34.515-12.42l-1.257-.55a.852.852 0 1 0-.687 1.56l1.257.56a1.029 1.029 0 0 0 .343.07.856.856 0 0 0 .346-1.64zM7.225 28.08l-1.257-.56a.857.857 0 0 0-.687 1.57l1.257.55a.83.83 0 0 0 .343.07.851.851 0 0 0 .346-1.63zm48.365.94a.858.858 0 0 0-1.107-.49l-1.279.5a.854.854 0 1 0 .622 1.59l1.278-.5a.847.847 0 0 0 .488-1.1zM7.277 47.86a.853.853 0 0 0-1.107-.48l-1.278.5a.846.846 0 0 0-.486 1.1.848.848 0 0 0 1.107.49l1.278-.5a.857.857 0 0 0 .488-1.11zm33.191 15.62l-.5-1.27a.855.855 0 1 0-1.593.62l.5 1.28a.863.863 0 0 0 .8.54.849.849 0 0 0 .31-.06.858.858 0 0 0 .485-1.11zM21.619 15.17l-.5-1.28a.857.857 0 0 0-1.593.63l.5 1.27a.856.856 0 1 0 1.595-.62zm5.363 21.91h4.824c3.206 0 4.972-1.79 4.972-5.05 0-3.03-1.842-4.77-5.053-4.77h-4.743a.877.877 0 0 0-.879.88v8.06a.877.877 0 0 0 .881.88zm.879-8.06h3.864c2.954 0 3.3 1.72 3.3 3.01 0 2.31-.962 3.3-3.215 3.3h-3.945v-6.31zm4.188 9.71h-5.067a.877.877 0 0 0-.879.88v10.54a.884.884 0 0 0 .879.88h5.067c3.52 0 5.459-2.1 5.459-5.91v-.65c.002-3.81-1.835-5.74-5.457-5.74zm3.7 6.39c0 2.83-1.176 4.15-3.7 4.15h-4.188v-8.78h4.188c2.629 0 3.7 1.15 3.7 3.98v.65zm2.805-7.32a8.219 8.219 0 0 0 2.52-6.46c0-3.92-1.65-6.4-4.906-7.38v-1.21a2.77 2.77 0 0 0-5.54 0v.7h-.31v-.7a2.77 2.77 0 1 0-5.54 0v.7h-2a2.881 2.881 0 0 0-2.878 2.88 2.85 2.85 0 0 0 1.947 2.72v20.18a2.883 2.883 0 0 0 .931 5.61h2v.8a2.77 2.77 0 1 0 5.54 0v-.8h.31v.8a2.77 2.77 0 0 0 5.54 0v-1.2a7.048 7.048 0 0 0 3.926-2.63 10.591 10.591 0 0 0 1.71-6.36v-.77c.003-3.97-1.528-5.84-3.247-6.88zm1.492 7.65c0 4.34-1.612 6.78-4.929 7.44a.875.875 0 0 0-.707.86v1.89a1.012 1.012 0 0 1-2.024 0v-1.68a.877.877 0 0 0-.879-.88h-2.068a.877.877 0 0 0-.879.88v1.68a1.012 1.012 0 0 1-2.024 0v-1.68a.877.877 0 0 0-.879-.88h-2.879a1.12 1.12 0 0 1-.03-2.24.876.876 0 0 0 .856-.88V28.32a.874.874 0 0 0-.856-.87 1.12 1.12 0 0 1 .03-2.24h2.879a.884.884 0 0 0 .879-.88v-1.58a1.012 1.012 0 1 1 2.024 0v1.58a.884.884 0 0 0 .879.88h2.068a.884.884 0 0 0 .879-.88v-1.58a1.012 1.012 0 1 1 2.024 0v1.89a.871.871 0 0 0 .686.85c2.919.66 4.221 2.46 4.221 5.85 0 2.88-1.038 4.93-2.923 5.76a.884.884 0 0 0 .039 1.63c2.168.84 3.613 2.17 3.613 5.95v.77z"></path>
		</symbol>
	
		<symbol id="ico-graph" viewBox="0 0 90 72">
			<path fill-opacity="0" d="M0 0h90v72H0z"></path><path data-name="Forma 1" class="cls-2" d="M48.774 22.25l-.63-4.51a.863.863 0 0 0-.336-.57.908.908 0 0 0-.64-.16l-4.957.76a.86.86 0 0 0 .259 1.7l2.888-.44a70.34 70.34 0 0 1-12.367 12.14 50.836 50.836 0 0 1-11.718 6.66c-6.79 2.68-11.427 2.51-11.472 2.51a.856.856 0 0 0-.082 1.71c.028 0 .145.01.345.01a33.5 33.5 0 0 0 11.729-2.59 52.261 52.261 0 0 0 12.157-6.88 71.874 71.874 0 0 0 12.788-12.55l.342 2.45a.856.856 0 0 0 .846.74.5.5 0 0 0 .12-.01.856.856 0 0 0 .728-.97zm9.648 41.03H51.51a10.363 10.363 0 0 0-.683-17.67v-3.46a.855.855 0 1 0-1.71 0v2.7a10.286 10.286 0 0 0-7.169.21V34.52a.2.2 0 0 1 .2-.2h6.768a.2.2 0 0 1 .2.2v2.13a.855.855 0 1 0 1.71 0v-2.13a1.915 1.915 0 0 0-1.911-1.91h-6.768a1.915 1.915 0 0 0-1.911 1.91v11.43a10.9 10.9 0 0 0-1.71 1.39 10.387 10.387 0 0 0 1.6 15.94h-5.4V42.31a1.917 1.917 0 0 0-1.911-1.92h-6.768a1.917 1.917 0 0 0-1.911 1.92v20.97h-5.512V49.37a1.918 1.918 0 0 0-1.912-1.92H9.945a1.918 1.918 0 0 0-1.912 1.92v13.91H4.51V19.16a1.584 1.584 0 0 0-1.578-1.59H1.579a1.584 1.584 0 0 0-1.578 1.59v6.09a.855.855 0 1 0 1.71 0v-5.96H2.8v44.12a1.582 1.582 0 0 0 1.578 1.58H58.29v1.29H1.711V30.67a.856.856 0 1 0-1.711 0v35.75A1.582 1.582 0 0 0 1.578 68h56.844A1.582 1.582 0 0 0 60 66.42v-1.56a1.582 1.582 0 0 0-1.578-1.58zm-41.51 0H9.743V49.37a.2.2 0 0 1 .2-.21h6.767a.2.2 0 0 1 .2.21v13.91zm8.933 0V42.31a.2.2 0 0 1 .2-.2h6.768a.2.2 0 0 1 .2.2v20.97h-7.169zm23.751-.88a8.633 8.633 0 0 1-2.766.82h-.048a1.316 1.316 0 0 1-.2.02c-.1.01-.2.02-.3.02a.308.308 0 0 1-.1.01c-.123 0-.247.01-.371.01s-.248-.01-.372-.01c-.039 0-.078-.01-.117-.01a2.579 2.579 0 0 1-.278-.02 1.8 1.8 0 0 1-.231-.02c-.055-.01-.109-.01-.164-.02a1.892 1.892 0 0 1-.233-.04h-.03a8.481 8.481 0 0 1-2.873-1.04h-.014a8.873 8.873 0 0 1-1.77-1.37 8.625 8.625 0 0 1 2.057-13.72.221.221 0 0 1 .063-.04 8.681 8.681 0 0 1 7.165-.35l.054.03c.106.04.212.09.317.13l.125.06a8.434 8.434 0 0 1 2.382 1.69 8.649 8.649 0 0 1-2.272 13.84c-.003 0-.014.01-.02.01zm-3.381-8.58v-3.06a8.555 8.555 0 0 1 1.8.56.834.834 0 0 0 .661-.86c0-.73-1.441-1.05-2.461-1.08v-.41a.43.43 0 0 0-.451-.34.392.392 0 0 0-.435.34v.44c-1.425.15-2.851.9-2.851 2.8 0 1.93 1.5 2.47 2.851 2.95v3.54c-1.53-.12-1.936-1.18-2.431-1.18a.879.879 0 0 0-.69.86c0 .74 1.26 1.75 3.121 1.78v.46a.4.4 0 0 0 .435.35.437.437 0 0 0 .45-.35v-.51a2.91 2.91 0 0 0 2.732-3.1c.001-2.05-1.425-2.71-2.731-3.19zm-.8-.29c-.795-.3-1.44-.61-1.44-1.47a1.355 1.355 0 0 1 1.44-1.27v2.74zm.706 5.14v-3.18a1.766 1.766 0 0 1 1.32 1.69 1.435 1.435 0 0 1-1.315 1.49z"></path>
		</symbol>
	
		<symbol id="ico-microloan" viewBox="0 0 90 72">
			<path fill-opacity="0" d="M0 0h90v72H0z"></path><path d="M16.131 58.32a3.035 3.035 0 1 0 3.043 3.03 3.04 3.04 0 0 0-3.043-3.03zm0 4.02a.99.99 0 1 1 .992-.99.989.989 0 0 1-.992.99zm49.11-46.6a16.293 16.293 0 0 0-21.384-1.39l-.768-.09c-2.31-.26-7.119-.81-8.25-.95a6.153 6.153 0 0 0-4.6 1.35l-9.8 8.08a9.852 9.852 0 0 0-3.246 5c-1.082 3.91-3.089 10.81-4.5 13.59l-4.3 4.28-.284-.28a2.39 2.39 0 0 0-3.38 0L.692 49.36a2.368 2.368 0 0 0 0 3.36l1.071 1.07a1 1 0 0 0 1.417 0 .994.994 0 0 0 0-1.41l-1.071-1.07a.379.379 0 0 1 0-.54l4.037-4.03a.394.394 0 0 1 .546 0l.992.99 6.319 6.3 7.314 7.29a.382.382 0 0 1 .113.27.4.4 0 0 1-.113.28l-4.038 4.02a.393.393 0 0 1-.545 0L7.713 56.9a1 1 0 0 0-1.417 0 .992.992 0 0 0 0 1.41l9.021 8.99a2.39 2.39 0 0 0 3.38 0l4.037-4.02a2.378 2.378 0 0 0 0-3.37l-.288-.29.627-.62a4.523 4.523 0 0 1 1.945-1.15c.014 0 .027-.01.041-.01l7.345-2.47a13.67 13.67 0 0 0 6.308-4.45l3.679-4.64 9.818-9.79a8.617 8.617 0 0 0 1.561.17v.79a.676.676 0 0 0 .745.59.741.741 0 0 0 .772-.59v-.87a4.976 4.976 0 0 0 4.68-5.28c0-3.49-2.443-4.62-4.68-5.44v-5.2c1.8.13 2.469.95 3.086.95a1.425 1.425 0 0 0 1.131-1.46c0-1.26-2.468-1.8-4.217-1.85v-.69a.741.741 0 0 0-.772-.59.677.677 0 0 0-.746.59v.74c-2.443.26-4.886 1.54-4.886 4.77 0 3.28 2.572 4.2 4.886 5.02v1.99a4.53 4.53 0 0 0-3.345-1.4 15.9 15.9 0 0 0-10.688 4.29c-1.656 1.65-3.537 3.52-4.573 4.56a1.71 1.71 0 0 1-1.212.5h-.038a2.478 2.478 0 0 1-1.908-1.47v-9.82l3.284-2.7 2.6-.39a16.188 16.188 0 0 0 0 7.01 1 1 0 0 0 .978.79.822.822 0 0 0 .217-.03 1 1 0 0 0 .762-1.19 14.214 14.214 0 0 1 .352-7.46c0-.01 0-.02.008-.03s0 0 0-.01a14.052 14.052 0 0 1 3.469-5.62 13.513 13.513 0 0 1 1.076-.97c.008-.01.015-.01.023-.02a14.216 14.216 0 0 1 19.039 21.07 14.356 14.356 0 0 1-13.636 3.71 1 1 0 1 0-.5 1.93 16.431 16.431 0 0 0 4.065.51 16.186 16.186 0 0 0 11.499-27.65zm-10.1 12.97c1.261.54 2.263 1.25 2.263 2.87a2.446 2.446 0 0 1-2.263 2.54v-5.41zm-3.677-5.85c0-1.33 1.028-1.97 2.469-2.15v4.67c-1.367-.52-2.473-1.06-2.473-2.52zM46.867 39l-.941-.94a.88.88 0 0 1-.263-.63.9.9 0 0 1 .263-.64l1.639-1.63a2.692 2.692 0 0 1 1.9-.78 2.723 2.723 0 0 1 1.549.48zm-8.356-17.42l-3.794.58a.982.982 0 0 0-.485.22l-3.862 3.16a1.009 1.009 0 0 0-.365.77v10.45a.955.955 0 0 0 .034.26 4.394 4.394 0 0 0 3.878 3.05h.037a3.688 3.688 0 0 0 2.63-1.08c1.037-1.03 2.917-2.91 4.573-4.56a13.911 13.911 0 0 1 9.163-3.71 2.777 2.777 0 0 1 1.936.71c.022.03.046.05.072.08a1.3 1.3 0 0 1 .053 1.88 4.7 4.7 0 0 0-6.234.36l-1.639 1.63a2.891 2.891 0 0 0-.85 2.05 2.851 2.851 0 0 0 .85 2.04l.941.94-4.513 4.5c-.027.03-.053.06-.077.09l-3.715 4.68a11.71 11.71 0 0 1-5.381 3.8l-7.32 2.46a6.484 6.484 0 0 0-2.783 1.64l-.627.63-5.608-5.59-5.611-5.59 4.411-4.4a1.153 1.153 0 0 0 .179-.24c1.5-2.85 3.6-10.07 4.724-14.11a7.878 7.878 0 0 1 2.592-4l9.8-8.08a4.082 4.082 0 0 1 3.079-.9c.993.12 4.8.55 7.283.84a15.886 15.886 0 0 0-3.371 5.44z"></path>
		</symbol>
	
		<symbol id="ico-multicurrency" viewBox="0 0 90 72">
			<path fill-opacity="0" d="M0 0h90v72H0z"></path><path d="M45.02 23.56l12.835 3.37 3.237-12.83-2.465-.65-2.1 8a30.5 30.5 0 1 0 .411 31.42l-2.2-1.19a28 28 0 1 1 .125-28.15l-9.187-2.44zM31.936 51.03V48.7a8.04 8.04 0 0 0 5.179-1.94 5.884 5.884 0 0 0 1.942-4.53 5.088 5.088 0 0 0-1.68-4.28 11.193 11.193 0 0 0-5.316-2.33h-.125v-5.96a9.816 9.816 0 0 1 4.532 1.81l2.079-2.85a12.651 12.651 0 0 0-6.611-2.32v-1.56h-1.944v1.56a7.923 7.923 0 0 0-4.929 1.94 5.884 5.884 0 0 0-1.942 4.53 4.963 4.963 0 0 0 1.68 4.14 12.132 12.132 0 0 0 5.179 2.21v6.09a10.824 10.824 0 0 1-5.44-2.73l-2.328 2.73a13.338 13.338 0 0 0 7.78 3.49v2.33h1.942zm.125-11.28a8.091 8.091 0 0 1 2.589 1.17 2.86 2.86 0 0 1 .648 1.82 2.1 2.1 0 0 1-.909 1.82 4.764 4.764 0 0 1-2.328.91v-5.72zm-4.531-5.56a2.463 2.463 0 0 1-.648-1.68 2.4 2.4 0 0 1 .772-1.82 4.287 4.287 0 0 1 2.328-.91v5.58a6.314 6.314 0 0 1-2.452-1.17z"></path>
		</symbol>
	
		<symbol id="ico-payment-card" viewBox="0 0 90 72">
			<path fill-opacity="0" d="M0 0h90v72H0z"></path><path d="M60.93 23.83H5.97a5.992 5.992 0 0 0-5.97 6V61a5.992 5.992 0 0 0 5.97 6h54.96a5.994 5.994 0 0 0 5.98-6V29.83a5.994 5.994 0 0 0-5.98-6zm3.59 37.18a3.593 3.593 0 0 1-3.59 3.59H5.97a3.591 3.591 0 0 1-3.58-3.59V29.83a3.6 3.6 0 0 1 3.58-3.6h54.96a3.6 3.6 0 0 1 3.59 3.6v31.18zm-45.4-31.18H7.17a1.2 1.2 0 0 0-1.2 1.2v9.59a1.2 1.2 0 0 0 1.2 1.2h11.95a1.2 1.2 0 0 0 1.19-1.2v-9.59a1.2 1.2 0 0 0-1.19-1.2zm-1.2 9.59H8.36v-7.19h9.56v7.19zM7.17 34.63h3.58v2.39H7.17v-2.39zm8.36 0h3.59v2.39h-3.59v-2.39zm38.23 11.99a7.19 7.19 0 1 0 7.17 7.19 7.178 7.178 0 0 0-7.17-7.19zm0 11.99a4.8 4.8 0 1 1 4.78-4.8 4.789 4.789 0 0 1-4.78 4.8zM46.6 46.62a7.19 7.19 0 1 0 7.16 7.19 7.181 7.181 0 0 0-7.16-7.19zm0 11.99a4.8 4.8 0 1 1 4.78-4.8 4.791 4.791 0 0 1-4.78 4.8zm-40.63-9.6h7.17v2.4H5.97v-2.4zm11.95 0h7.17v2.4h-7.17v-2.4zm11.95 0h7.17v2.4h-7.17v-2.4zm-23.9 7.2h31.07v2.4H5.97v-2.4zm59.99-38.39L11.69 9.08a5.977 5.977 0 0 0-6.84 4.97L2.93 26.04l2.36.38 1.92-11.99a3.585 3.585 0 0 1 4.11-2.98l54.26 8.74a3.6 3.6 0 0 1 2.98 4.11v.02l-4.03 25.71 2.36.37 4.03-25.7v-.02a6 6 0 0 0-4.96-6.86zM43.01 31.03h2.39v4.8h-2.39v-4.8zm4.78 0h2.39v4.8h-2.39v-4.8zm4.78 0h2.39v4.8h-2.39v-4.8zm4.78 0h2.39v4.8h-2.39v-4.8zm8.16-1.83l.4-2.36 3.59.61-.4 2.37zM5.77 19.02l.41-2.36 41.81 7.19-.4 2.37z"></path>
		</symbol>
	
		<symbol id="ico-platform" viewBox="0 0 90 72">
			<path fill-opacity="0" d="M0 0h90v72H0z"></path><path d="M48.81 7H5.42A5.424 5.424 0 0 0 0 12.42v34.66a5.422 5.422 0 0 0 4.07 5.25l.54-2.1a3.243 3.243 0 0 1-2.44-3.15V12.42a3.25 3.25 0 0 1 3.25-3.25h43.39a3.252 3.252 0 0 1 3.26 3.25v1.08h2.17v-1.08A5.433 5.433 0 0 0 48.81 7zM4.34 11.33h2.17v2.17H4.34v-2.17zm4.34 0h2.17v2.17H8.68v-2.17zm4.34 0h2.17v2.17h-2.17v-2.17zM63.68 66.9L53.39 56.63a14.853 14.853 0 0 0 1.29-3.05h1.73v-2.16h-1.26a14.631 14.631 0 0 0-.91-7.77V33h-2.17v6.9a15.4 15.4 0 0 0-2.17-2.25v-8.98h-2.17v7.47a14.892 14.892 0 0 0-2.17-1.04V24.33h-2.17v10.11a15.733 15.733 0 0 0-2.17-.3V26.5h-2.17v7.64a15.947 15.947 0 0 0-2.17.3v-3.61h-2.17v4.27a14.892 14.892 0 0 0-2.17 1.04v-6.39h-2.17v7.9a15.4 15.4 0 0 0-2.17 2.25v-7.98h-2.17v11.73a14.631 14.631 0 0 0-.91 7.77H10.85v2.16h14.74a15.161 15.161 0 0 0 23.26 8.07l10.04 10.03a1.08 1.08 0 0 0 1.54 0l3.25-3.25a1.069 1.069 0 0 0 0-1.53zm-23.54-4.65a13 13 0 1 1 13.01-13 13.023 13.023 0 0 1-13.01 13zm19.52 7.14l-9.12-9.12a16.347 16.347 0 0 0 1.63-1.8l9.21 9.2zM40.14 38.42a10.83 10.83 0 1 0 10.84 10.83 10.836 10.836 0 0 0-10.84-10.83zm0 19.5a8.7 8.7 0 0 1-7.51-4.34h15.01a8.7 8.7 0 0 1-7.5 4.34zm-8.4-6.5a8.6 8.6 0 0 1 2.97-8.92v6.75h2.17v-8.03a8.667 8.667 0 0 1 2.17-.56v8.59h2.17v-8.59a8.558 8.558 0 0 1 2.17.56v8.03h2.17V42.5a8.577 8.577 0 0 1 2.97 8.92H31.74zm23.58-35.75H11.93a5.416 5.416 0 0 0-5.42 5.41v34.67a5.431 5.431 0 0 0 5.42 5.42h14.1V59h-14.1a3.25 3.25 0 0 1-3.25-3.25V21.08a3.256 3.256 0 0 1 3.25-3.25h43.39a3.258 3.258 0 0 1 3.26 3.25v34.67a3.222 3.222 0 0 1-.82 2.15l1.63 1.43a5.428 5.428 0 0 0 1.36-3.58V21.08a5.424 5.424 0 0 0-5.43-5.41zM10.85 20h2.17v2.17h-2.17V20zm4.34 0h2.17v2.17h-2.17V20zm4.34 0h2.17v2.17h-2.17V20zm-6.51 22.75h2.17v6.5h-2.17v-6.5zm4.34-6.5h2.17v13h-2.17v-13zm4.34 3.25h2.16v9.75H21.7V39.5z"></path>
		</symbol>
	
		<symbol id="ico-sale-label" viewBox="0 0 90 72">
			<path fill-opacity="0" d="M0 0h90v72H0z"></path><path d="M51.1 43.98a.978.978 0 0 0-1.347.35L38.464 63.56a2.945 2.945 0 0 1-3.992 1.1l-2.2-1.42a1 1 0 0 0-1.362.29.981.981 0 0 0 .291 1.36l2.242 1.45a4.86 4.86 0 0 0 2.454.66 4.924 4.924 0 0 0 4.268-2.45l11.284-19.23a.974.974 0 0 0-.349-1.34zM54.079 8H38.32a9.938 9.938 0 0 0-7.59 3.24.981.981 0 0 0 0 1.39.994.994 0 0 0 1.393 0 7.916 7.916 0 0 1 6.2-2.66h15.756a2.953 2.953 0 0 1 2.954 2.95v15.74a7.915 7.915 0 0 1-2.666 6.19L25.121 64.1a3.037 3.037 0 0 1-4.178 0L2.838 46.02a2.956 2.956 0 0 1 0-4.18l26.434-26.36c.406.1.814.2 1.236.32a74.408 74.408 0 0 1 9.524 3.17 5.9 5.9 0 1 0 11.094 2.8 5.913 5.913 0 0 0-5.909-5.9.985.985 0 1 0 0 1.97 3.942 3.942 0 1 1-3.387 1.93 12.461 12.461 0 0 1 3.193 1.94 5.081 5.081 0 0 1-.879.15.973.973 0 0 0-.894 1.06.987.987 0 0 0 .98.9h.087c.606-.06 2.448-.22 2.8-1.54.97-3.62-13.243-7.62-16.1-8.38a73.556 73.556 0 0 0-11.828-2.26c-4-.35-5.948.11-6.314 1.47-.175.66-.643 2.4 7.342 5.55a.983.983 0 0 0 .721-1.83c-3.857-1.52-5.455-2.64-5.967-3.16 1.214-.36 5.367-.25 12.054 1.27L1.446 40.45a4.918 4.918 0 0 0 0 6.96l18.105 18.08a4.927 4.927 0 0 0 6.962 0L55.76 36.24a9.912 9.912 0 0 0 3.243-7.58V12.92A4.93 4.93 0 0 0 54.076 8zM32.212 33.86a.992.992 0 0 0-1.392 0l-.532.53a4.916 4.916 0 0 0-7.635 4.1 6.45 6.45 0 0 0 1.133 3.47 5.851 5.851 0 0 1 .836 2.43 2.954 2.954 0 1 1-5.908 0 2.931 2.931 0 0 1 .515-1.66.984.984 0 1 0-1.625-1.11 4.89 4.89 0 0 0-.04 5.48l-.531.53a.981.981 0 0 0 0 1.39.98.98 0 0 0 1.392 0l.532-.53a4.857 4.857 0 0 0 2.711.82 4.923 4.923 0 0 0 4.924-4.92 7.606 7.606 0 0 0-1.134-3.47 4.462 4.462 0 0 1-.836-2.43 2.948 2.948 0 0 1 4.988-2.13c.017.02.023.04.04.06s.041.02.059.04a2.934 2.934 0 0 1-.046 4.12.984.984 0 1 0 1.392 1.39 4.9 4.9 0 0 0 .625-6.19l.532-.53a.981.981 0 0 0-.003-1.39z"></path>
		</symbol>
	
		<symbol id="ico-team" viewBox="0 0 90 72">
			<path fill-opacity="0" d="M0 0h90v72H0z"></path><path d="M85.199 54.55c0-6.57-4.594-12.17-11.014-14.34a14.388 14.388 0 0 0 2.308-4.13 4.232 4.232 0 0 0 1.824-2.61c.248-1.02.8-3.25-.374-4.46v-1c.047-1.72.181-6.19-3.455-8.12a4.567 4.567 0 0 1-.126-.7l-.458-4.77-3.349 3.23a15.589 15.589 0 0 1-4.717 1.09l-.86.13c-6.4 1.03-6.3 4.81-6.221 7.85.011.38.025.8.025 1.25l.028.9c-.644.73-1.1 2.06-.508 4.55a3.986 3.986 0 0 0 1.826 2.53 16.587 16.587 0 0 0 2.394 4.28 16.9 16.9 0 0 0-6.945 4.4 23.492 23.492 0 0 0-5.678-2.67 19.046 19.046 0 0 0 3.38-5.94 5.35 5.35 0 0 0 2.395-3.35c.32-1.33 1.039-4.26-.514-5.73v-1.5c.1-3.54-.275-8.43-4.572-10.61a5.742 5.742 0 0 1-.213-1.14l-.549-5.68-3.991 3.84c-.477.44-3.533 1.23-6.474 1.53l-1.151.19c-8.271 1.33-8.146 6-8.029 10.31.014.48.027.97.027 1.51l.04 1.35c-.846.87-1.481 2.55-.693 5.85a4.972 4.972 0 0 0 2.383 3.24 21.471 21.471 0 0 0 3.518 6.14 22.987 22.987 0 0 0-5.667 2.66 16.91 16.91 0 0 0-6.967-4.41 14.673 14.673 0 0 0 2.309-4.14 4.211 4.211 0 0 0 1.827-2.62c.248-1.01.79-3.24-.375-4.45v-1c.049-1.72.18-6.19-3.457-8.12a4.332 4.332 0 0 1-.123-.7l-.461-4.77-3.349 3.23a15.394 15.394 0 0 1-4.718 1.08l-.858.14c-6.405 1.03-6.3 4.81-6.22 7.84.013.39.023.8.023 1.26l.028.9c-.645.72-1.1 2.06-.506 4.54a4 4 0 0 0 1.824 2.54 16.638 16.638 0 0 0 2.393 4.27C4.754 42.39.171 47.99.171 54.55v1.03h21.166a18.3 18.3 0 0 0-.829 5.38v1.03h44.354v-1.03a18.234 18.234 0 0 0-.829-5.38h21.166v-1.03zm-7.984-1.03v-2.88a1.008 1.008 0 1 0-2.015 0v2.88H63.266a19.047 19.047 0 0 0-1.8-3.19c-.11-.16-.209-.33-.319-.48a20.677 20.677 0 0 0-3.907-4.02 14.322 14.322 0 0 1 3.228-2.47l7.15 8.3a1.01 1.01 0 0 0 .755.35.965.965 0 0 0 .768-.36l7-8.36a13.174 13.174 0 0 1 7 10.23h-5.93zm-14.4 6.42h-8.63v-4.21a.668.668 0 0 0-.031-.15 1.015 1.015 0 0 0-1.983.15v4.21H33.193v-4.21a1.206 1.206 0 0 0-1.008-1.03 1.006 1.006 0 0 0-.979.88 1.317 1.317 0 0 0-.028.15v4.21h-8.631a16.231 16.231 0 0 1 .907-4.36c.121-.34.244-.69.388-1.03h.031c0-.01-.006-.03-.01-.04.143-.33.294-.66.459-.99a17.509 17.509 0 0 1 1.521-2.45 19.072 19.072 0 0 1 3.588-3.68c.268-.21.528-.43.808-.63s.564-.36.848-.54c.362-.23.727-.45 1.106-.66l9.741 11.31a1 1 0 0 0 .755.35h.006a.983.983 0 0 0 .76-.36l9.534-11.39c.441.24.866.49 1.283.75.285.18.574.35.85.54s.541.42.806.63a19.008 19.008 0 0 1 3.587 3.68 18.428 18.428 0 0 1 1.523 2.45c.161.32.315.65.458.99a.239.239 0 0 0-.007.04h.029c.144.34.267.69.388 1.03a16.505 16.505 0 0 1 .908 4.36zM9.149 49.61a1.019 1.019 0 0 0-1.007 1.03v2.88H2.223a13.142 13.142 0 0 1 6.868-10.16l7.156 8.3a1 1 0 0 0 .755.35 1.242 1.242 0 0 0 .766-.36l7-8.37a14.7 14.7 0 0 1 3.357 2.54 20.9 20.9 0 0 0-3.907 4.02c-.115.15-.211.32-.322.48a19.551 19.551 0 0 0-1.8 3.19H10.158v-2.88a1.018 1.018 0 0 0-1.01-1.02zm1.175-15.26l-.483-.15a1.8 1.8 0 0 1-.951-1.28c-.4-1.68-.2-2.52.127-2.74l.467-.31-.058-1.93c0-.45-.011-.88-.023-1.28-.083-3.02-.134-5 4.519-5.75l.8-.13c.046-.01 4.658-.49 5.831-1.61l.378-.37.055.57a6.045 6.045 0 0 0 .365 1.63l.15.41.39.17c1.972.87 2.772 2.78 2.665 6.4v2.13l.513.29c.113.07.438.44-.081 2.57a2.088 2.088 0 0 1-1.069 1.43l-.425.18-.146.45a12 12 0 0 1-2.725 4.59 6.937 6.937 0 0 1-1.058.87 4.686 4.686 0 0 1-2.428.82c-.021 0-.042.01-.062.01s-.054-.01-.084-.01-.049.01-.075.01c-.075 0-.139-.04-.212-.04a4.793 4.793 0 0 1-2.335-.79 6.861 6.861 0 0 1-1.043-.86 13.8 13.8 0 0 1-2.831-4.8zm8.18 13.25l-.881-3.53 1.06-.93a7.184 7.184 0 0 0 2.492-1.29 13.629 13.629 0 0 1 1.677.56zm-3.418-4.51l1.111.98-.852 3.43-4.34-5.04a14.957 14.957 0 0 1 1.781-.6 7.051 7.051 0 0 0 2.299 1.23zm18.407-8.87l-.483-.15a2.755 2.755 0 0 1-1.507-1.97c-.5-2.08-.384-3.56.313-4.03l.466-.31-.068-2.4c0-.53-.015-1.04-.031-1.7-.111-4.07-.191-7 6.334-8.05l1.094-.18c.06-.01 6.134-.66 7.6-2.07l1.015-.98.138 1.48a8.009 8.009 0 0 0 .468 2.09l.151.41.388.17c3.5 1.55 3.874 5.35 3.77 8.88v2.65l.515.3c.575.33.6 1.61.055 3.82a3.182 3.182 0 0 1-1.637 2.16l-.425.17-.145.45a16.22 16.22 0 0 1-3.868 6.43 11.267 11.267 0 0 1-1.012.84 7.524 7.524 0 0 1-1.471.84 6.363 6.363 0 0 1-1.933.49 5 5 0 0 1-.546.07 6.623 6.623 0 0 1-.782-.06 6.554 6.554 0 0 1-1.777-.49 7.428 7.428 0 0 1-1.445-.84 10.421 10.421 0 0 1-1.007-.84 18.5 18.5 0 0 1-4-6.69zm11.31 17.87l-1.281-5.15 1.782-1.56-.118-.11a9.475 9.475 0 0 0 3.018-1.67 21.421 21.421 0 0 1 2.885.98zm-4.8-6.87l-.171.16 1.778 1.56-1.24 5-6.278-7.29a23.216 23.216 0 0 1 3.042-1.04 9.253 9.253 0 0 0 2.867 1.61zm21.7-10.87l-.482-.15a1.825 1.825 0 0 1-.954-1.28c-.4-1.68-.2-2.52.126-2.74l.468-.31-.059-1.93c0-.45-.012-.88-.024-1.28-.078-3.02-.129-5 4.522-5.75l.8-.13c.042-.01 4.653-.49 5.826-1.61l.38-.37.053.57a6.234 6.234 0 0 0 .364 1.63l.151.41.39.17c1.971.87 2.772 2.78 2.664 6.4v2.13l.515.29c.114.07.441.44-.083 2.57a2.088 2.088 0 0 1-1.066 1.43l-.425.18-.145.45a12.033 12.033 0 0 1-2.727 4.59 7.042 7.042 0 0 1-1.059.87 4.686 4.686 0 0 1-2.428.82l.014.01h-.071c-.033 0-.057-.01-.086-.01s-.049.01-.075.01c-.075 0-.14-.04-.211-.04a4.808 4.808 0 0 1-2.337-.79 6.96 6.96 0 0 1-1.043-.86 13.771 13.771 0 0 1-2.829-4.8zM69.88 47.6l-.882-3.53 1.061-.93a7.219 7.219 0 0 0 2.494-1.29 13.429 13.429 0 0 1 1.671.56zm-3.414-4.51l1.108.98-.85 3.43-4.34-5.04a14.762 14.762 0 0 1 1.78-.6 7.04 7.04 0 0 0 2.295 1.23z"></path>
		</symbol>
	
		<symbol id="ico-timer" viewBox="0 0 90 72">
			<path fill-opacity="0" d="M0 0h90v72H0z"></path><path d="M32.62 43.99a3.517 3.517 0 0 0 2.588-1.46l9.3-12.94a1.014 1.014 0 0 0-.1-1.3.993.993 0 0 0-1.284-.1L30.27 37.56a3.548 3.548 0 0 0-1.445 2.6 3.586 3.586 0 0 0 1.025 2.8 3.522 3.522 0 0 0 2.5 1.04 2.574 2.574 0 0 0 .27-.01zm-1.822-3.68a1.574 1.574 0 0 1 .632-1.14l7.841-5.71-5.671 7.9a1.524 1.524 0 0 1-1.135.63 1.544 1.544 0 0 1-1.219-.45 1.569 1.569 0 0 1-.446-1.23zm24.063-14.75c-.01-.02-.01-.04-.021-.06s-.03-.03-.043-.05a27.282 27.282 0 0 0-3.54-4.81l2.133-2.15 1.4 1.42 4.212-4.25-4.212-4.24-4.213 4.24 1.4 1.42-2.133 2.15a26.818 26.818 0 0 0-4.775-3.57c-.019-.01-.029-.03-.049-.04s-.043-.01-.064-.02a26.446 26.446 0 0 0-10.2-3.41V11h1.489a2.5 2.5 0 0 0 0-5h-8.937a2.5 2.5 0 0 0 0 5h1.49v1.16a26.872 26.872 0 0 0-3.2.53 1 1 0 0 0 .443 1.95 26.091 26.091 0 0 1 2.761-.48l1.065-.08c.326-.03.626-.04.918-.06V16a.993.993 0 1 0 1.985 0v-1.97a24.341 24.341 0 0 1 10.382 2.85l-.979 1.7a1.009 1.009 0 0 0 .364 1.37.98.98 0 0 0 .5.13.993.993 0 0 0 .861-.5l.976-1.7a25.034 25.034 0 0 1 7.717 7.77l-1.691.98a1.009 1.009 0 0 0-.362 1.37 1 1 0 0 0 1.357.37l1.694-.99A24.983 24.983 0 0 1 56.418 38H54.46a1 1 0 0 0 0 2h1.961a24.983 24.983 0 0 1-2.829 10.62l-1.694-.99a1 1 0 0 0-.993 1.73l1.691.99a25.141 25.141 0 0 1-7.717 7.77l-.976-1.7a.987.987 0 0 0-1.357-.37 1.008 1.008 0 0 0-.363 1.37l.979 1.7a24.629 24.629 0 0 1-10.382 2.85V62a.993.993 0 1 0-1.985 0v1.98a25.474 25.474 0 0 1-4.743-.62.985.985 0 0 0-1.189.75 1 1 0 0 0 .746 1.2 26.637 26.637 0 0 0 6.015.69h.161c.008 0 .015-.01.023-.01a26.476 26.476 0 0 0 13.125-3.57.364.364 0 0 0 .094-.04c.02-.01.03-.03.049-.04a27.108 27.108 0 0 0 9.7-9.76c.019-.03.043-.05.059-.08s.011-.04.021-.06a27.074 27.074 0 0 0 .005-26.88zm-.068-11.31l1.4 1.41-1.4 1.42-1.4-1.42zm-24-2.23V9h-3.476a.5.5 0 0 1 0-1h8.937a.5.5 0 0 1 0 1h-3.476v3.02c-.345-.01-.675-.02-.993-.02h-.161c-.163 0-.326.01-.489.01-.115.01-.223.01-.342.01zM22.849 20h-4.964a1 1 0 0 0 0 2h4.964a1 1 0 0 0 0-2zm0 7H12.92a1 1 0 0 0 0 2h9.929a1 1 0 0 0 0-2zm0 7H7.956a1 1 0 0 0 0 2h14.893a1 1 0 0 0 0-2zm0 7H3.984a1 1 0 0 0 0 2h18.865a1 1 0 0 0 0-2zm0 7H9.942a1 1 0 0 0 0 2h12.907a1 1 0 0 0 0-2zm0 7H15.9a1 1 0 0 0 0 2h6.95a1 1 0 0 0-.001-2z"></path>
		</symbol>
	
</svg>
