<svg xmlns="http://www.w3.org/2000/svg" xmlns:xlink="http://www.w3.org/1999/xlink" width="0" height="0" style="position:absolute">
	
		<symbol id="ico-create-invest" viewBox="0 0 44.29 36.29">
			<defs><style>.cls-1{fill:#34265f;stroke:#fff;stroke-width:.29px;fill-rule:evenodd}</style></defs><path id="Forma_1" data-name="Forma 1" class="cls-1" d="M779.13 3025.73h-2.26a2.075 2.075 0 1 1 0-4.15h4.519a1.27 1.27 0 1 0 0-2.54h-2.1v-2.08a1.289 1.289 0 0 0-2.578 0v2.08a4.616 4.616 0 0 0 .159 9.23h2.26a2.075 2.075 0 1 1 0 4.15h-4.519a1.27 1.27 0 1 0 0 2.54h2.1v2.08a1.289 1.289 0 0 0 2.578 0v-2.08a4.616 4.616 0 0 0-.159-9.23zm14.919 6.8a1.288 1.288 0 0 0-1.7.65 15.713 15.713 0 0 1-29.8-3.66l3.419 2.26a1.3 1.3 0 0 0 1.788-.36 1.258 1.258 0 0 0-.356-1.76l-5.636-3.72a1.3 1.3 0 0 0-1.788.35l-3.765 5.57a1.281 1.281 0 0 0 1.071 1.98 1.29 1.29 0 0 0 1.073-.57l1.778-2.63a17.829 17.829 0 0 0 5.114 9.23 18.359 18.359 0 0 0 29.46-5.67 1.26 1.26 0 0 0-.658-1.67zm5.377-12.15a1.3 1.3 0 0 0-1.788.35l-1.778 2.63a17.829 17.829 0 0 0-5.114-9.23 18.36 18.36 0 0 0-29.461 5.67 1.276 1.276 0 0 0 .665 1.68 1.3 1.3 0 0 0 1.7-.66 15.713 15.713 0 0 1 29.8 3.66l-3.419-2.26a1.3 1.3 0 0 0-1.788.36 1.258 1.258 0 0 0 .356 1.76l5.636 3.72a1.33 1.33 0 0 0 .714.21 1.3 1.3 0 0 0 1.073-.56l3.766-5.57a1.258 1.258 0 0 0-.362-1.76z" transform="translate(-755.855 -3008.855)"></path>
		</symbol>
	
		<symbol id="ico-get-profit" viewBox="0 0 47.32 45.32">
			<defs><style>.cls-1{fill:#34265f;stroke:#34265f;stroke-width:.29px;fill-rule:evenodd}</style></defs><path id="Forma_1" data-name="Forma 1" class="cls-1" d="M1099.93 3018.78h-39.26a.668.668 0 0 0-.67.66v18.67a.67.67 0 0 0 .67.67h26.7a.67.67 0 0 0 .67-.67.662.662 0 0 0-.67-.66h-26.02v-17.34h37.91v1.67a.677.677 0 0 0 .67.67.679.679 0 0 0 .68-.67v-2.33a.672.672 0 0 0-.68-.67zm-4.56-3.1l-31.41-7a.758.758 0 0 0-.51.09.691.691 0 0 0-.29.42l-1.57 7a.665.665 0 0 0 .51.8.673.673 0 0 0 .8-.51l1.42-6.35 30.75 6.85a.389.389 0 0 0 .15.02.668.668 0 0 0 .15-1.32zm-3.81-3.85l-18.85-7.78a.664.664 0 0 0-.86.32l-1.57 3.11a.667.667 0 0 0 .27.91.694.694 0 0 0 .92-.27.227.227 0 0 1 .01-.04l1.29-2.56 18.27 7.54a.677.677 0 0 0 .88-.36.666.666 0 0 0-.36-.87zm.47 10.06h-6.23a.665.665 0 1 0 0 1.33h6.23a.665.665 0 1 0 0-1.33zm-12.51.04a6.845 6.845 0 1 0 6.91 6.85 6.88 6.88 0 0 0-6.91-6.85zm0 12.45a5.6 5.6 0 1 1 5.65-5.6 5.636 5.636 0 0 1-5.65 5.6zm18.84-10.27c-4.16 0-8.63.98-8.63 3.11v18.67c0 2.14 4.47 3.11 8.63 3.11s8.64-.97 8.64-3.11v-18.67c0-2.13-4.48-3.11-8.64-3.11zm7.07 21.77c-.12.43-2.47 1.56-7.07 1.56s-6.95-1.13-7.06-1.55v-1.22a21.067 21.067 0 0 0 14.13 0v1.21zm0-3.11c-.12.43-2.47 1.56-7.07 1.56s-6.95-1.13-7.06-1.55v-1.22a20.986 20.986 0 0 0 14.13-.01v1.22zm0-3.11c-.12.43-2.47 1.56-7.07 1.56s-6.95-1.13-7.06-1.55v-1.23a17.319 17.319 0 0 0 7.06 1.23 17.507 17.507 0 0 0 7.07-1.23v1.22zm0-3.12c-.12.44-2.47 1.57-7.07 1.57s-6.95-1.13-7.06-1.55v-1.23a17.319 17.319 0 0 0 7.06 1.23 17.507 17.507 0 0 0 7.07-1.23v1.21zm0-3.11c-.12.44-2.47 1.57-7.07 1.57s-6.95-1.13-7.06-1.55v-1.23a20.905 20.905 0 0 0 14.13 0v1.21zm0-3.11c-.12.43-2.47 1.57-7.07 1.57s-6.95-1.14-7.06-1.56v-1.22a21.067 21.067 0 0 0 14.13 0v1.21zm-7.07-1.54c-4.58 0-6.94-1.13-7.06-1.54v-.01c.12-.43 2.48-1.56 7.06-1.56 4.56 0 6.91 1.11 7.07 1.55-.16.44-2.51 1.56-7.07 1.56zm-25.12 5.55h-5.94l-2.81-3.05v-5.05l3.1-3.01h5.65a.665.665 0 1 0 0-1.33h-5.92a.7.7 0 0 0-.47.19l-3.51 3.39a.82.82 0 0 0-.2.54v5.53a.627.627 0 0 0 .18.45l3.19 3.46a.644.644 0 0 0 .49.22h6.24a.67.67 0 0 0 0-1.34zm6.67-6.33h-.78a.248.248 0 1 1 0-.39h1.96a.781.781 0 0 0 .78-.78.773.773 0 0 0-.78-.77h-.79a.785.785 0 0 0-1.57 0v.03a1.816 1.816 0 0 0-1.57 1.71 1.881 1.881 0 0 0 1.97 1.76h.78a.244.244 0 1 1 0 .39h-1.96a.775.775 0 0 0-.79.77.783.783 0 0 0 .79.78h.78a.785.785 0 0 0 1.57 0v-.03a1.826 1.826 0 0 0 1.57-1.72 1.858 1.858 0 0 0-1.96-1.75z" transform="translate(-1059.84 -3003.84)"></path>
		</symbol>
	
		<symbol id="ico-login" viewBox="0 0 30 32">
			<defs><style>.cls-1{fill:#34265f;fill-rule:evenodd}</style></defs><path class="cls-1" d="M.96 16.72h19.152l-4.939 5a1 1 0 0 0 .679 1.7.934.934 0 0 0 .678-.27l6.151-6.11a.949.949 0 0 0 0-1.35l-.291-.29a.94.94 0 0 0-.247-.24l-5.612-5.59a.969.969 0 0 0-1.358 0 .846.846 0 0 0 0 1.26l4.086 3.98H.959a.955.955 0 1 0 .001 1.91zM30 28.31V4.56A4.54 4.54 0 0 0 25.8 0H13.32a4.727 4.727 0 0 0-4.441 4.56v5.65a.96.96 0 0 0 1.92 0V4.56a2.826 2.826 0 0 1 2.521-2.65H25.8a2.622 2.622 0 0 1 2.279 2.65v23.75c0 1.28-1.057 1.78-2.279 1.78H13.32c-1.135 0-2.521-.42-2.521-1.78v-5.68a.96.96 0 0 0-1.92 0v5.68c0 2.24 2.007 3.69 4.441 3.69H25.8c2.49 0 4.2-1.52 4.2-3.69z"></path>
		</symbol>
	
		<symbol id="ico-select-plan" viewBox="0 0 41 41">
			<defs><style>.cls-1{fill:#34265f;fill-rule:evenodd}</style></defs><path class="cls-1" d="M32.471 22.21V0H0v35.89h23.221a9.412 9.412 0 1 0 9.25-13.68zm-9.944 11.91H1.768V1.77H30.7v20.44a9.422 9.422 0 0 0-8.529 9.38 9.219 9.219 0 0 0 .356 2.53zm9.06 5.11a7.645 7.645 0 1 1 7.645-7.64 7.652 7.652 0 0 1-7.645 7.64zM3.414 3.41v8.6h8.6v-8.6h-8.6zm6.829 6.83h-5.06V5.18h5.06v5.06zm4.285-5.97h9.387v1.77h-9.387V4.27zm0 4.26h14.5v1.77h-14.5V8.53zM3.414 13.64v8.6h8.6v-8.6h-8.6zm6.829 6.83h-5.06v-5.06h5.06v5.06zm4.285-5.97h9.387v1.77h-9.387V14.5zm0 4.26h14.5v1.77h-14.5v-1.77zM3.414 23.87v8.6h8.6v-8.6h-8.6zm6.829 6.83h-5.06v-5.06h5.06v5.06zm25.411-2.72l-5.346 5.33-2.789-2.77-1.251 1.25 4.04 4.03 6.6-6.59z"></path>
		</symbol>
	
</svg>
