<svg xmlns="http://www.w3.org/2000/svg" xmlns:xlink="http://www.w3.org/1999/xlink" width="0" height="0" style="position:absolute">
	
		<symbol id="ico-coins" viewBox="0 0 512.001 512.001">
			<path d="M341.954 328.358c-12.131 0-22-8.542-22-19.041 0-10.5 9.869-19.042 22-19.042s22 8.542 22 19.042c0 5.522 4.478 10 10 10s10-4.478 10-10c0-18.325-13.654-33.733-32-37.915v-5.201c0-5.522-4.478-10-10-10s-10 4.478-10 10v5.201c-18.346 4.182-32 19.59-32 37.915 0 21.527 18.841 39.041 42 39.041 12.131 0 22 8.542 22 19.042s-9.869 19.042-22 19.042-22-8.542-22-19.042c0-5.522-4.478-10-10-10s-10 4.478-10 10c0 18.325 13.654 33.733 32 37.915v4.32c0 5.522 4.478 10 10 10s10-4.478 10-10v-4.32c18.346-4.182 32-19.59 32-37.915 0-21.528-18.841-39.042-42-39.042zM451.482 268.876a130.294 130.294 0 0 0-53.222-47.101c-4.979-2.394-10.954-.298-13.346 4.68-2.393 4.978-.298 10.952 4.68 13.345C427.505 258.024 452 296.963 452 339.001c0 17.988-4.434 35.827-12.821 51.591-2.594 4.875-.745 10.931 4.131 13.525a10 10 0 0 0 13.525-4.131C466.756 381.342 472 360.253 472 339.001c0-24.96-7.095-49.209-20.518-70.125zM357.673 209.002l-.673-.001c-5.522 0-10 4.477-10 10s4.478 10 10 10l.579.001h.048c5.501 0 9.973-4.446 9.999-9.953.025-5.523-4.431-10.021-9.953-10.047zM294.407 438.202c-37.91-18.225-62.405-57.164-62.405-99.201 0-17.988 4.434-35.827 12.821-51.591 2.594-4.875.745-10.931-4.131-13.525-4.874-2.594-10.932-.745-13.525 4.131-9.921 18.645-15.165 39.733-15.165 60.985 0 24.96 7.095 49.208 20.518 70.125a130.304 130.304 0 0 0 53.222 47.102 10.002 10.002 0 0 0 8.665-18.026zM327.002 449.001l-.579-.002c-5.548-.01-10.02 4.429-10.045 9.953-.026 5.523 4.432 10.021 9.954 10.047l.67.002c5.522 0 10-4.478 10-10s-4.478-10-10-10z"></path><path d="M387.409 175.168a45.9 45.9 0 0 0-4.443-8.168H409c25.364 0 46-20.636 46-46s-20.636-46-46-46h-80.08A45.733 45.733 0 0 0 337 49c0-25.364-20.636-46-46-46H46C20.636 3 0 23.636 0 49s20.636 46 46 46h80.08c-5.091 7.402-8.08 16.357-8.08 26s2.988 18.598 8.08 26H100c-25.364 0-46 20.636-46 46 0 14.567 6.814 27.566 17.415 36C60.814 237.434 54 250.433 54 265s6.814 27.566 17.415 36C60.814 309.434 54 322.433 54 337s6.814 27.566 17.415 36C60.814 381.434 54 394.433 54 409c0 25.364 20.636 46 46 46h117.85c31.046 33.207 75.212 54.001 124.151 54.001 93.738 0 170-76.262 170-170 0-78.017-52.83-143.918-124.592-163.833zM409 95c14.337 0 26 11.664 26 26s-11.663 26-26 26H164c-14.337 0-26-11.664-26-26s11.663-26 26-26h245zM46 75c-14.337 0-26-11.664-26-26s11.663-26 26-26h245c14.337 0 26 11.664 26 26s-11.663 26-26 26H46zm54 92h245c4.028 0 7.885.936 11.345 2.612-4.73-.397-9.512-.611-14.344-.611-46.945 0-89.505 19.129-120.299 49.999H100c-14.336 0-26-11.664-26-26s11.664-26 26-26zm0 72h104.615c-11.352 15.553-20.129 33.095-25.703 52H100c-14.337 0-26-11.663-26-26 0-14.336 11.663-26 26-26zm0 72h74.32a170.4 170.4 0 0 0-2.319 28.001c0 8.146.589 16.156 1.702 23.999H100c-14.337 0-26-11.663-26-26s11.663-26 26-26zm0 124c-14.337 0-26-11.663-26-26s11.663-26 26-26h77.786a169.33 169.33 0 0 0 23.993 52H100zm242.001 54.001c-82.71 0-150-67.29-150-150s67.29-150 150-150 150 67.29 150 150-67.29 150-150 150z"></path>
		</symbol>
	
		<symbol id="ico-graph" viewBox="0 0 72 72">
			<defs><style>.cls-1{fill:#fb4537;fill-rule:evenodd}</style></defs><path id="Forma_1" data-name="Forma 1" class="cls-1" d="M878.594 1425.19h-1.125v-41.06a1.408 1.408 0 0 0-1.407-1.41h-11.25a1.408 1.408 0 0 0-1.406 1.41v15.04a1.407 1.407 0 1 0 2.813 0v-13.64h8.437v39.66h-8.437v-12.24a1.407 1.407 0 1 0-2.813 0v12.24h-3.375v-31.78a1.407 1.407 0 0 0-1.406-1.41h-11.25a1.407 1.407 0 0 0-1.406 1.41v31.78h-3.938v-23.06a1.407 1.407 0 0 0-1.406-1.41h-11.25a1.407 1.407 0 0 0-1.406 1.41v23.06h-3.375v-14.06a1.408 1.408 0 0 0-1.407-1.41h-11.249a1.408 1.408 0 0 0-1.407 1.41v14.06h-1.125a1.405 1.405 0 1 0 0 2.81h69.188a1.405 1.405 0 1 0 0-2.81zm-56.813 0h-8.437v-12.66h8.437v12.66zm17.438 0h-8.438v-21.66h8.438v21.66zm18 0h-8.438v-30.38h8.438v30.38zm8.588-20.42a1.407 1.407 0 0 0-2.4 1 1.406 1.406 0 0 0 .412.99 1.411 1.411 0 0 0 1.989 0 1.406 1.406 0 0 0 .412-.99 1.43 1.43 0 0 0-.413-1zm3.506-48.77A10.685 10.685 0 1 0 880 1366.69a10.7 10.7 0 0 0-10.687-10.69zm0 14.78a1.477 1.477 0 0 1-1.6-1.32 1.407 1.407 0 1 0-2.813 0 4.161 4.161 0 0 0 3 3.91v1.06a7.871 7.871 0 0 1 0-15.49v1.16a4.171 4.171 0 0 0-3 3.91 4.279 4.279 0 0 0 4.408 4.13 1.344 1.344 0 1 1 .005 2.64zm1.406 3.65v-1.06a4.161 4.161 0 0 0 3-3.91 4.278 4.278 0 0 0-4.407-4.13 1.339 1.339 0 1 1 1.594-1.32 1.407 1.407 0 1 0 2.813 0 4.171 4.171 0 0 0-3-3.91v-1.16a7.871 7.871 0 0 1 0 15.49zm-12.657-.24h-5.5a1.405 1.405 0 1 0 0 2.81h2.11l-15.035 15.04-7.639-7.64a1.405 1.405 0 0 0-1.989 0l-15.294 15.29a1.408 1.408 0 0 0 0 1.99 1.387 1.387 0 0 0 1.989 0l14.3-14.3 7.639 7.64a1.405 1.405 0 0 0 1.989 0l16.03-16.03v2.11a1.406 1.406 0 1 0 2.812 0v-5.5a1.407 1.407 0 0 0-1.412-1.41zm-45.019 29.16a1.407 1.407 0 0 0-2.4 1 1.406 1.406 0 0 0 .412.99 1.411 1.411 0 0 0 1.989 0 1.406 1.406 0 0 0 .412-.99 1.43 1.43 0 0 0-.413-1z" transform="translate(-808 -1356)"></path>
		</symbol>
	
		<symbol id="ico-wallet" viewBox="0 0 71 71">
			<defs><style>.cls-1{fill:#fb4537;fill-rule:evenodd}</style></defs><path id="Forma_1" data-name="Forma 1" class="cls-1" d="M1104.17 1400.3a3.605 3.605 0 1 0 3.6 3.61 3.615 3.615 0 0 0-3.6-3.61zm0 4.44a.828.828 0 0 1-.83-.83.83.83 0 1 1 1.66 0 .828.828 0 0 1-.83.83zm11.13-9.03a1.4 1.4 0 0 0-.98-.41 1.385 1.385 0 0 0-.98.41 1.368 1.368 0 0 0-.41.98 1.4 1.4 0 0 0 .41.98 1.419 1.419 0 0 0 .98.4 1.438 1.438 0 0 0 .98-.4 1.4 1.4 0 0 0 .41-.98 1.368 1.368 0 0 0-.41-.98zm17.77-21.74h-1.5l-19.56-19.56a1.37 1.37 0 0 0-1.96 0l-5.01 5.01-20.04-5.37a1.387 1.387 0 0 0-1.7.98l-5.08 18.94h-3.4a5.826 5.826 0 0 0-5.82 5.82 1.77 1.77 0 0 0 .01.23.487.487 0 0 0-.01.12v37.93a6.939 6.939 0 0 0 6.93 6.93h57.14a6.942 6.942 0 0 0 6.93-6.94v-37.16a6.939 6.939 0 0 0-6.93-6.93zm-1.24 2.77h1.24a4.17 4.17 0 0 1 4.16 4.16v11.11a3.293 3.293 0 0 1-3.29 3.29h-1.43v-5.53a6.944 6.944 0 0 0-6.79-6.93zm-25.4-14.8l4.6-4.59 18.13 18.13-7.31 7.32h-2.54l3.32-3.32a1.388 1.388 0 0 0 0-1.96 2.885 2.885 0 0 1 0-4.07 1.4 1.4 0 0 0 0-1.97l-7.6-7.6a1.388 1.388 0 0 0-1.96 0 2.9 2.9 0 0 1-4.08 0 1.388 1.388 0 0 0-1.96 0l-18.91 18.92h-2.54zm-4.08 15.65a6.616 6.616 0 0 0-6.46 5.21h-3.85l16.1-16.1a5.65 5.65 0 0 0 5.78 0l5.89 5.89a5.669 5.669 0 0 0 0 5.79l-4.42 4.42h-6.57a6.627 6.627 0 0 0-6.47-5.21zm3.58 5.21h-7.15a3.839 3.839 0 0 1 7.15 0zm-21.82-2.46l3.68-13.71a5.684 5.684 0 0 0 5.01-2.89l6.24 1.67-9.05 9.06zm1.51-23.26l17.15 4.6-1.46 1.47-8.96-2.41a1.447 1.447 0 0 0-1.06.14 1.418 1.418 0 0 0-.64.84 2.882 2.882 0 0 1-3.53 2.04 1.387 1.387 0 0 0-1.7.98l-4.85 18.1h-1.85zm-10.8 19.66h2.66l-1.64 6.1h-1.02a3.05 3.05 0 0 1 0-6.1zm62.41 41.32a4.163 4.163 0 0 1-4.16 4.16h-1.95a6.861 6.861 0 0 0 1.39-4.15v-5.57h.83a6.644 6.644 0 0 0 3.89-1.26v6.82zm0-12.22a3.892 3.892 0 0 1-3.89 3.88h-29.12a5.825 5.825 0 0 1 0-11.65h4.21a1.385 1.385 0 0 0 0-2.77h-4.21a8.6 8.6 0 0 0 0 17.19h25.52v5.58a4.17 4.17 0 0 1-4.1 4.16h-47.21v-15.62a1.385 1.385 0 1 0-2.77 0v15.61a4.173 4.173 0 0 1-3.89-4.15v-33.32a5.792 5.792 0 0 0 3.05.86h50.76a4.17 4.17 0 0 1 4.16 4.16v5.53h-10.03a1.385 1.385 0 1 0 0 2.77h14.23a5.993 5.993 0 0 0 3.29-.97v8.74zm-59.21-5.62a1.359 1.359 0 0 0-.98-.4 1.366 1.366 0 0 0-1.38 1.38 1.376 1.376 0 0 0 .4.98 1.4 1.4 0 0 0 .98.41 1.368 1.368 0 0 0 .98-.41 1.385 1.385 0 0 0 .41-.98 1.4 1.4 0 0 0-.41-.98z" transform="translate(-1069 -1354)"></path>
		</symbol>
	
</svg>
