<svg xmlns="http://www.w3.org/2000/svg" xmlns:xlink="http://www.w3.org/1999/xlink" width="0" height="0" style="position:absolute">
	
		<symbol id="ico-currency-exchange" viewBox="0 0 172.4 193.4">
			<defs><style>.cls-1{fill:#fb4537;stroke:#fff;stroke-width:.4px;fill-rule:evenodd}</style></defs><path id="Forma_1" data-name="Forma 1" class="cls-1" d="M259.946 864.9a81.319 81.319 0 0 0-37.863-34.136 84.542 84.542 0 0 0-15.858-5.209l-3.923-.874 6.405-4.771a3.629 3.629 0 0 0 1.452-2.445 3.551 3.551 0 0 0-.774-2.715l-4.306-5.326a3.864 3.864 0 0 0-3.027-1.424 3.948 3.948 0 0 0-2.347.772l-23.3 17.358a3.584 3.584 0 0 0-.679 5.159l18.078 22.365a3.836 3.836 0 0 0 2.551 1.4 3.991 3.991 0 0 0 2.822-.744l5.547-4.134a3.584 3.584 0 0 0 .678-5.159l-5.309-6.569 5.577 1.494a70.246 70.246 0 0 1 10.259 3.625 65.72 65.72 0 0 1 30.99 27.833 3.85 3.85 0 0 0 3.369 1.927 3.986 3.986 0 0 0 1.7-.384l6.288-3a3.743 3.743 0 0 0 1.945-2.18 3.562 3.562 0 0 0-.275-2.863zm-93.224 90.445a3.848 3.848 0 0 0-2.546-1.394 3.974 3.974 0 0 0-2.828.744l-5.548 4.133a3.626 3.626 0 0 0-1.451 2.445 3.542 3.542 0 0 0 .774 2.713l5.31 6.57-5.577-1.493a70.392 70.392 0 0 1-10.256-3.624 65.722 65.722 0 0 1-30.986-27.84 3.858 3.858 0 0 0-3.369-1.927 3.992 3.992 0 0 0-1.7.386l-6.289 3a3.748 3.748 0 0 0-1.945 2.181 3.566 3.566 0 0 0 .281 2.858 81.321 81.321 0 0 0 37.862 34.136 84.453 84.453 0 0 0 15.856 5.211l3.923.874-6.4 4.77a3.617 3.617 0 0 0-1.452 2.446 3.542 3.542 0 0 0 .775 2.714l4.307 5.326a3.866 3.866 0 0 0 3.027 1.423 4.008 4.008 0 0 0 2.347-.77l23.295-17.361a3.582 3.582 0 0 0 .677-5.158zm-27.181-31.223a42.5 42.5 0 0 0 17.705-3.841 3.01 3.01 0 0 0 1.518-4.08l-5.188-10.526a3.253 3.253 0 0 0-4.251-1.459 23.478 23.478 0 0 1-9.785 2.133c-11.793 0-22.013-8.783-25.4-21.342h27.134a3.131 3.131 0 0 0 3.192-3.065V870.3a3.131 3.131 0 0 0-3.192-3.064h-27.129c3.383-12.558 13.605-21.342 25.4-21.342a23.571 23.571 0 0 1 9.791 2.135 3.25 3.25 0 0 0 4.249-1.463l5.181-10.526a3.013 3.013 0 0 0-1.522-4.08 42.557 42.557 0 0 0-17.7-3.839c-21.728 0-40.335 16.632-44.3 39.113h-3.052A3.13 3.13 0 0 0 89 870.3v11.645a3.13 3.13 0 0 0 3.192 3.065h3.048c3.96 22.479 22.571 39.111 44.301 39.111zm94.185 14.244c-12.736-3.7-15.142-5.349-15.142-10.349 0-4.9 8.406-6.212 13.377-6.212 4.785 0 10.478 1.458 13.844 3.545a3.31 3.31 0 0 0 2.4.422 3.2 3.2 0 0 0 2.01-1.335l6.58-9.781a2.967 2.967 0 0 0 .439-2.308 3.068 3.068 0 0 0-1.389-1.929 44.07 44.07 0 0 0-14.636-5.473v-9.667a3.13 3.13 0 0 0-3.191-3.065h-12.127a3.256 3.256 0 0 0-2.256.9 3.006 3.006 0 0 0-.936 2.168v9.6c-13.841 2.671-22.627 11.539-22.627 23.141 0 19.131 17.025 24.083 28.288 27.356 12.4 3.609 14.158 5.171 14.124 9.076a3.681 3.681 0 0 1-2 3.321c-2.292 1.522-6.2 2.4-10.729 2.4h-.072c-5.883-.009-12.486-2.547-16.068-6.18a3.283 3.283 0 0 0-4.511-.118l-8.809 8a2.979 2.979 0 0 0-.124 4.332c5.567 5.648 13.829 9.709 22.525 11.154v9.336a3.129 3.129 0 0 0 3.192 3.063h12.128a3.129 3.129 0 0 0 3.192-3.063v-10.1a31.6 31.6 0 0 0 9.809-4.216c6.434-4.275 9.976-10.627 9.976-17.864.161-18.18-16.345-22.98-27.267-26.155z" transform="translate(-88.8 -807.8)"></path>
		</symbol>
	
		<symbol id="ico-deposit-account" viewBox="0 0 126.5 126.5">
			<defs><style>.cls-1{fill:#fb4537;stroke:#fb4537;stroke-width:.37px;fill-rule:evenodd}</style></defs><path id="Forma_1" data-name="Forma 1" class="cls-1" d="M201.05 840.545v-85.26a2.338 2.338 0 0 0-2.338-2.338h-85.277a2.337 2.337 0 0 0-2.338 2.338v85.26a2.338 2.338 0 0 0 2.338 2.338h85.277a2.338 2.338 0 0 0 2.338-2.338zm-4.676-2.337h-80.6v-80.586h80.6v80.586zm-17.052 24.508a2.337 2.337 0 0 0 2.338 2.337h17.055a2.338 2.338 0 0 0 2.339-2.337v-5.832h11.663a2.337 2.337 0 0 0 2.337-2.338V741.284a2.337 2.337 0 0 0-2.337-2.338H99.428a2.338 2.338 0 0 0-2.338 2.338V770h-5.806a2.337 2.337 0 0 0-2.338 2.337v17.051a2.337 2.337 0 0 0 2.338 2.337h5.806V804.1h-5.806a2.338 2.338 0 0 0-2.338 2.338v17.052a2.338 2.338 0 0 0 2.338 2.338h5.806v28.716a2.338 2.338 0 0 0 2.338 2.338H111.1v5.832a2.337 2.337 0 0 0 2.338 2.337h17.055a2.337 2.337 0 0 0 2.338-2.337v-5.832h46.491v5.831zm-85.7-75.665v-12.375h3.468v12.375h-3.468zm0 34.1v-12.373h3.468v12.378h-3.468zm34.533 39.222h-12.379v-3.494h12.379v3.494zm2.338-8.169h-28.727V743.621h108.612v108.588h-79.885zm65.885 4.675v3.494H184v-3.494h12.38zm-60.926-47.066a.7.7 0 0 0 .04.06 23.8 23.8 0 0 0 41.16.007c.013-.023.031-.043.044-.066s.023-.044.034-.067a23.768 23.768 0 0 0-.013-23.7c-.008-.013-.013-.028-.021-.042s-.027-.039-.039-.061a23.8 23.8 0 0 0-41.2.052.047.047 0 0 0-.006.009.025.025 0 0 0 0 .007 23.768 23.768 0 0 0-.03 23.739c.012.029.02.049.031.067zm20.623-20.3a8.39 8.39 0 0 1 7.287 12.566l-.019.029c-.006.01-.01.022-.016.031a8.4 8.4 0 1 1-7.252-12.622zm19.135 8.4a19.022 19.022 0 0 1-1.519 7.471l-5.307-3.062a13.055 13.055 0 0 0 0-8.815l5.307-3.062a19.011 19.011 0 0 1 1.519 7.469zm-31.445 4.407l-5.309 3.064a19.121 19.121 0 0 1 0-14.94l5.31 3.065a13.052 13.052 0 0 0-.001 8.812zm-2.965 7.11l5.309-3.065a13.082 13.082 0 0 0 7.627 4.41v6.13a19.144 19.144 0 0 1-12.936-7.475zm17.612 7.474v-6.13a13.071 13.071 0 0 0 7.625-4.408l5.308 3.064a19.133 19.133 0 0 1-12.932 7.47zm12.935-30.5l-5.308 3.064a13.074 13.074 0 0 0-7.627-4.41v-6.13a19.145 19.145 0 0 1 12.936 7.472zm-17.611-7.476v6.13a13.081 13.081 0 0 0-7.628 4.41L140.8 786.4a19.152 19.152 0 0 1 12.937-7.475z" transform="translate(-88.75 -738.75)"></path>
		</symbol>
	
		<symbol id="ico-desk" viewBox="0 0 24.088 21.088">
			<path d="M22.172.044H1.916a1.887 1.887 0 0 0-1.872 1.9v14.362a1.887 1.887 0 0 0 1.872 1.9h9.421v1.411H8.861v1.427h6.366v-1.433h-2.476V18.2h9.421a1.887 1.887 0 0 0 1.872-1.9V1.944a1.887 1.887 0 0 0-1.872-1.9zM1.916 1.478h20.256a.46.46 0 0 1 .458.463V13.37H1.458V1.944a.46.46 0 0 1 .458-.466zm20.256 15.289H1.916a.461.461 0 0 1-.457-.464v-1.5h21.172v1.5a.461.461 0 0 1-.459.464z"></path>
		</symbol>
	
		<symbol id="ico-diagram" viewBox="0 0 28.438 28.438">
			<defs><style>.cls-1{fill:#fb4537;stroke:#fb4537;stroke-width:.44px;fill-rule:evenodd}</style></defs><path class="cls-1" d="M22.697 15.877H12.564V5.745a.734.734 0 0 0-.737-.737 11.606 11.606 0 1 0 11.607 11.611.741.741 0 0 0-.737-.742zm-10.87 10.868A10.131 10.131 0 0 1 11.09 6.51v10.1a.734.734 0 0 0 .737.737h10.106a10.142 10.142 0 0 1-10.106 9.398zm16.392-14.959A11.605 11.605 0 0 0 16.611.219a.734.734 0 0 0-.737.737v10.868a.734.734 0 0 0 .737.737h10.871a.734.734 0 0 0 .737-.737v-.038zm-10.871-.693V1.726a10.138 10.138 0 0 1 9.37 9.367h-9.37z"></path>
		</symbol>
	
		<symbol id="ico-graph" viewBox="0 0 24 24">
			<defs><style>.cls-1{fill:#fb4537;fill-rule:evenodd}</style></defs><path id="Forma_1" data-name="Forma 1" class="cls-1" d="M112 307H90a1 1 0 0 0-1 1v14.044a1 1 0 0 0 1 1h10v3.36l-5.857 2.69a1 1 0 0 0 .837 1.817L100 328.6v1.4a1 1 0 0 0 2 0v-1.4l5.019 2.307a.991.991 0 0 0 1.327-.49 1 1 0 0 0-.49-1.327L102 326.4v-3.36h10a1 1 0 0 0 1-1V308a1 1 0 0 0-1-1zm-1 14.043H91V309h19.994v12.045zm-16.545-3.933l4.025-2.184 4.211 1.807a1 1 0 0 0 .769.01l4.931-2a1 1 0 0 0-.754-1.851l-4.54 1.842-4.275-1.837a.99.99 0 0 0-.872.039l-4.45 2.411a1 1 0 0 0 .955 1.763z" transform="translate(-89 -307)"></path>
		</symbol>
	
		<symbol id="ico-help" viewBox="0 0 24 24">
			<defs><style>.cls-1{fill:#fb4537;fill-rule:evenodd}</style></defs><path id="Forma_1" data-name="Forma 1" class="cls-1" d="M101 1115.57a1.17 1.17 0 1 1-1.172 1.17 1.169 1.169 0 0 1 1.172-1.17zm0-16.57a12 12 0 1 0 12 12 12 12 0 0 0-12-12zm0 22.13a10.125 10.125 0 1 1 10.125-10.13A10.122 10.122 0 0 1 101 1121.13zm0-16.11a3.759 3.759 0 0 0-3.75 3.75.938.938 0 1 0 1.875 0 1.875 1.875 0 1 1 1.875 1.88.938.938 0 0 0-.937.94v2.34a.938.938 0 1 0 1.875 0v-1.53a3.75 3.75 0 0 0-.938-7.38z" transform="translate(-89 -1099)"></path>
		</symbol>
	
		<symbol id="ico-invest" viewBox="0 0 29 24">
			<defs><style>.cls-1{fill:#fb4537;fill-rule:evenodd}</style></defs><path id="Forma_1" data-name="Forma 1" class="cls-1" d="M101.244 246.152h-1.489a1.382 1.382 0 1 1 0-2.764h2.979a.849.849 0 1 0 0-1.7h-1.384v-1.382a.85.85 0 0 0-1.7 0v1.385a3.078 3.078 0 0 0 .1 6.154h1.489a1.382 1.382 0 1 1 0 2.764h-2.973a.849.849 0 1 0 0 1.7h1.384v1.382a.85.85 0 0 0 1.7 0v-1.384a3.078 3.078 0 0 0-.106-6.155zm9.834 4.531a.851.851 0 0 0-1.119.438 10.323 10.323 0 0 1-19.638-2.441l2.253 1.5a.849.849 0 1 0 .944-1.411L89.8 246.3a.85.85 0 0 0-1.178.234l-2.482 3.709a.849.849 0 0 0 1.413.942l1.172-1.751a12.026 12.026 0 0 0 22.787 2.371.848.848 0 0 0-.434-1.122zm3.544-8.1a.851.851 0 0 0-1.179.234l-1.172 1.751a12.026 12.026 0 0 0-22.787-2.368.849.849 0 0 0 1.557.679 10.323 10.323 0 0 1 19.638 2.441l-2.253-1.5a.849.849 0 1 0-.944 1.411l3.714 2.478a.847.847 0 0 0 1.178-.234l2.482-3.708a.848.848 0 0 0-.234-1.181z" transform="translate(-86 -235)"></path>
		</symbol>
	
		<symbol id="ico-lock" viewBox="0 0 20.15 25.15">
			<defs><style>.cls-1{fill:#fb4537;stroke:#fff;stroke-width:.15px;fill-rule:evenodd}</style></defs><path id="Forma_1" data-name="Forma 1" class="cls-1" d="M107.059 963.18h-1.767v-4.015a5.3 5.3 0 0 0-10.588 0v4.015h-1.763A2.938 2.938 0 0 0 90 966.109v9.961a2.939 2.939 0 0 0 2.941 2.93h14.118a2.938 2.938 0 0 0 2.941-2.93v-9.961a2.938 2.938 0 0 0-2.941-2.929zm-10.394-4.015a3.336 3.336 0 0 1 6.667 0v4.015h-6.667v-4.015zm11.374 16.905a.98.98 0 0 1-.98.977H92.941a.98.98 0 0 1-.98-.977v-9.961a.979.979 0 0 1 .98-.976h14.118a.979.979 0 0 1 .98.976v9.961zM100 967.965a1.805 1.805 0 0 0-.982 3.325v2.144a.981.981 0 0 0 1.961 0v-2.142a1.8 1.8 0 0 0-.979-3.327z" transform="translate(-89.925 -953.925)"></path>
		</symbol>
	
		<symbol id="ico-partners" viewBox="0 0 27.876 27.876">
			<defs><style>.cls-1{fill:#fb4537;stroke:#fb4537;stroke-width:.2px;fill-rule:evenodd}</style></defs><path id="Forma_1" data-name="Forma 1" class="cls-1" d="M100 598.3a2.564 2.564 0 1 0-2.514-2.564A2.539 2.539 0 0 0 100 598.3zm0-3.845a1.282 1.282 0 1 1-1.257 1.281 1.269 1.269 0 0 1 1.257-1.281zm.913 4.261H99.12a3.454 3.454 0 0 0-3.519 3.394v.547a.617.617 0 0 0 .691.545h7.416a.618.618 0 0 0 .692-.545v-.513a3.457 3.457 0 0 0-3.487-3.428zm-3.993 3.205a2.234 2.234 0 0 1 2.2-1.921h1.76a2.234 2.234 0 0 1 2.2 1.923h-6.16zm-7.133 7.53a.634.634 0 0 0 .629-.64A9.848 9.848 0 0 1 94 601.184a.65.65 0 0 0 .011-.906.619.619 0 0 0-.8-.087 11.106 11.106 0 0 0-4.054 8.62.634.634 0 0 0 .63.64zm13.276 8.615h-.015a9.374 9.374 0 0 1-6.065 0 .626.626 0 0 0-.786.417.613.613 0 0 0 .34.788l.037.013a10.554 10.554 0 0 0 6.882 0 .676.676 0 0 0 .408-.833.624.624 0 0 0-.801-.385zm2.468-17.235a9.8 9.8 0 0 1 4.054 7.98.629.629 0 1 0 1.257 0 11.19 11.19 0 0 0-4.588-9.037.624.624 0 0 0-.88.16.652.652 0 0 0 .157.897zm-14.959 15.093a2.564 2.564 0 1 0-2.514-2.563 2.539 2.539 0 0 0 2.514 2.563zm0-3.845a1.282 1.282 0 1 1-1.257 1.282 1.27 1.27 0 0 1 1.257-1.282zm.913 4.261h-1.792a3.455 3.455 0 0 0-3.519 3.395v.546a.617.617 0 0 0 .692.545h7.416a.617.617 0 0 0 .691-.545v-.511a3.457 3.457 0 0 0-3.487-3.43zm-3.993 3.2a2.233 2.233 0 0 1 2.2-1.922h1.76a2.233 2.233 0 0 1 2.2 1.922h-6.159zm19.421-6.184a2.514 2.514 0 1 0 2.514-2.564 2.539 2.539 0 0 0-2.513 2.569zm3.771 0a1.257 1.257 0 1 1-1.257-1.282 1.27 1.27 0 0 1 1.258 1.287zm-.344 2.979h-1.793a3.455 3.455 0 0 0-3.519 3.395v.546a.617.617 0 0 0 .691.545h7.417a.617.617 0 0 0 .691-.545v-.506a3.457 3.457 0 0 0-3.486-3.43zm-3.993 3.2a2.233 2.233 0 0 1 2.2-1.922h1.759a2.233 2.233 0 0 1 2.2 1.922h-6.159z" transform="translate(-86.063 -593.062)"></path>
		</symbol>
	
		<symbol id="ico-partners-account" viewBox="0 0 31.687 30.562">
			<defs><style>.cls-1{fill:#fb4537;stroke:#fb4537;stroke-width:.59px;fill-rule:evenodd}</style></defs><path id="Forma_1" data-name="Forma 1" class="cls-1" d="M110.926 685.378l-1.734-1.724a.521.521 0 0 0-.665-.055l-7.554 5.438-2.675-1.23 2.348-.255a.5.5 0 0 0 .45-.5v-2.159a.505.505 0 0 0-.512-.5h-2.557l-4.307-.43a.521.521 0 0 0-.256.04l-2.936 1.229H85v1h5.636a.531.531 0 0 0 .2-.04l2.91-1.245 4.2.42h2.143v1.24l-1.892.23-2.746-.285a.51.51 0 0 0-.542.365.5.5 0 0 0 .271.584l5.672 2.549a.521.521 0 0 0 .512-.05l7.437-5.337 1.023 1.039L101.28 693h-2.317l-8.158-2.964a.521.521 0 0 0-.179-.036H85v1h5.539l8.153 2.969a.518.518 0 0 0 .179.029h2.6a.518.518 0 0 0 .338-.124l9.094-7.767.025-.023a.492.492 0 0 0-.002-.706zm1.361-8.871l-2.7-2.744a.517.517 0 0 0-.327-.155l-5.524-.5h-2.107l.1-1.5 2-.395 2.793.61a.5.5 0 0 0 .173 0l2.716-.315-.122-1-2.629.275-2.813-.61a.415.415 0 0 0-.21 0l-2.491.5a.5.5 0 0 0-.414.459l-.164 2.434v.031a.506.506 0 0 0 .513.5h2.608l5.289.47 2.721 2.784a.521.521 0 0 0 .368.155h3.621v-1h-3.4zm-.89-10.4a.453.453 0 0 0-.2-.09l-8.695-2a.518.518 0 0 0-.419.094l-5.626 4 .6.809 5.436-3.863 8.358 1.919 4.516 3.434.624-.8zm-8.306.964a.529.529 0 0 0-.42 0l-3.069 1.5.461.889 2.864-1.394 2.342.934.379-.929zm-1.76 6.467a4.009 4.009 0 0 1-2.347 3.1 4.132 4.132 0 0 1-5.426-1.964 3.961 3.961 0 0 1 2.01-5.3 4.133 4.133 0 0 1 5.427 1.964l.925-.419a5.122 5.122 0 0 0-4.644-2.9 5 5 0 1 0 5.079 5.657z" transform="translate(-84.719 -663.719)"></path>
		</symbol>
	
		<symbol id="ico-person" viewBox="0 0 24.062 24">
			<defs><style>.cls-1{fill:#fb4537;fill-rule:evenodd}</style></defs><path id="Forma_1" data-name="Forma 1" class="cls-1" d="M105.017 462.657a6.526 6.526 0 1 0-7.963 0A12.005 12.005 0 0 0 89 473.987 1.014 1.014 0 0 0 90.016 475h22.039a1.013 1.013 0 0 0 1.015-1.013 12.005 12.005 0 0 0-8.053-11.33zm-8.476-5.151a4.494 4.494 0 1 1 4.494 4.481 4.493 4.493 0 0 1-4.494-4.481zm-5.459 15.469a10.008 10.008 0 0 1 19.906 0H91.083z" transform="translate(-89 -451)"></path>
		</symbol>
	
		<symbol id="ico-transaction" viewBox="0 0 21.81 20.81">
			<defs><style>.cls-1{fill:#fb4537;stroke:#fff;stroke-width:.81px;fill-rule:evenodd}</style></defs><path id="Forma_1" data-name="Forma 1" class="cls-1" d="M109.344 527.666H94.25v-2a.666.666 0 0 0-.406-.616.651.651 0 0 0-.715.144l-3.937 4a.675.675 0 0 0 0 .943l3.938 4a.651.651 0 0 0 .715.145.667.667 0 0 0 .406-.616v-2h15.094A.662.662 0 0 0 110 531v-2.667a.661.661 0 0 0-.656-.667zm.464 12.2l-3.937-4a.648.648 0 0 0-.716-.144.668.668 0 0 0-.405.616v2H89.657A.661.661 0 0 0 89 539v2.666a.661.661 0 0 0 .656.667h15.094v2a.668.668 0 0 0 .405.616.648.648 0 0 0 .716-.144l3.937-4a.674.674 0 0 0 0-.943z" transform="translate(-88.595 -524.595)"></path>
		</symbol>
	
		<symbol id="ico-verification" viewBox="0 0 20.938 26.03">
			<defs><style>.cls-1{fill:#fb4537;fill-rule:evenodd}</style></defs><path id="Forma_1" data-name="Forma 1" class="cls-1" d="M110.949 1031.68c-.013-.71-.025-1.37-.025-2.01a.887.887 0 0 0-.873-.91 11.74 11.74 0 0 1-8.943-3.53.853.853 0 0 0-1.217 0 11.739 11.739 0 0 1-8.942 3.53.887.887 0 0 0-.873.91c0 .64-.012 1.3-.025 2.01-.12 6.53-.283 15.49 10.162 19.27a.84.84 0 0 0 .571 0c10.448-3.78 10.284-12.74 10.165-19.27zm-10.449 17.44c-8.959-3.39-8.823-10.84-8.7-17.41.007-.39.014-.78.019-1.15a13.155 13.155 0 0 0 8.684-3.44 13.106 13.106 0 0 0 8.684 3.44c0 .37.012.76.02 1.15.117 6.57.252 14.02-8.707 17.41zm3-14.3l-4.212 4.4-1.8-1.88a.857.857 0 0 0-1.234 0 .942.942 0 0 0 0 1.29l2.415 2.52a.84.84 0 0 0 1.234 0l4.829-5.04a.941.941 0 0 0 0-1.29.856.856 0 0 0-1.227 0z" transform="translate(-90.031 -1024.97)"></path>
		</symbol>
	
		<symbol id="ico-wallet" viewBox="0 0 25.124 21.124">
			<defs><style>.cls-1,.cls-2{fill:#fb4537}.cls-1{stroke:#fb4537;stroke-width:.15px;fill-rule:evenodd}</style></defs><path id="Forma_1" data-name="Forma 1" class="cls-1" d="M111.81 890.177v-3.345a3.741 3.741 0 0 0-3.721-3.832H91.72a3.741 3.741 0 0 0-3.72 3.832v13.336A3.741 3.741 0 0 0 91.72 904h16.369a3.741 3.741 0 0 0 3.721-3.832v-3.191A2.685 2.685 0 0 0 113 894.8v-2.45a2.682 2.682 0 0 0-1.19-2.173zm-.3 4.626a1.033 1.033 0 0 1-1.042 1.073h-7.589a1.033 1.033 0 0 1-1.042-1.073v-2.453a1.033 1.033 0 0 1 1.042-1.073h7.589a1.033 1.033 0 0 1 1.042 1.073v2.45zm-3.423 7.664H91.72a2.324 2.324 0 0 1-2.232-2.3v-13.335a2.324 2.324 0 0 1 2.232-2.3h16.369a2.323 2.323 0 0 1 2.232 2.3v2.912h-7.44a2.649 2.649 0 0 0-2.53 2.606v2.45a2.648 2.648 0 0 0 2.53 2.606h7.44v2.759a2.323 2.323 0 0 1-2.232 2.302zm-5.208-8.89" transform="translate(-87.938 -882.938)"></path><circle class="cls-2" cx="16.563" cy="10.562" r="1.5"></circle>
		</symbol>

	 	<symbol id="ico-calc" viewBox="0 0 448 512">
			<path d="M400 0H48C22.4 0 0 22.4 0 48v416c0 25.6 22.4 48 48 48h352c25.6 0 48-22.4 48-48V48c0-25.6-22.4-48-48-48zM128 435.2c0 6.4-6.4 12.8-12.8 12.8H76.8c-6.4 0-12.8-6.4-12.8-12.8v-38.4c0-6.4 6.4-12.8 12.8-12.8h38.4c6.4 0 12.8 6.4 12.8 12.8v38.4zm0-128c0 6.4-6.4 12.8-12.8 12.8H76.8c-6.4 0-12.8-6.4-12.8-12.8v-38.4c0-6.4 6.4-12.8 12.8-12.8h38.4c6.4 0 12.8 6.4 12.8 12.8v38.4zm128 128c0 6.4-6.4 12.8-12.8 12.8h-38.4c-6.4 0-12.8-6.4-12.8-12.8v-38.4c0-6.4 6.4-12.8 12.8-12.8h38.4c6.4 0 12.8 6.4 12.8 12.8v38.4zm0-128c0 6.4-6.4 12.8-12.8 12.8h-38.4c-6.4 0-12.8-6.4-12.8-12.8v-38.4c0-6.4 6.4-12.8 12.8-12.8h38.4c6.4 0 12.8 6.4 12.8 12.8v38.4zm128 128c0 6.4-6.4 12.8-12.8 12.8h-38.4c-6.4 0-12.8-6.4-12.8-12.8V268.8c0-6.4 6.4-12.8 12.8-12.8h38.4c6.4 0 12.8 6.4 12.8 12.8v166.4zm0-256c0 6.4-6.4 12.8-12.8 12.8H76.8c-6.4 0-12.8-6.4-12.8-12.8V76.8C64 70.4 70.4 64 76.8 64h294.4c6.4 0 12.8 6.4 12.8 12.8v102.4z"></path>
		</symbol>

		<symbol id="ico-medal" viewBox="0 0 448 512">
			<path d="M223.75 130.75L154.62 15.54A31.997 31.997 0 0 0 127.18 0H16.03C3.08 0-4.5 14.57 2.92 25.18l111.27 158.96c29.72-27.77 67.52-46.83 109.56-53.39zM495.97 0H384.82c-11.24 0-21.66 5.9-27.44 15.54l-69.13 115.21c42.04 6.56 79.84 25.62 109.56 53.38L509.08 25.18C516.5 14.57 508.92 0 495.97 0zM256 160c-97.2 0-176 78.8-176 176s78.8 176 176 176 176-78.8 176-176-78.8-176-176-176zm92.52 157.26l-37.93 36.96 8.97 52.22c1.6 9.36-8.26 16.51-16.65 12.09L256 393.88l-46.9 24.65c-8.4 4.45-18.25-2.74-16.65-12.09l8.97-52.22-37.93-36.96c-6.82-6.64-3.05-18.23 6.35-19.59l52.43-7.64 23.43-47.52c2.11-4.28 6.19-6.39 10.28-6.39 4.11 0 8.22 2.14 10.33 6.39l23.43 47.52 52.43 7.64c9.4 1.36 13.17 12.95 6.35 19.59z"></path>
		</symbol>

		<symbol id="ico-money-bill-alt" viewBox="0 0 580 510">
			<path d="M320 144c-53.02 0-96 50.14-96 112 0 61.85 42.98 112 96 112 53 0 96-50.13 96-112 0-61.86-42.98-112-96-112zm40 168c0 4.42-3.58 8-8 8h-64c-4.42 0-8-3.58-8-8v-16c0-4.42 3.58-8 8-8h16v-55.44l-.47.31a7.992 7.992 0 0 1-11.09-2.22l-8.88-13.31a7.992 7.992 0 0 1 2.22-11.09l15.33-10.22a23.99 23.99 0 0 1 13.31-4.03H328c4.42 0 8 3.58 8 8v88h16c4.42 0 8 3.58 8 8v16zM608 64H32C14.33 64 0 78.33 0 96v320c0 17.67 14.33 32 32 32h576c17.67 0 32-14.33 32-32V96c0-17.67-14.33-32-32-32zm-16 272c-35.35 0-64 28.65-64 64H112c0-35.35-28.65-64-64-64V176c35.35 0 64-28.65 64-64h416c0 35.35 28.65 64 64 64v160z"></path>
		</symbol>
</svg>
