<svg xmlns="http://www.w3.org/2000/svg" xmlns:xlink="http://www.w3.org/1999/xlink" width="0" height="0" style="position:absolute">
	
		<symbol id="ico-_arrow" viewBox="0 0 63 38.031">
			<path d="M3.48 0h55.968c2.6 0 4.538 1.844 3.016 3.665a51500.83 51500.83 0 0 1-27.928 33.13 4.387 4.387 0 0 1-6.063 0C26.93 35 2.2 5.711.482 3.589-.778 2.036.613 0 3.48 0z"></path>
		</symbol>
	
		<symbol id="ico-_user" viewBox="0 0 39.094 46.344">
			<defs><style>.cls-1{fill:#1e5f8e;fill-rule:evenodd}</style></defs><path class="cls-1" d="M11.28 19.633a9.8 9.8 0 0 0 6.026 7.466 6.6 6.6 0 0 0 4.424-.01 9.984 9.984 0 0 0 6.045-7.456c.461-.038 1.065-.681 1.718-2.994.892-3.157-.058-3.627-.864-3.55a8.379 8.379 0 0 0 .345-1.3c1.363-8.185-2.668-8.464-2.668-8.464a6.216 6.216 0 0 0-2.427-2.25 8.2 8.2 0 0 0-4.98-1.056 7.436 7.436 0 0 0-1.986.374 8.726 8.726 0 0 0-2.188 1.123 11.469 11.469 0 0 0-2.246 1.859 9.113 9.113 0 0 0-2.428 4.261 9.25 9.25 0 0 0 .019 4.165 8.087 8.087 0 0 0 .345 1.3c-.806-.077-1.756.394-.864 3.551.664 2.3 1.268 2.943 1.729 2.981zm24.075 10.742a30.435 30.435 0 0 1-8.886-4.05l-3.108 9.833-.585 1.852-.01-.029-.509 1.574-1.641-4.654c4.031-5.626-.815-5.566-1.085-5.557-.269-.01-5.114-.067-1.084 5.556l-1.64 4.655-.509-1.574-.009.029-.585-1.852-3.119-9.836a30.433 30.433 0 0 1-8.886 4.05C.043 31.303-.13 35.525.014 37.607c0 0 .211 2.831.422 4.078 0 0 7.139 4.635 19.1 4.645s19.095-4.645 19.095-4.645c.211-1.248.422-4.078.422-4.078.131-2.083-.042-6.305-3.698-7.232z"></path>
		</symbol>
	
		<symbol id="ico-arrow" viewBox="0 0 35 19.969">
			<path d="M19.226 19.251L34.274 4.179A2.452 2.452 0 0 0 30.809.708L17.493 14.044 4.178.708A2.453 2.453 0 0 0 .712 4.179l15.049 15.072a2.45 2.45 0 0 0 3.465 0z"></path>
		</symbol>
	
		<symbol id="ico-arrow-long" viewBox="0 0 30 21.03">
			<path d="M20.2.3a1.061 1.061 0 1 0-1.512 1.49l7.666 7.65h-25.3a1.065 1.065 0 0 0 0 2.13h25.3l-7.666 7.64a1.07 1.07 0 0 0 0 1.5 1.047 1.047 0 0 0 1.512 0l9.481-9.46a1.033 1.033 0 0 0 0-1.49z"></path>
		</symbol>
	
		<symbol id="ico-clock" viewBox="0 0 122 122">
			<path d="M61 .5A60.5 60.5 0 1 0 121.5 61 60.57 60.57 0 0 0 61 .5zm0 108.132A47.629 47.629 0 1 1 108.629 61 47.685 47.685 0 0 1 61 108.63zm31.531-49.5H65.342V26.438a4.982 4.982 0 0 0-9.963 0v37.676a4.982 4.982 0 0 0 4.982 4.982h32.17a4.983 4.983 0 0 0 0-9.965z"></path>
		</symbol>
	
		<symbol id="ico-close" viewBox="0 0 15.438 15.438">
			<defs><style>.cls-1{fill:#fff;fill-rule:evenodd}</style></defs><path id="Rectangle_1_copy" data-name="Rectangle 1 copy" class="cls-1" d="M283.49 81.575l13.435 13.435a1 1 0 0 1-1.415 1.414L282.075 82.99a1 1 0 0 1 1.415-1.415z" transform="translate(-281.781 -81.281)"></path><path id="Rectangle_1_copy_2" data-name="Rectangle 1 copy 2" class="cls-1" d="M282.075 95.01l13.435-13.435a1 1 0 0 1 1.415 1.414L283.49 96.425a1 1 0 0 1-1.415-1.415z" transform="translate(-281.781 -81.281)"></path>
		</symbol>
	
		<symbol id="ico-dashed-square" viewBox="0 0 101 101">
			<rect x=".5" y=".5" width="100" height="100" rx="5" ry="5" fill="none" stroke="#1e1146" stroke-dasharray="4 4"></rect>
		</symbol>
	
		<symbol id="ico-doc-pdf" viewBox="0 0 42.29 44.29">
			<defs><style>.cls-1{fill:#1e1146;stroke:#fff;stroke-width:.29px;fill-rule:evenodd}</style></defs><path class="cls-1" d="M41.906 12.055L30.55.405a.844.844 0 0 0-.617-.26H13.009a3.416 3.416 0 0 0-3.436 3.39v11.84H2.715a2.558 2.558 0 0 0-2.57 2.54v12.69a2.558 2.558 0 0 0 2.57 2.54h6.858v7.62a3.414 3.414 0 0 0 3.436 3.38h25.7a3.414 3.414 0 0 0 3.435-3.38v-28.13a.829.829 0 0 0-.238-.58zm-11.761-9.63l9.322 9.57h-9.322v-9.57zm-27.43 29.03a.853.853 0 0 1-.856-.85v-12.69a.853.853 0 0 1 .856-.85h23.146a.852.852 0 0 1 .855.85v12.69a.852.852 0 0 1-.855.85H2.715zm37.716 9.31a1.709 1.709 0 0 1-1.721 1.69h-25.7a1.709 1.709 0 0 1-1.721-1.69v-7.62h14.573a2.558 2.558 0 0 0 2.57-2.54v-12.69a2.558 2.558 0 0 0-2.57-2.54H11.288V3.535a1.711 1.711 0 0 1 1.721-1.7h15.422v11a.853.853 0 0 0 .857.85h11.143v27.08zm-30.039-19.14a1.925 1.925 0 0 0-1.06-.72 8.937 8.937 0 0 0-1.767-.11H5.179v7.27h1.487v-2.74h.969a8.616 8.616 0 0 0 1.542-.1 2.141 2.141 0 0 0 .771-.35 1.98 1.98 0 0 0 .625-.71 2.372 2.372 0 0 0 .246-1.13 2.2 2.2 0 0 0-.427-1.41zm-1.273 2a.936.936 0 0 1-.465.35 3.7 3.7 0 0 1-1.175.12h-.813v-2.07h.718a7.666 7.666 0 0 1 1.069.05 1.033 1.033 0 0 1 .6.33.927.927 0 0 1 .236.65.991.991 0 0 1-.17.57zm8.847-.84a3.212 3.212 0 0 0-.7-1.18 2.514 2.514 0 0 0-1.11-.67 5.481 5.481 0 0 0-1.4-.14h-2.718v7.27h2.8a4.66 4.66 0 0 0 1.316-.15 2.607 2.607 0 0 0 1.044-.58 3.257 3.257 0 0 0 .789-1.28 4.753 4.753 0 0 0 .226-1.55 5.291 5.291 0 0 0-.247-1.72zm-1.447 2.99a1.6 1.6 0 0 1-.389.7 1.4 1.4 0 0 1-.6.3 3.87 3.87 0 0 1-.9.07h-1.11v-4.82h.668a7.472 7.472 0 0 1 1.22.07 1.427 1.427 0 0 1 .689.35 1.6 1.6 0 0 1 .421.7 4.246 4.246 0 0 1 .151 1.29 4.712 4.712 0 0 1-.15 1.34zm8.006-3.75v-1.23h-5.047v7.27h1.486v-3.09h3.074v-1.23h-3.074v-1.72h3.561z"></path>
		</symbol>
	
		<symbol id="ico-link" viewBox="0 0 17 17">
			<path data-name="Forma 1" class="cls-1" d="M15.678 7.7l-3.191 3.19a4.509 4.509 0 0 1-6.38 0 4.432 4.432 0 0 1-.685-.91L6.9 8.5a1.117 1.117 0 0 1 .241-.159 2.207 2.207 0 0 0 .557.957 2.258 2.258 0 0 0 3.19 0l3.19-3.19a2.256 2.256 0 0 0-3.19-3.191L9.753 4.053a5.656 5.656 0 0 0-2.877-.314l2.417-2.417A4.512 4.512 0 0 1 15.678 7.7zm-8.436 5.245l-1.135 1.136a2.256 2.256 0 0 1-3.191-3.191L6.107 7.7a2.257 2.257 0 0 1 3.19 0 2.23 2.23 0 0 1 .557.956 1.089 1.089 0 0 0 .241-.158l1.482-1.483a4.4 4.4 0 0 0-.685-.91 4.512 4.512 0 0 0-6.381 0l-3.19 3.19a4.512 4.512 0 0 0 6.381 6.381l2.418-2.417a5.659 5.659 0 0 1-2.878-.312z"></path>
		</symbol>
	
		<symbol id="ico-lock" viewBox="0 0 15.124 20.125">
			<path d="M7.562 10.87a2.021 2.021 0 0 0-2.05 1.985 1.963 1.963 0 0 0 .64 1.441v1.792a1.411 1.411 0 0 0 2.82 0v-1.793a1.963 1.963 0 0 0 .64-1.441 2.021 2.021 0 0 0-2.05-1.984zm.725 2.73a.935.935 0 0 0-.308.685v1.8a.417.417 0 0 1-.834 0v-1.8a.934.934 0 0 0-.308-.685 1 1 0 0 1-.332-.745 1.058 1.058 0 0 1 2.114 0 1 1 0 0 1-.332.745zm5.286-5.339h-9.54v-3.82a3.531 3.531 0 0 1 7.058 0V6.17a.5.5 0 0 0 .993 0V4.44a4.524 4.524 0 0 0-9.044 0v3.822H1.551a1.468 1.468 0 0 0-1.489 1.44v8.918a1.468 1.468 0 0 0 1.489 1.442h12.022a1.468 1.468 0 0 0 1.489-1.442V9.702a1.468 1.468 0 0 0-1.489-1.44zm.5 10.36a.489.489 0 0 1-.5.481H1.551a.489.489 0 0 1-.5-.481V9.702a.49.49 0 0 1 .5-.481h12.022a.489.489 0 0 1 .5.481v8.918z"></path>
		</symbol>
	
		<symbol id="ico-login" viewBox="0 0 22 23">
			<path d="M.7 12.015h14.05l-3.62 3.6a.72.72 0 0 0 .49 1.221.712.712 0 0 0 .5-.193l4.51-4.394a.663.663 0 0 0 0-.968l-.21-.208a.72.72 0 0 0-.18-.176l-4.12-4.014a.71.71 0 0 0-.99 0 .593.593 0 0 0 0 .906l2.99 2.856H.7a.687.687 0 1 0 0 1.37zM22 20.35V3.275A3.292 3.292 0 0 0 18.92 0H9.77a3.431 3.431 0 0 0-3.26 3.275V7.34a.705.705 0 0 0 1.41 0V3.275a2.054 2.054 0 0 1 1.85-1.9h9.15a1.9 1.9 0 0 1 1.67 1.9V20.35c0 .914-.77 1.277-1.67 1.277H9.77c-.83 0-1.85-.3-1.85-1.277v-4.085a.705.705 0 0 0-1.41 0v4.085c0 1.611 1.47 2.65 3.26 2.65h9.15c1.83 0 3.08-1.091 3.08-2.65z"></path>
		</symbol>
	
		<symbol id="ico-map-point" viewBox="0 0 15 21">
			<path d="M7.5 0A7.557 7.557 0 0 0 0 7.6c0 5.2 6.712 12.828 7 13.15a.669.669 0 0 0 1 0c.286-.322 7-7.953 7-13.15A7.557 7.557 0 0 0 7.5 0zm0 11.417a3.822 3.822 0 1 1 3.773-3.821A3.8 3.8 0 0 1 7.5 11.417z"></path>
		</symbol>
	
		<symbol id="ico-menu" viewBox="0 0 21 18">
			<rect width="21" height="2" rx="1" ry="1"></rect><rect y="8" width="21" height="2" rx="1" ry="1"></rect><rect y="16" width="21" height="2" rx="1" ry="1"></rect>
		</symbol>
	
		<symbol id="ico-phone" viewBox="0 0 16 16">
			<path d="M15.992 12.627a.774.774 0 0 1-.237.678L13.5 15.542a1.264 1.264 0 0 1-.4.288 1.65 1.65 0 0 1-.483.152c-.011 0-.045 0-.1.008s-.127.01-.217.01a7.8 7.8 0 0 1-1.042-.11 7.9 7.9 0 0 1-1.762-.542 14.81 14.81 0 0 1-2.363-1.3 17.632 17.632 0 0 1-2.812-2.373 18.569 18.569 0 0 1-1.965-2.237A15.939 15.939 0 0 1 1.1 7.466a10.636 10.636 0 0 1-.711-1.644 8.718 8.718 0 0 1-.322-1.271A4.2 4.2 0 0 1 0 3.712q.017-.305.017-.339A1.653 1.653 0 0 1 .17 2.89a1.27 1.27 0 0 1 .288-.4L2.711.236A.746.746 0 0 1 3.255 0a.631.631 0 0 1 .39.127 1.174 1.174 0 0 1 .288.314l1.812 3.441a.825.825 0 0 1 .085.593 1.056 1.056 0 0 1-.288.542l-.83.831a.285.285 0 0 0-.059.11.417.417 0 0 0-.025.127 3.063 3.063 0 0 0 .3.814 7.446 7.446 0 0 0 .627.991 11.02 11.02 0 0 0 1.2 1.348A11.218 11.218 0 0 0 8.11 10.45a7.815 7.815 0 0 0 .991.636 2.624 2.624 0 0 0 .61.246l.212.042a.4.4 0 0 0 .11-.025.281.281 0 0 0 .11-.059l.966-.983a1.035 1.035 0 0 1 .711-.271.89.89 0 0 1 .458.1h.022l3.269 1.932a.852.852 0 0 1 .423.559z"></path>
		</symbol>
	
		<symbol id="ico-tick" viewBox="0 0 17.53 11.9">
			<path d="M7.61 11.69l9.71-10.48A.746.746 0 0 0 17.3.18a.68.68 0 0 0-.99.02l-9.23 9.95-5.91-5.89a.692.692 0 0 0-1 .02.759.759 0 0 0 .03 1.04l6.41 6.39a.692.692 0 0 0 1-.02z"></path>
		</symbol>
	
		<symbol id="ico-user" viewBox="0 0 16 20">
			<defs><style>.cls-1{fill:#fb4537;fill-rule:evenodd}</style></defs><path class="cls-1" d="M8 0a4.643 4.643 0 1 1-4.414 4.638A4.53 4.53 0 0 1 8 0zm0 11.594A8.21 8.21 0 0 0 0 20h16a8.21 8.21 0 0 0-8-8.406z"></path>
		</symbol>
	
</svg>
