<svg xmlns="http://www.w3.org/2000/svg" viewBox="0 0 1365.53 514.12">
  <g style="opacity: 0.22;">
    <path style="fill: #34265f; fill-rule: evenodd;" d="M-0.263,3225.02c114.363-44.66,345.492-78.36,778.814,42.57,197.79,55.19,402.369,35.95,586.8-13.91,0-98.43.18-145.15,0.18-213.29-201.17,89.22-627.195,143.68-1088.293-102.86a1254.518,1254.518,0,0,0-276.7-108C0.536,2990.63-.263,3179.18-0.263,3225.02Z" transform="translate(0 -2814.88)"/>
    <path style="opacity: 0.23;" d="M1365.28,3110.65C1210.14,3201.05,591,3261.09,38.237,2965.53q-18.9-10.11-37.863-19.43c0,113.25.414,194.81,0.414,266.24,129.547-2.28,304.644,17.91,538.763,83.25,288.806,80.59,592.079,2.48,826-97.93C1365.55,3171.99,1365.28,3143.08,1365.28,3110.65Z" transform="translate(0 -2814.88)"/>
    <path style="opacity: 0.23;" d="M0.142,2814.88c533.164,10.05,1018.018,451.81,1018.018,451.81s-372.891-28.98-363.607-134.78c5.878-66.98-277.219-169.82-654.514-164.22C0.039,2913.82.142,2859.17,0.142,2814.88Z" transform="translate(0 -2814.88)"/>
  </g>
</svg>
