<svg xmlns="http://www.w3.org/2000/svg" style="position:absolute; width: 0; height: 0"><symbol viewBox="0 0 34.9 26.5" id="icon-accounts"><path d="M5.8 13.9c-2.2 0-4.1-1.9-4.1-4s1.9-4.1 4.1-4.1 4 1.9 4 4.1-1.9 4-4 4zm0-5.6c-.9 0-1.6.7-1.6 1.6 0 .8.7 1.5 1.6 1.5.8 0 1.5-.7 1.5-1.5 0-.9-.7-1.6-1.5-1.6zM8.4 24.9H2.8c-1.6 0-2.8-1.2-2.8-2.8v-2.8c0-2.9 2.3-5.1 5.1-5.1h3.5v2.5H5.1c-1.5 0-2.6 1.1-2.6 2.6v2.8c0 .3.2.3.2.3h5.7v2.5zM17.8 11.3c-3.1 0-5.6-2.5-5.6-5.6S14.6 0 17.8 0c3.1 0 5.6 2.5 5.6 5.6s-2.5 5.7-5.6 5.7zm0-8.8c-1.7 0-3.1 1.4-3.1 3.1s1.4 3.1 3.1 3.1 3.1-1.4 3.1-3.1-1.4-3.1-3.1-3.1z"/><path d="M24.2 26.5H10.9c-2.1 0-3.8-1.6-3.8-3.8v-4.3c0-4.1 3.4-7.4 7.6-7.4h5.7c4.2 0 7.7 3.3 7.7 7.4v4.3c-.2 2.2-1.8 3.8-3.9 3.8zm-9.4-13c-2.8 0-5.1 2.3-5.1 4.9v4.3c0 .7.5 1.2 1.2 1.2h13.4c.7 0 1.3-.6 1.4-1.3v-4.2c0-2.7-2.4-4.9-5.2-4.9h-5.7z"/><path d="M29.1 13.9c-2.2 0-4-1.9-4-4s1.9-4.1 4-4.1 4 1.9 4 4.1-1.8 4-4 4zm0-5.6c-.8 0-1.5.7-1.5 1.6 0 .8.7 1.5 1.5 1.5s1.5-.7 1.5-1.5c.1-.9-.6-1.6-1.5-1.6zM32.1 24.9h-5.7v-2.5h5.7c.1 0 .2 0 .2-.3v-2.8c0-1.5-1.1-2.6-2.7-2.6h-3.5v-2.5h3.5c2.9 0 5.2 2.3 5.2 5.1v2.8c.1 1.6-1.1 2.8-2.7 2.8z"/></symbol><symbol viewBox="0 0 18 18.1" id="icon-arrow-line"><path d="M1 8.1h16c.6 0 1 .4 1 1s-.4 1-1 1H1c-.6 0-1-.4-1-1s.4-1 1-1z"/><path d="M17 8.1c.3 0 .5.1.7.3.4.4.4 1 0 1.4l-8.1 8.1c-.4.4-1 .4-1.4 0s-.4-1 0-1.4l8.1-8.1c.2-.2.4-.3.7-.3z"/><path d="M8.9 0c.3 0 .5.1.7.3l8.1 8.1c.4.4.4 1 0 1.4s-1 .4-1.4 0L8.2 1.7c-.4-.4-.4-1 0-1.4.2-.2.5-.3.7-.3z"/></symbol><symbol viewBox="0 0 131 131" id="icon-arrow"><path d="M65.5 1.5c-35.3 0-64 28.7-64 64s28.7 64 64 64 64-28.7 64-64-28.7-64-64-64zm0 122c-32 0-58-26-58-58s26-58 58-58 58 26 58 58-26 58-58 58z"/><path d="M65.5 131C29.4 131 0 101.6 0 65.5S29.4 0 65.5 0 131 29.4 131 65.5 101.6 131 65.5 131zm0-128C31 3 3 31 3 65.5S31 128 65.5 128 128 100 128 65.5 100 3 65.5 3zm0 122C32.7 125 6 98.3 6 65.5S32.7 6 65.5 6 125 32.7 125 65.5 98.3 125 65.5 125zm0-116C34.3 9 9 34.3 9 65.5S34.3 122 65.5 122 122 96.7 122 65.5 96.7 9 65.5 9z"/><g><path d="M59.6 37.4c-1.2-1.1-3.1-1.1-4.2.1-1.1 1.2-1.1 2.9 0 4.1l23.9 23.9-23.9 23.9c-1.2 1.1-1.3 3-.1 4.2s3 1.3 4.2.1c.1 0 .1-.1.1-.1l26-26c1.2-1.2 1.2-3.1 0-4.2l-26-26z"/><path d="M57.5 96.1c-1.2 0-2.3-.5-3.2-1.4-.9-.9-1.3-2-1.3-3.2 0-1.2.5-2.4 1.4-3.2l22.8-22.8-22.9-22.8c-1.7-1.8-1.7-4.4 0-6.2 1.6-1.8 4.5-1.9 6.3-.2l26 26c.8.8 1.3 1.8 1.3 3s-.5 2.4-1.3 3.3L60.8 94.5c-.1.2-.3.3-.5.4-.8.8-1.8 1.2-2.8 1.2zm0-58c-.4 0-.8.1-1 .4-.6.6-.6 1.4 0 2.1l24.9 24.9-25 25c-.3.3-.5.7-.5 1.1 0 .4.1.7.4 1 .5.5 1.4.8 2.1.1l26.1-26.1c.3-.3.5-.7.5-1.1 0-.4-.2-.7-.4-.9l-26-26c-.3-.4-.7-.5-1.1-.5z"/></g></symbol><symbol viewBox="0 0 188.7 306" id="icon-arrow2"><path d="M0 267.8L117.3 153 0 35.7 35.7 0l153 153-153 153z"/></symbol><symbol viewBox="0 0 26 24" id="icon-chat-promo"><path d="M1 24c-.1 0-.3 0-.4-.1-.4-.1-.6-.5-.6-.9V4.8C.1 2.1 2.3-.1 5 0h16c2.7-.1 4.9 2.1 5 4.8v9.4c-.1 2.7-2.3 4.8-5 4.8H6.4l-4.7 4.7c-.2.2-.4.3-.7.3zM5 2c-1.6-.1-2.9 1.2-3 2.8v15.8l3.3-3.3c.2-.2.4-.3.7-.3h15c1.6.1 2.9-1.2 3-2.8V4.8C23.9 3.2 22.6 2 21 2H5z"/><circle cx="13" cy="9.5" r="1.5"/><circle cx="18.5" cy="9.5" r="1.5"/><circle cx="7.5" cy="9.5" r="1.5"/></symbol><symbol viewBox="0 0 336.4 224.1" id="icon-chat"><path d="M158.2 0h-126C14.4 0 0 14.5 0 32.2v85.5c0 16.9 13.1 30.9 29.8 32.2v23.5c0 3 1.8 5.8 4.6 6.9.9.4 1.9.6 2.9.6 2 0 3.9-.8 5.3-2.2L71.3 150h74.5v10.9c0 17.8 14.5 32.3 32.3 32.3h87l28.7 28.7c1.4 1.4 3.4 2.2 5.3 2.2 1 0 1.9-.2 2.9-.6 2.8-1.2 4.6-3.9 4.6-6.9V193c16.6-1.3 29.8-15.2 29.8-32.2V75.3c0-17.8-14.5-32.3-32.3-32.3H190.5V32.1C190.5 14.4 176 0 158.2 0zM68.1 135c-2 0-3.9.8-5.3 2.2l-18.1 18.1v-12.8c0-4.1-3.4-7.5-7.5-7.5h-5c-9.5 0-17.2-7.7-17.2-17.2V32.3c0-9.5 7.7-17.2 17.2-17.2h126c9.5 0 17.2 7.7 17.2 17.2v85.5c0 9.5-7.7 17.2-17.2 17.2H68.1zM304 58.1c9.5 0 17.3 7.7 17.3 17.3v85.5c0 9.5-7.7 17.3-17.3 17.3h-5c-4.1 0-7.5 3.4-7.5 7.5v12.8l-18.1-18.1c-1.4-1.4-3.3-2.2-5.3-2.2H178c-9.5 0-17.3-7.7-17.3-17.3v-11c16.6-1.3 29.7-15.2 29.7-32.1V58.2l113.6-.1z"/><path d="M95.4 105.1c-2 0-3.9.8-5.3 2.2-1.4 1.4-2.2 3.3-2.2 5.3s.8 3.9 2.2 5.3 3.3 2.2 5.3 2.2 3.9-.8 5.3-2.2c1.4-1.4 2.2-3.3 2.2-5.3s-.8-3.9-2.2-5.3c-1.4-1.4-3.3-2.2-5.3-2.2zM95.2 29.9c-12.8 0-23.3 10.4-23.3 23.3v.5c0 4.1 3.4 7.5 7.5 7.5s7.5-3.4 7.5-7.5v-.5c0-4.5 3.7-8.3 8.3-8.3s8.3 3.7 8.3 8.3c0 4.4-1.7 8.5-4.8 11.6C91.8 71.7 88 80.9 88 90.7c0 4.1 3.4 7.5 7.5 7.5s7.5-3.4 7.5-7.5c0-5.8 2.2-11.2 6.3-15.3 5.9-5.9 9.2-13.8 9.2-22.2 0-12.9-10.5-23.3-23.3-23.3z"/></symbol><symbol viewBox="0 0 18 13" id="icon-check"><path d="M6 13c-.3 0-.5-.1-.7-.3l-5-5c-.4-.4-.4-1 0-1.4s1-.4 1.4 0L6 10.6 16.3.3c.4-.4 1-.4 1.4 0s.4 1 0 1.4l-11 11c-.2.2-.4.3-.7.3z"/></symbol><symbol viewBox="0 0 126.6 126.9" id="icon-coins"><style><![CDATA[.st0{fill:#010002}]]></style><path class="st0" d="M63.3 88.8C32.9 88.8.5 79.8.5 63.1s32.4-25.6 62.8-25.6c30.5 0 62.8 9 62.8 25.6S93.8 88.8 63.3 88.8zm0-43.7c-34.2 0-55.2 10.5-55.2 18s21 18 55.2 18 55.2-10.5 55.2-18-21-18-55.2-18z"/><path d="M63.3 89.3C32.6 89.3 0 80.1 0 63.1S32.6 37 63.3 37c30.7 0 63.3 9.1 63.3 26.1S94 89.3 63.3 89.3zm0-51.3C33.1 38 1 46.8 1 63.1c0 16.4 32.1 25.2 62.3 25.2 30.2 0 62.3-8.8 62.3-25.2 0-16.3-32.1-25.1-62.3-25.1zm0 43.6c-34.5 0-55.7-10.8-55.7-18.5s21.2-18.5 55.7-18.5S119 55.4 119 63.1 97.8 81.6 63.3 81.6zm0-36C29.9 45.6 8.6 56 8.6 63.1s21.3 17.5 54.7 17.5c33.4 0 54.7-10.4 54.7-17.5S96.7 45.6 63.3 45.6z"/><path class="st0" d="M63.3 107.4c-30.5 0-62.8-9-62.8-25.6V63.1c0-2.1 1.7-3.8 3.8-3.8s3.8 1.7 3.8 3.8v18.6c0 7.5 21 18 55.2 18s55.2-10.5 55.2-18V63.1c0-2.1 1.7-3.8 3.8-3.8 2.1 0 3.8 1.7 3.8 3.8v18.6c.1 16.7-32.3 25.7-62.8 25.7z"/><path d="M63.3 107.9C32.6 107.9 0 98.8 0 81.8V63.1c0-2.4 1.9-4.3 4.3-4.3s4.3 1.9 4.3 4.3v18.6c0 7.1 21.3 17.5 54.7 17.5 33.4 0 54.7-10.4 54.7-17.5V63.1c0-2.4 1.9-4.3 4.3-4.3s4.3 1.9 4.3 4.3v18.6c0 3.8-1.6 7.4-4.8 10.6-9.4 9.5-32.4 15.6-58.5 15.6zm-59-48.1c-1.8 0-3.3 1.5-3.3 3.3v18.7c0 16.3 32.1 25.1 62.3 25.1 25.5 0 48.7-6.1 57.8-15.3 3-3 4.5-6.4 4.5-9.9V63.1c0-1.8-1.5-3.3-3.3-3.3s-3.3 1.5-3.3 3.3v18.6c0 7.7-21.2 18.5-55.7 18.5S7.6 89.4 7.6 81.7V63.1c0-1.8-1.5-3.3-3.3-3.3z"/><g><path class="st0" d="M63.3 126.4c-30.5 0-62.8-9-62.8-25.6V82.1c0-2.1 1.7-3.8 3.8-3.8s3.8 1.7 3.8 3.8v18.6c0 7.5 21 18 55.2 18s55.2-10.5 55.2-18V82.1c0-2.1 1.7-3.8 3.8-3.8 2.1 0 3.8 1.7 3.8 3.8v18.6c.1 16.7-32.3 25.7-62.8 25.7z"/><path d="M63.3 126.9c-30.7 0-63.3-9.1-63.3-26.1V82.1c0-2.4 1.9-4.3 4.3-4.3s4.3 1.9 4.3 4.3v18.6c0 7.1 21.3 17.5 54.7 17.5 33.4 0 54.7-10.4 54.7-17.5V82.1c0-2.4 1.9-4.3 4.3-4.3s4.3 1.9 4.3 4.3v18.6c0 3.8-1.6 7.4-4.8 10.6-9.4 9.5-32.4 15.6-58.5 15.6zm-59-48.1c-1.8 0-3.3 1.5-3.3 3.3v18.7c0 16.3 32.1 25.1 62.3 25.1 25.5 0 48.7-6.1 57.8-15.3 3-3 4.5-6.4 4.5-9.9V82.1c0-1.8-1.5-3.3-3.3-3.3s-3.3 1.5-3.3 3.3v18.6c0 7.7-21.2 18.5-55.7 18.5S7.6 108.4 7.6 100.7V82.1c0-1.8-1.5-3.3-3.3-3.3z"/></g><g><path class="st0" d="M63.3 51.8C32.9 51.8.5 42.8.5 26.1S32.9.5 63.3.5c30.5 0 62.8 9 62.8 25.6S93.8 51.8 63.3 51.8zm0-43.7c-34.2 0-55.2 10.5-55.2 18s21 18 55.2 18 55.2-10.5 55.2-18-21-18-55.2-18z"/><path d="M63.3 52.3C32.6 52.3 0 43.1 0 26.1S32.6 0 63.3 0c30.7 0 63.3 9.1 63.3 26.1S94 52.3 63.3 52.3zm0-51.3C33.1 1 1 9.8 1 26.1c0 16.4 32.1 25.2 62.3 25.2 30.2 0 62.3-8.8 62.3-25.2C125.6 9.8 93.5 1 63.3 1zm0 43.6c-34.5 0-55.7-10.8-55.7-18.5S28.8 7.6 63.3 7.6 119 18.4 119 26.1 97.8 44.6 63.3 44.6zm0-36C29.9 8.6 8.6 19 8.6 26.1s21.3 17.5 54.7 17.5c33.4 0 54.7-10.4 54.7-17.5S96.7 8.6 63.3 8.6z"/><path class="st0" d="M63.3 70.4C32.9 70.4.5 61.4.5 44.7V26.1c0-2.1 1.7-3.8 3.8-3.8s3.8 1.7 3.8 3.8v18.6c0 7.5 21 18 55.2 18s55.2-10.5 55.2-18V26.1c0-2.1 1.7-3.8 3.8-3.8 2.1 0 3.8 1.7 3.8 3.8v18.6c.1 16.7-32.3 25.7-62.8 25.7z"/><path d="M63.3 70.9C32.6 70.9 0 61.7 0 44.7V26.1c0-2.4 1.9-4.3 4.3-4.3s4.3 1.9 4.3 4.3v18.6c0 7.1 21.3 17.5 54.7 17.5 33.4 0 54.7-10.4 54.7-17.5V26.1c0-2.4 1.9-4.3 4.3-4.3s4.3 1.9 4.3 4.3v18.6c0 3.8-1.6 7.4-4.8 10.6-9.4 9.5-32.4 15.6-58.5 15.6zm-59-48.1c-1.8 0-3.3 1.5-3.3 3.3v18.6c0 16.4 32.1 25.2 62.3 25.2 25.5 0 48.7-6.1 57.8-15.3 3-3 4.5-6.4 4.5-9.9V26.1c0-1.8-1.5-3.3-3.3-3.3s-3.3 1.5-3.3 3.3v18.6c0 7.7-21.2 18.5-55.7 18.5S7.6 52.4 7.6 44.7V26.1c0-1.8-1.5-3.3-3.3-3.3z"/><g><path class="st0" d="M63.3 89.4C32.9 89.4.5 80.4.5 63.7V45.1c0-2.1 1.7-3.8 3.8-3.8s3.8 1.7 3.8 3.8v18.6c0 7.5 21 18 55.2 18s55.2-10.5 55.2-18V45.1c0-2.1 1.7-3.8 3.8-3.8 2.1 0 3.8 1.7 3.8 3.8v18.6c.1 16.7-32.3 25.7-62.8 25.7z"/><path d="M63.3 89.9C32.6 89.9 0 80.7 0 63.7V45.1c0-2.4 1.9-4.3 4.3-4.3s4.3 1.9 4.3 4.3v18.6c0 7.1 21.3 17.5 54.7 17.5 33.4 0 54.7-10.4 54.7-17.5V45.1c0-2.4 1.9-4.3 4.3-4.3s4.3 1.9 4.3 4.3v18.6c0 3.8-1.6 7.4-4.8 10.6-9.4 9.5-32.4 15.6-58.5 15.6zm-59-48.1c-1.8 0-3.3 1.5-3.3 3.3v18.6c0 16.4 32.1 25.2 62.3 25.2 25.5 0 48.7-6.1 57.8-15.3 3-3 4.5-6.4 4.5-9.9V45.1c0-1.8-1.5-3.3-3.3-3.3s-3.3 1.5-3.3 3.3v18.6c0 7.7-21.2 18.5-55.7 18.5S7.6 71.4 7.6 63.7V45.1c0-1.8-1.5-3.3-3.3-3.3z"/></g></g></symbol><symbol viewBox="0 0 483.7 483.7" id="icon-copy"><style><![CDATA[.st0{fill-rule:evenodd;clip-rule:evenodd}]]></style><g id="copy-Icon"><path class="st0" d="M483.7 241.8c0-31.3-12.4-61.2-34.5-83.3S397.1 124 365.8 124h-124c-31.3 0-61.2 12.4-83.3 34.5S124 210.6 124 241.8v124c0 31.3 12.4 61.2 34.5 83.3 22.1 22.1 52.1 34.5 83.3 34.5h124c31.3 0 61.2-12.4 83.3-34.5 22.1-22.1 34.5-52.1 34.5-83.3v-124zm-37.2 0v124c0 21.4-8.5 41.9-23.6 57a80.607 80.607 0 0 1-57 23.6h-124c-21.4 0-41.9-8.5-57-23.6a80.607 80.607 0 0 1-23.6-57v-124c0-21.4 8.5-41.9 23.6-57 15.1-15.1 35.6-23.6 57-23.6h124c21.4 0 41.9 8.5 57 23.6 15.1 15.1 23.6 35.7 23.6 57z"/><path class="st0" d="M351.1 73.6C333.6 30.5 291.3 0 241.8 0h-124C86.6 0 56.6 12.4 34.5 34.5S0 86.6 0 117.8v124c0 49.4 30.5 91.8 73.6 109.2 9.5 3.9 20.4-.7 24.2-10.2 3.9-9.5-.7-20.4-10.3-24.2-29.5-12-50.4-40.9-50.4-74.8v-124c0-21.4 8.5-41.9 23.6-57 15.1-15.1 35.6-23.6 57-23.6h124c33.8 0 62.8 20.8 74.8 50.4 3.8 9.5 14.7 14.1 24.2 10.3 9.6-3.9 14.2-14.8 10.4-24.3z"/></g></symbol><symbol viewBox="0 0 311 311.07733" id="icon-cross"><path d="M16.035 311.078c-4.097 0-8.195-1.558-11.308-4.695-6.25-6.25-6.25-16.383 0-22.633L283.789 4.687c6.25-6.25 16.383-6.25 22.633 0s6.25 16.383 0 22.637L27.363 306.383a16.045 16.045 0 0 1-11.328 4.695zm0 0"/><path d="M295.117 311.078a15.879 15.879 0 0 1-11.308-4.695L4.727 27.324c-6.25-6.254-6.25-16.386 0-22.636s16.382-6.25 22.636 0L306.422 283.75c6.25 6.25 6.25 16.383 0 22.633-3.137 3.117-7.23 4.695-11.305 4.695zm0 0"/></symbol><symbol viewBox="0 0 640 512" id="icon-discord"><path d="M524.531 69.836a1.5 1.5 0 0 0-.764-.7A485.065 485.065 0 0 0 404.081 32.03a1.816 1.816 0 0 0-1.923.91 337.461 337.461 0 0 0-14.9 30.6 447.848 447.848 0 0 0-134.426 0 309.541 309.541 0 0 0-15.135-30.6 1.89 1.89 0 0 0-1.924-.91 483.689 483.689 0 0 0-119.688 37.107 1.712 1.712 0 0 0-.788.676C39.068 183.651 18.186 294.69 28.43 404.354a2.016 2.016 0 0 0 .765 1.375 487.666 487.666 0 0 0 146.825 74.189 1.9 1.9 0 0 0 2.063-.676A348.2 348.2 0 0 0 208.12 430.4a1.86 1.86 0 0 0-1.019-2.588 321.173 321.173 0 0 1-45.868-21.853 1.885 1.885 0 0 1-.185-3.126 251.047 251.047 0 0 0 9.109-7.137 1.819 1.819 0 0 1 1.9-.256c96.229 43.917 200.41 43.917 295.5 0a1.812 1.812 0 0 1 1.924.233 234.533 234.533 0 0 0 9.132 7.16 1.884 1.884 0 0 1-.162 3.126 301.407 301.407 0 0 1-45.89 21.83 1.875 1.875 0 0 0-1 2.611 391.055 391.055 0 0 0 30.014 48.815 1.864 1.864 0 0 0 2.063.7A486.048 486.048 0 0 0 610.7 405.729a1.882 1.882 0 0 0 .765-1.352c12.264-126.783-20.532-236.912-86.934-334.541zM222.491 337.58c-28.972 0-52.844-26.587-52.844-59.239s23.409-59.241 52.844-59.241c29.665 0 53.306 26.82 52.843 59.239 0 32.654-23.41 59.241-52.843 59.241zm195.38 0c-28.971 0-52.843-26.587-52.843-59.239s23.409-59.241 52.843-59.241c29.667 0 53.307 26.82 52.844 59.239 0 32.654-23.177 59.241-52.844 59.241z"/></symbol><symbol viewBox="0 0 846.66 846.66" id="icon-doc"><path class="fil0" d="M327.49 579.09H66.72c-11.43 0-20.71-9.28-20.71-20.71V132.34c0-11.44 9.28-20.71 20.71-20.71h215.14c.45-56.66 46.88-102.71 103.55-102.71h43.52c56.67 0 103.1 46.05 103.55 102.71h215.14c11.43 0 20.71 9.27 20.71 20.71v142.85h11.61c11.44 0 20.71 9.27 20.71 20.71v521.13c0 11.44-9.27 20.71-20.71 20.71H348.2c-11.44 0-20.71-9.27-20.71-20.71V579.09zM199.55 153.05v384.62h127.94V295.9c0-11.44 9.27-20.71 20.71-20.71h378.71V153.05H199.55zm-41.42 384.62V153.05h-70.7v384.62h70.7zm273.28-50.36c-27.24 0-27.24-41.43 0-41.43h265.32c27.24 0 27.24 41.43 0 41.43H431.41zm0 179.73c-27.24 0-27.24-41.42 0-41.42h265.32c27.24 0 27.24 41.42 0 41.42H431.41zm0-89.86c-27.24 0-27.24-41.43 0-41.43h265.32c27.24 0 27.24 41.43 0 41.43H431.41zm327.82-260.57H368.91v479.71h390.32V316.61zM323.28 111.63h167.78c-.46-33.79-28.32-61.29-62.13-61.29h-43.52c-33.8 0-61.67 27.5-62.13 61.29z" id="doc-Layer_x0020_1"/></symbol><symbol viewBox="0 0 20.5 23.4" id="icon-file"><path d="M14.2 22.3c.8 0 .8 1.2 0 1.2H1.9c-1 0-1.9-.8-1.9-1.9V4.7c0-1 .8-1.9 1.9-1.9H2V.6c0-.3.3-.6.6-.6h17.3c.3 0 .6.3.6.6V18c0 .3-.3.6-.6.6H18v1.6c0 .8-1.2.8-1.2 0V8.7L13 4H1.9c-.4 0-.7.3-.7.7v16.9c0 .4.3.7.7.7h12.3zM3.2 2.8h10.1c.2 0 .4.1.5.2l4 5c.1.1.1.2.1.4v9h1.4V1.2H3.2v1.6zm.3 13.1c-.8 0-.8-1.2 0-1.2h9.2c.8 0 .8 1.2 0 1.2H3.5zm0 4.6c-.8 0-.8-1.2 0-1.2h9.2c.8 0 .8 1.2 0 1.2H3.5zm0-2.3c-.8 0-.8-1.2 0-1.2h9.2c.8 0 .8 1.2 0 1.2H3.5zm2-12.5h2.7c1.3 0 2.4 1.1 2.4 2.4v2.7c0 1.3-1.1 2.4-2.4 2.4H5.5c-1.3 0-2.4-1.1-2.4-2.4V8.1c0-1.3 1.1-2.4 2.4-2.4zm2.7 1.2H5.5c-.7 0-1.2.5-1.2 1.2v2.7c0 .7.5 1.2 1.2 1.2h2.7c.7 0 1.2-.5 1.2-1.2V8.1c0-.6-.5-1.2-1.2-1.2z"/></symbol><symbol viewBox="0 0 13.7 18" id="icon-fire-long"><path d="M12.4 8.2c-.2-.3-.5-.6-.8-.8-.7-.6-1.4-1-2-1.7C8.2 4.3 7.9 1.8 8.8 0 7.9.2 7 .8 6.3 1.3 3.8 3.4 2.8 7.1 4 10.2c0 .1.1.2.1.3 0 .2-.1.4-.3.5-.2.1-.5 0-.6-.1-.2 0-.2-.1-.3-.1-1.1-1.5-1.2-3.5-.5-5.2C.8 7-.1 9.3 0 11.5c0 .5.1 1 .3 1.5.1.6.4 1.2.7 1.7 1 1.7 2.9 3 4.8 3.2 2.1.3 4.3-.1 6-1.6 1.8-1.7 2.4-4.3 1.5-6.6l-.1-.3c-.2-.4-.5-.8-.8-1.2m-3.1 6.3c-.3.2-.7.5-1.1.6-1.1.4-2.2-.2-2.9-.8 1.2-.3 1.9-1.2 2.1-2.1.2-.8-.1-1.5-.3-2.2 0-.7 0-1.4.3-2.1.1.4.3.8.6 1.1.8 1 1.9 1.4 2.2 2.8 0 .1.1.3.1.4 0 .8-.4 1.8-1 2.3z"/></symbol><symbol viewBox="0 0 14.7 19.2" id="icon-fire"><path d="M7.6 19.3c-.4 0-.9 0-1.3-.1-2.1-.3-4.1-1.6-5.2-3.5-.4-.6-.6-1.2-.8-1.9-.2-.5-.2-1.1-.3-1.6C-.1 9.9.9 7.4 2.6 6l1.7-1.4-.9 2c-.7 1.5-.5 3.3.5 4.6l.1.1s.1.1.1 0c.1-.1 0-.1 0-.2-1.3-3.3-.3-7.2 2.4-9.4C7.4 1 8.3.5 9.2.3l1-.3-.5 1c-.8 1.7-.5 3.9.8 5.1.3.3.7.6 1 .9.3.2.7.5 1 .8l.1.1c.2.2.5.5.7.8l.5.6h-.1c.1.2.3.5.4.7l.1.2c1 2.5.4 5.4-1.6 7.2-1.2 1.2-3 1.9-5 1.9zM2 8.3c-.7 1.1-1 2.5-.9 3.9 0 .5.1.9.2 1.4.1.6.4 1.1.7 1.6 1 1.6 2.7 2.8 4.5 3 1.3.2 3.7.2 5.6-1.5 1.7-1.6 2.2-4 1.4-6l-.1-.2c-.4-.5-.6-.9-.9-1.2l-.6-.7-.1-.1-.1-.1c-.3-.3-.6-.5-.9-.7-.4-.3-.8-.6-1.1-1C8.5 5.5 8 3.5 8.4 1.6c-.4.2-.8.5-1.2.9-2.4 2-3.3 5.4-2.2 8.3 0 .1.1.3.1.5 0 .4-.3.8-.7 1-.4.2-.8.1-1.2-.2 0-.1-.1-.2-.2-.3-.7-1-1.1-2.3-1-3.5zm6 8.2c-1 0-1.9-.5-2.5-1.1l-.6-.6.9-.2c1-.2 1.6-1 1.7-1.7.1-.5 0-.9-.1-1.4-.1-.2-.1-.4-.1-.7-.2-.9-.2-1.6.1-2.3l.4-1.1.5 1.1c.2.4.4.7.5 1 .2.3.5.6.8.8.6.5 1.3 1.1 1.5 2.2 0 .1.1.3.1.5 0 .6-.1 1.2-.4 1.8h.4l-1 .9c-.3.3-.8.6-1.3.7-.3 0-.6.1-.9.1zm-1.1-1.3c.5.3 1.1.4 1.7.2.3-.1.6-.3.8-.4l.1-.1c.5-.4.8-1.2.8-1.9v-.3c-.2-.8-.7-1.2-1.3-1.7l-.9-.9c0 .2 0 .4.1.6 0 .2.1.4.1.6.1.6.3 1.1.1 1.8-.1.7-.6 1.6-1.5 2.1z"/></symbol><symbol viewBox="0 0 131.8 131.8" id="icon-gear"><path d="M66 41c-13.8 0-25 11.2-25 25s11.2 25 25 25 25-11.2 25-25-11.2-25-25-25zm0 44c-10.5 0-19-8.5-19-19s8.5-19 19-19 19 8.5 19 19-8.5 19-19 19z"/><path d="M66 92.9c-14.9 0-27-12.1-27-27s12.1-27 27-27 27 12.1 27 27c-.1 14.9-12.2 27-27 27zm0-50c-12.7 0-23 10.3-23 23C42.9 78.7 53.2 89 66 89s23-10.3 23-23c0-12.8-10.3-23.1-23-23.1zm0 44c-11.6 0-21-9.4-21-21s9.4-21 21-21 21 9.4 21 21c-.1 11.6-9.5 21-21 21zm0-38c-9.4 0-17 7.6-17 17S56.6 83 66 83s17-7.6 17-17c0-9.5-7.6-17.1-17-17.1z"/><g><path d="M123 50h-8.9c-.4 0-.8-.3-.9-.7-.6-1.7-1.2-3.3-2-4.8-.2-.4-.1-.8.2-1.2l6.3-6.3c2.7-2.7 2.7-7.2 0-9.9L105 14.4c-2.7-2.7-7.2-2.7-9.9 0l-6.3 6.3c-.3.3-.8.4-1.2.2-1.6-.8-3.2-1.4-4.8-2-.4-.1-.7-.5-.7-.9V9c0-3.9-3.1-7-7-7H57c-3.9 0-7 3.1-7 7v8.9c0 .4-.3.8-.7.9-1.7.6-3.3 1.2-4.8 2-.4.2-.8.1-1.2-.2L37 14.4c-2.7-2.7-7.2-2.7-9.9 0L14.4 27.1c-2.7 2.7-2.7 7.2 0 9.9l6.3 6.3c.3.3.4.8.2 1.2-.8 1.6-1.4 3.2-2 4.8-.1.4-.5.7-.9.7H9c-3.9 0-7 3.1-7 7v18c0 3.9 3.1 7 7 7h8.9c.4 0 .8.3.9.7.6 1.7 1.2 3.3 2 4.8.2.4.1.8-.2 1.2L14.4 95c-2.7 2.7-2.7 7.2 0 9.9l12.7 12.7c2.7 2.7 7.2 2.7 9.9 0l6.3-6.3c.3-.3.8-.4 1.2-.2 1.6.8 3.2 1.4 4.8 2 .4.1.7.5.7.9v8.9c0 3.9 3.1 7 7 7h18c3.9 0 7-3.1 7-7V114c0-.4.3-.8.7-.9 1.7-.6 3.3-1.2 4.8-2 .4-.2.8-.1 1.2.2l6.3 6.3c2.7 2.7 7.2 2.7 9.9 0l12.7-12.7c2.7-2.7 2.7-7.2 0-9.9l-6.3-6.3c-.3-.3-.4-.8-.2-1.2.8-1.6 1.4-3.2 2-4.8.1-.4.5-.7.9-.7h8.9c3.9 0 7-3.1 7-7V57c.1-3.9-3-7-6.9-7zm1 25c0 .6-.4 1-1 1h-8.9c-3 0-5.6 1.9-6.6 4.7-.5 1.4-1.1 2.9-1.8 4.3-1.3 2.7-.8 5.9 1.3 8l6.3 6.3c.4.4.4 1 0 1.4l-12.7 12.7c-.4.4-1 .4-1.4 0l-6.3-6.3c-2.1-2.1-5.3-2.6-8-1.3-1.4.7-2.8 1.2-4.3 1.8-2.8 1-4.7 3.6-4.7 6.6v8.9c0 .6-.4 1-1 1H57c-.6 0-1-.4-1-1v-8.9c0-3-1.9-5.6-4.7-6.6-1.4-.5-2.9-1.1-4.3-1.8-2.7-1.3-5.9-.8-8 1.3l-6.3 6.3c-.4.4-1 .4-1.4 0l-12.7-12.8c-.4-.4-.4-1 0-1.4l6.3-6.3c2.1-2.1 2.6-5.3 1.4-8-.7-1.4-1.2-2.8-1.8-4.3-1-2.8-3.6-4.7-6.6-4.7H9c-.6 0-1-.4-1-1V57c0-.6.4-1 1-1h8.9c3 0 5.6-1.9 6.6-4.7.5-1.4 1.1-2.9 1.8-4.3 1.3-2.7.8-5.9-1.4-8l-6.3-6.3c-.4-.4-.4-1 0-1.4l12.7-12.7c.4-.4 1-.4 1.4 0l6.3 6.3c2.1 2.1 5.3 2.6 8 1.4 1.4-.7 2.8-1.2 4.3-1.8 2.8-1 4.7-3.6 4.7-6.6V9c0-.6.4-1 1-1h18c.6 0 1 .4 1 1v8.9c0 3 1.9 5.6 4.7 6.6 1.4.5 2.9 1.1 4.3 1.8 2.7 1.3 5.9.8 8-1.4l6.3-6.3c.4-.4 1-.4 1.4 0l12.7 12.7c.4.4.4 1 0 1.4l-6.3 6.3c-2.1 2.1-2.6 5.3-1.3 8 .7 1.4 1.2 2.8 1.8 4.3 1 2.8 3.6 4.7 6.6 4.7h8.9c.6 0 1 .4 1 1l-.1 18z"/><path d="M75 131.8H57c-5 0-9-3.9-9-9v-8.2c-1.2-.5-2.5-1-3.8-1.6l-5.8 5.8c-1.7 1.7-3.9 2.6-6.3 2.6s-4.7-.9-6.3-2.6L13 106.2c-1.7-1.7-2.6-3.9-2.6-6.3s.9-4.7 2.6-6.3l5.7-5.8c-.6-1.3-1.1-2.6-1.6-3.8H9c-4.9 0-9-4-9-9V57c0-4.9 4-9 9-9h8.3c.5-1.3 1-2.5 1.6-3.8L13 38.3c-3.5-3.5-3.5-9.2 0-12.7L25.7 13c3.5-3.5 9.2-3.5 12.7 0l5.8 5.7c1.3-.6 2.6-1.1 3.8-1.6V9c0-4.9 4-9 9-9h18c5 0 9 3.9 9 9v8.3c1.3.5 2.5 1 3.8 1.6l5.8-5.8c3.5-3.5 9.2-3.5 12.7 0L119 25.7c1.7 1.7 2.6 3.9 2.6 6.3s-.9 4.7-2.6 6.3l-5.8 5.8c.6 1.3 1.1 2.6 1.6 3.8h8.2c2.4 0 4.7.9 6.4 2.7 1.7 1.7 2.5 3.9 2.5 6.3v18c0 4.9-4 9-9 9h-8.2c-.5 1.2-1 2.5-1.6 3.8l5.8 5.8c1.7 1.7 2.6 3.9 2.6 6.3s-.9 4.7-2.6 6.3l-12.7 12.7c-3.5 3.5-9.2 3.5-12.7 0l-5.8-5.8c-1.3.6-2.6 1.1-3.8 1.6v8.2c0 5.1-3.9 9-8.9 9zm-25.1-20.6c1.2.4 2 1.5 2 2.8v8.9c0 2.8 2.2 5 5 5h18c2.8 0 5-2.2 5-5V114c0-1.3.9-2.4 2.1-2.8 1.8-.6 3.2-1.2 4.5-1.9 1.1-.5 2.3-.4 3.3.4l.2.2 6.3 6.3c1.9 1.9 5.2 1.9 7.1 0l12.7-12.7c.9-.9 1.5-2.2 1.5-3.6s-.5-2.6-1.5-3.6l-6.3-6.3c-.9-.9-1.1-2.3-.6-3.4.7-1.5 1.3-3 1.9-4.5.4-1.2 1.5-2 2.8-2h8.9c2.8 0 5-2.2 5-5V57c0-1.4-.4-2.6-1.4-3.6-.9-1-2.2-1.5-3.6-1.5H114c-1.3 0-2.4-.9-2.8-2.1-.5-1.5-1.1-3-1.9-4.5-.5-1.1-.4-2.3.4-3.3l.2-.2 6.3-6.3c.9-.9 1.5-2.2 1.5-3.6s-.5-2.6-1.5-3.6l-12.7-12.7c-1.9-1.9-5.2-1.9-7.1 0L90.1 22c-.9.9-2.3 1.1-3.5.6-1.5-.7-3-1.3-4.5-1.9-1.2-.4-2-1.5-2-2.8V9c0-2.8-2.2-5-5-5H57c-2.8 0-5 2.2-5 5v8.9c0 1.3-.9 2.4-2.1 2.8-1.8.6-3.2 1.2-4.5 1.9-1.1.5-2.3.4-3.3-.4l-.2-.2-6.3-6.2c-1.9-1.9-5.2-1.9-7.2 0L15.7 28.4c-1.9 1.9-1.9 5.2 0 7.1l6.3 6.3c.9.9 1.1 2.3.6 3.5-.7 1.5-1.3 3-1.9 4.5-.4 1.2-1.5 2-2.8 2H9c-2.8 0-5 2.2-5 5v18c0 2.8 2.2 5 5 5h8.9c1.3 0 2.4.9 2.8 2.1.5 1.5 1.1 3 1.9 4.5.5 1.1.4 2.3-.4 3.3l-.3.3-6.2 6.3c-.9.9-1.5 2.2-1.5 3.6s.5 2.6 1.5 3.6l12.7 12.7c.9.9 2.2 1.5 3.6 1.5s2.6-.5 3.6-1.5l6.3-6.3c.9-.9 2.3-1.1 3.5-.6 1.4.8 3 1.3 4.5 1.9zm25 14.8H57c-1.7 0-3-1.3-3-3v-8.9c0-2.2-1.3-4-3.4-4.8-1.7-.6-3.2-1.2-4.5-1.9-1.9-.9-4.3-.6-5.7.9l-6.3 6.3c-1.1 1.1-3 1.1-4.2 0l-12.7-12.8c-1.2-1.2-1.2-3 0-4.2l6.3-6.3c1.5-1.5 1.9-3.8 1-5.8-.5-1.1-1-2.2-1.4-3.3l-.4-1c-.8-2.1-2.6-3.5-4.8-3.5H9c-1.7 0-3-1.3-3-3V57c0-1.7 1.3-3 3-3h8.9c2.2 0 4-1.3 4.8-3.4.6-1.7 1.2-3.2 1.9-4.5.9-2 .6-4.2-1-5.7L17.2 34c-1.2-1.2-1.2-3 0-4.2l12.7-12.7c1.2-1.2 3-1.2 4.2 0l6.3 6.3c1.5 1.5 3.8 1.9 5.8 1 1.1-.5 2.2-1 3.3-1.4l1-.4c2.1-.8 3.5-2.6 3.5-4.8V9c0-1.7 1.3-3 3-3h18c1.7 0 3 1.3 3 3v8.9c0 2.2 1.3 4 3.4 4.8 1.7.6 3.2 1.2 4.5 1.9 2 .9 4.2.6 5.7-1l6.3-6.3c1.2-1.2 3-1.2 4.2 0L114.8 30c1.2 1.2 1.2 3 0 4.2l-6.3 6.3c-1.5 1.5-1.9 3.8-.9 5.8.6 1.1 1 2.2 1.5 3.4l.4 1c.8 2.1 2.6 3.5 4.8 3.5h8.9c1.7 0 3 1.3 3 3l-.1 18c0 1.7-1.3 2.9-3 2.9H114c-2.2 0-4 1.3-4.8 3.4-.6 1.7-1.2 3.2-1.9 4.5-.9 1.9-.6 4.3.9 5.7l6.3 6.3c.6.6.9 1.3.9 2.1s-.3 1.5-.9 2.1l-12.7 12.7c-1.1 1.1-3 1.1-4.2 0l-6.3-6.3c-1.5-1.5-3.8-1.9-5.8-.9-1.1.6-2.3 1-3.4 1.5l-1 .4c-2.1.8-3.5 2.6-3.5 4.8v8.9c.2 1.4-1.1 2.7-2.7 2.7zm-17-3.9h16v-8c0-3.8 2.4-7.2 6-8.4l1-.4c1.1-.4 2.1-.8 3.1-1.3 3.5-1.7 7.6-1 10.3 1.7l5.6 5.6 11.3-11.3-5.6-5.6c-2.7-2.7-3.3-6.8-1.7-10.2.6-1.2 1.2-2.6 1.7-4.1 1.3-3.6 4.7-6 8.4-6h8l.1-16.1h-7.9c-3.8 0-7.2-2.4-8.4-6l-.4-1c-.4-1.1-.8-2.1-1.3-3.1-1.7-3.5-1-7.6 1.7-10.3l5.6-5.6L100 20.6l-5.6 5.6c-2.6 2.7-6.7 3.5-10.2 1.8-1.2-.6-2.6-1.2-4.1-1.7-3.6-1.3-6-4.7-6-8.4v-8H57.9v7.9c0 3.8-2.4 7.2-6 8.4l-1 .4c-1.1.4-2.1.8-3.1 1.3-3.5 1.6-7.6.9-10.3-1.8L32 20.6 20.6 32l5.6 5.6c2.7 2.6 3.5 6.7 1.8 10.2-.6 1.2-1.2 2.6-1.7 4.1-1.3 3.6-4.7 6-8.4 6h-8v16h7.9c3.8 0 7.2 2.4 8.4 6l.4 1c.5 1.1.9 2.1 1.4 3.1 1.6 3.5.9 7.6-1.8 10.3l-5.6 5.6L32 111.3l5.6-5.6c2.7-2.7 6.8-3.3 10.2-1.7 1.2.6 2.6 1.2 4.1 1.7 3.6 1.3 6 4.7 6 8.4v8zm-38-22.9z"/></g></symbol><symbol viewBox="0 0 24.9 29.8" id="icon-group"><path d="M12 8.4c-2.3 0-4.2-1.9-4.2-4.2S9.7 0 12 0s4.2 1.9 4.2 4.2-1.8 4.2-4.2 4.2zm0-7c-1.6 0-2.8 1.3-2.8 2.8S10.5 7 12 7s2.8-1.3 2.8-2.8-1.2-2.8-2.8-2.8zM15.6 14.8h-7c-1.6 0-2.8-1.3-2.8-2.8v-1.8c0-.3.2-.5.4-.6l2.6-1c.4-.2.8 0 .9.4.2.4 0 .8-.4.9h-.1l-2.1.7v1.3c0 .8.6 1.4 1.4 1.4h7c.8 0 1.4-.6 1.4-1.4v-1.3l-2.1-.8c-.4-.1-.5-.6-.4-.9.1-.4.6-.5.9-.4l2.6 1c.3.1.4.4.4.6v1.8c.1 1.6-1.2 2.9-2.7 2.9zM9.2 29.8H2.6c-1.5 0-2.6-1.2-2.6-2.6v-1.7c0-.3.2-.5.4-.6l2.4-1c.3-.1.7 0 .9.3.1.3 0 .7-.3.9h-.1l-2 .8v1.2c0 .7.6 1.3 1.3 1.3h6.6c.7 0 1.3-.6 1.3-1.3v-1.2l-2-.8c-.3-.1-.5-.5-.4-.9.1-.3.5-.5.9-.4l2.4 1c.2.1.4.3.4.6v1.7c0 1.5-1.2 2.7-2.6 2.7zM22.3 29.8h-6.6c-1.5 0-2.6-1.2-2.6-2.6v-1.7c0-.3.2-.5.4-.6l2.4-1c.3-.1.7 0 .9.3.1.3 0 .7-.3.9h-.1l-2 .8v1.2c0 .7.6 1.3 1.3 1.3h6.6c.7 0 1.3-.6 1.3-1.3v-1.2l-2-.8c-.3-.1-.5-.5-.4-.9.1-.3.5-.5.9-.4l2.4 1c.2.1.4.3.4.6v1.7c.1 1.5-1.1 2.7-2.6 2.7zM5.9 23.3c-2.1 0-3.7-1.7-3.7-3.7s1.7-3.7 3.7-3.7 3.7 1.7 3.7 3.7-1.7 3.7-3.7 3.7zm0-5.9c-1.2 0-2.2 1-2.2 2.2s1 2.2 2.2 2.2 2.2-1 2.2-2.2-1-2.2-2.2-2.2zM19.1 23.3c-2.1 0-3.7-1.7-3.7-3.7s1.7-3.7 3.7-3.7 3.7 1.7 3.7 3.7-1.7 3.7-3.7 3.7zm0-5.9c-1.2 0-2.2 1-2.2 2.2s1 2.2 2.2 2.2 2.2-1 2.2-2.2-1-2.2-2.2-2.2z"/></symbol><symbol viewBox="0 0 30 30" id="icon-group2"><style><![CDATA[.st0{fill:#101820}]]></style><g id="group2-Layer_20"><path class="st0" d="M15 21c-3.3 0-6-2.7-6-6s2.7-6 6-6 6 2.7 6 6-2.7 6-6 6zm0-10c-2.2 0-4 1.8-4 4s1.8 4 4 4 4-1.8 4-4-1.8-4-4-4z"/><path class="st0" d="M20 30H10c-2.2 0-4-1.8-4-4v-2.5c0-.4.3-.8.6-.9l3.6-1.5c.5-.2 1.1 0 1.3.5s0 1.1-.5 1.3h-.1l-3 1.2V26c0 1.1.9 2 2 2h10c1.1 0 2-.9 2-2v-1.9l-3-1.2c-.5-.2-.8-.8-.6-1.3.2-.5.8-.8 1.3-.6l3.6 1.5c.4.2.6.5.6.9V26c.2 2.2-1.6 4-3.8 4zM8 10c-2.8 0-5-2.2-5-5s2.2-5 5-5 5 2.2 5 5-2.2 5-5 5zm0-8C6.3 2 5 3.3 5 5s1.3 3 3 3 3-1.3 3-3-1.3-3-3-3zM7 18.4H4c-2.2 0-4-1.8-4-4v-1.7c0-.4.2-.8.6-.9l3.2-1.2c.5-.2 1.1 0 1.3.5.2.5 0 1.1-.6 1.3l-2.6 1v1.1c0 1.1.9 2 2 2h3c.6 0 1 .4 1 1s-.3.9-.9.9zM22 10c-2.8 0-5-2.2-5-5s2.2-5 5-5 5 2.2 5 5-2.2 5-5 5zm0-8c-1.7 0-3 1.3-3 3s1.3 3 3 3 3-1.3 3-3-1.3-3-3-3zM26 18.4h-3c-.6 0-1-.4-1-1s.4-1 1-1h3c1.1 0 2-.9 2-2v-1.1l-2.5-1c-.5-.2-.8-.8-.6-1.3.2-.5.8-.8 1.3-.6l3.2 1.2c.4.2.6.5.6.9v1.8c0 2.3-1.8 4.1-4 4.1z"/></g></symbol><symbol viewBox="0 0 457.6 336.5" id="icon-inftx"><style><![CDATA[.st0{stroke-miterlimit:10}.st1{stroke-miterlimit:10.0002}]]></style><path class="st0" d="M50.5 326h12.4v10H50.5zM172.2 204.3h142.7v10H172.2zM150.7 204.3h11.4v10h-11.4zM150.7 256.9h93.4v10h-93.4zM296.5 230.6h18.4v10h-18.4zM150.7 230.6h133v10h-133zM374.1 209.3h10v36.3h-10z"/><path class="st0" d="M384.1 144.2H21.2v172.6h291.2v-10H31.2V154.2h342.9v40.6h10z"/><path class="st0" d="M33.3 85l6.3 29.2 9.8-2.1-4.2-19.4L420 12.5l25.9 120.7-42.1 9V125H273.5l86-18.4-2.1-9.8L225.7 125H73.3l-3.9-17.9 335.3-71.7 8.5 39.7 9.8-2-10.6-49.6L57.6 99.4 63 125H.5v211h36.6v-10H10.5V135h383.3v123.4h-61.9v45.8h10v-35.8h45.6L334.7 326h-259v10h263.4l64.7-70.6v-113l37.8-8-31.5 52.6 8.6 5.1 38.4-64.2L427.7.6z"/><path class="st1" transform="rotate(-12.068 425.006 106.032)" d="M420 87.9h10v36.3h-10z"/><path class="st0" d="M89.7 225.5h-.3v-20.9H110v-10H89.4v-20.2h-10v20.2h-.5c-11.5 0-20.8 9.2-20.8 20.5s9.3 20.5 20.8 20.5h.5v22.3H57.9v10h21.4v18.8h10v-18.8h.3c11.9 0 21.5-9.5 21.5-21.1.1-11.8-9.5-21.3-21.4-21.3zm-10.8 0c-6 0-10.8-4.7-10.8-10.5s4.8-10.5 10.8-10.5h.5v20.9h-.5v.1zm10.8 32.3h-.3v-22.3h.3c6.3 0 11.5 5 11.5 11.1s-5.1 11.2-11.5 11.2z"/></symbol><symbol viewBox="0 0 24 24" id="icon-linkedin"><path d="M19 0H5a5 5 0 0 0-5 5v14a5 5 0 0 0 5 5h14a5 5 0 0 0 5-5V5a5 5 0 0 0-5-5zM8 19H5V8h3v11zM6.5 6.732c-.966 0-1.75-.79-1.75-1.764s.784-1.764 1.75-1.764 1.75.79 1.75 1.764-.783 1.764-1.75 1.764zM20 19h-3v-5.604c0-3.368-4-3.113-4 0V19h-3V8h3v1.765c1.396-2.586 7-2.777 7 2.476V19z"/></symbol><symbol viewBox="0 0 200 160" id="icon-list"><path d="M48 16c0-6.6 5.4-12 12-12h128c6.6 0 12 5.4 12 12s-5.4 12-12 12H60c-6.6 0-12-5.4-12-12zm140 52H60c-6.6 0-12 5.4-12 12s5.4 12 12 12h128c6.6 0 12-5.4 12-12s-5.4-12-12-12zm0 64H60c-6.6 0-12 5.4-12 12s5.4 12 12 12h128c6.6 0 12-5.4 12-12s-5.4-12-12-12zM16 64C7.2 64 0 71.2 0 80s7.2 16 16 16 16-7.2 16-16-7.2-16-16-16zm0-64C7.2 0 0 7.2 0 16s7.2 16 16 16 16-7.2 16-16S24.8 0 16 0zm0 128c-8.8 0-16 7.2-16 16s7.2 16 16 16 16-7.2 16-16-7.2-16-16-16z"/></symbol><symbol viewBox="0 0 30.2 24" id="icon-medium"><path d="M3.6 4.9c0-.4-.1-.7-.4-1L.4.5V0h8.8L16 14.9 22 0h8.4v.5L28 2.8c-.2.2-.3.4-.3.7v17c0 .3.1.5.3.7l2.4 2.3v.5H18.3v-.5l2.4-2.4c.2-.2.2-.3.2-.7V6.7l-6.8 17.2h-.9L5.4 6.7v11.6c-.1.5.1 1 .4 1.3L9 23.4v.5H0v-.5l3.2-3.9c.3-.3.5-.8.4-1.3V4.9z"/></symbol><symbol viewBox="0 0 23.4 19.6" id="icon-monets"><path d="M18.2 12.8c-.4-.2-.8-.3-1.2-.4-.3-.1-.6-.1-.8-.2-.2-.1-.3-.1-.4-.3-.1-.1-.1-.2-.1-.4s.1-.4.3-.5c.2-.1.5-.2.7-.2.2 0 .5.1.7.2.2.1.3.3.3.4 0 .1.1.2.2.1h.8c.1 0 .2-.1.2-.2 0-.2-.1-.4-.2-.6l-.6-.6c-.3-.2-.6-.3-.9-.3v-.5c0-.1-.1-.2-.2-.2h-.5c-.1 0-.1 0-.1.1l-.1.1v.6c-.5 0-.9.2-1.3.6-.3.3-.5.7-.5 1.1 0 .4.1.8.5 1.1.4.3.9.5 1.4.6.4.1.7.2.9.3.2.1.3.1.5.3.1.1.2.2.1.4 0 .2-.1.4-.3.5-.3.1-.6.2-.9.2-.3 0-.6-.1-.8-.2-.2-.1-.3-.3-.4-.5l-.1-.1h-.9s-.1 0-.1.1c0 0 0 .1-.1.1 0 .3.1.5.2.7l.6.6c.3.2.7.3 1 .3v.6c0 .1 0 .1.1.1 0 0 .1.1.1 0h.5c.1 0 .2-.1.2-.2v-.6c.5 0 1-.2 1.4-.5.3-.3.5-.7.5-1.2 0-.3-.1-.6-.2-.8 0-.3-.2-.5-.5-.6z"/><path d="M16.7 6.2h-2.6V3.7c0-.3-.2-.5-.5-.5H13V.5c0-.3-.2-.5-.5-.5H.5C.2 0 0 .2 0 .5v3.1c0 .3.2.5.5.5h.7v2.7c0 .3.2.5.5.5h.5v2.1H.7c-.3 0-.5.2-.5.5V19c0 .3.2.5.5.5h12c.3 0 .5-.2.5-.5v-.5c3.1 2 7.2 1.1 9.2-2s1.1-7.2-2-9.2c-1.1-.7-2.4-1.1-3.7-1.1zM1 1h11v2.1H1V1zm1.2 3.2h11v2.1h-11V4.2zm1 3h10c-.8.5-1.6 1.2-2.1 2.1H3.2V7.2zm7 8.3h-9v-2.1H10c.1.7.2 1.4.5 2.1h-.3zm-9-5.2h9.4c-.3.7-.4 1.4-.5 2.1H1.2v-2.1zm11 8.2h-11v-2.1h9.9c.3.5.7.9 1.1 1.3v.8zm4.5 0c-3.1 0-5.6-2.5-5.6-5.6 0-1 .3-2 .8-2.8 0 0 0-.1.1-.1 1.6-2.7 5.1-3.5 7.7-1.9s3.5 5.1 1.9 7.7c-1.1 1.7-2.9 2.7-4.9 2.7z"/></symbol><symbol viewBox="0 0 28 28" id="icon-pdf"><path d="M28 16v-2h-6v10h2v-4h3v-2h-3v-2zM17 24h-4V14h4c1.7 0 3 1.3 3 3v4c0 1.7-1.3 3-3 3zm-2-2h2c.6 0 1-.4 1-1v-4c0-.6-.4-1-1-1h-2v6zM9 14H4v10h2v-3h3c1.1 0 2-.9 2-2v-3c0-1.1-.9-2-2-2zm-3 5v-3h3v3H6z"/><path d="M20 12V8c0-.3-.1-.5-.3-.7l-7-7c-.2-.2-.4-.3-.7-.3H2C.9 0 0 .9 0 2v24c0 1.1.9 2 2 2h16v-2H2V2h8v6c0 1.1.9 2 2 2h6v2h2zm-8-4V2.4L17.6 8H12z"/></symbol><symbol viewBox="0 0 31.5 30.3" id="icon-percent"><style><![CDATA[.st0{enable-background:new}.st1{fill:#7e9efa}]]></style><g class="st0"><path class="st1" d="M8.4 15.3c-1.3 0-2.4-.3-3.4-.9-1-.6-1.8-1.4-2.4-2.4-.6-1-.9-2.2-.9-3.4 0-1.2.3-2.3.9-3.3S4 3.5 5 2.9C6.1 2.3 7.2 2 8.4 2c1.2 0 2.3.3 3.3.9s1.8 1.4 2.4 2.4.9 2.1.9 3.3-.3 2.4-.9 3.4c-.6 1-1.4 1.8-2.4 2.4-1 .6-2.1.9-3.3.9zM4.3 29.2l-1.5-1.5L28 2.5 29.5 4 4.3 29.2zm4.1-15.9c.8 0 1.6-.2 2.3-.6.7-.4 1.3-1 1.7-1.7.4-.7.6-1.5.6-2.3 0-.8-.2-1.6-.6-2.3-.4-.7-1-1.3-1.7-1.7C10 4.2 9.2 4 8.4 4s-1.6.2-2.3.6c-.7.4-1.3 1-1.7 1.7-.5.7-.7 1.5-.7 2.3 0 .8.2 1.6.6 2.3.4.7 1 1.3 1.7 1.7.8.5 1.5.7 2.4.7zM24 29.7c-1.2 0-2.3-.3-3.3-.9-1-.6-1.8-1.4-2.4-2.4-.6-1-.9-2.1-.9-3.4 0-1.2.3-2.3.9-3.3.6-1 1.4-1.8 2.4-2.4 1-.6 2.1-.9 3.3-.9 1.2 0 2.3.3 3.3.9 1 .6 1.8 1.4 2.4 2.4.6 1 .9 2.1.9 3.4 0 1.2-.3 2.4-.9 3.4-.6 1-1.4 1.8-2.4 2.4-1 .5-2.1.8-3.3.8zm0-2c.8 0 1.6-.2 2.3-.6.7-.4 1.3-1 1.7-1.7.4-.7.6-1.5.6-2.3 0-.8-.2-1.6-.6-2.3-.4-.7-1-1.3-1.7-1.7-.7-.4-1.5-.6-2.3-.6-.8 0-1.6.2-2.3.6-.7.4-1.3 1-1.7 1.7-.4.7-.6 1.5-.6 2.3 0 .8.2 1.6.6 2.3.4.7 1 1.3 1.7 1.7.7.4 1.4.6 2.3.6z"/></g></symbol><symbol viewBox="0 0 35.2 51.2" id="icon-person1"><path d="M31.6 28.5l-4.7-1.8-2.4-2.4c-.2-.2-.4-.2-.6-.2v-2a9.8 9.8 0 0 0 2.3-4.4h.6c1.1-.2 1.9-1.2 1.9-2.4v-.6c0-.7-.3-1.3-.8-1.8.8-4.1.2-7.5-1.8-9.7-1.9-2.1-4.9-3.2-8.7-3-3.4 0-5.7 1.7-6.4 2.3-1 .1-3.8.8-3.8 4.7 0 2.2.4 4.1.6 5.1-.8.4-1.4 1.2-1.4 2.2v.6c0 1.2.8 2.2 1.9 2.4.2 0 .4.1.6 0 .3 1.7 1.1 3.2 2.2 4.4v2c-.2 0-.4.1-.6.2l-2.4 2.4-4.7 1.8c-2.2.9-3.6 3-3.6 5.4l.7 16.6c0 .4.3.7.7.7.4 0 .7-.4.7-.8l-.4-16.4c0-.5 0-1 .2-1.4l2.7 2.7c.8.8 1.2 1.8 1.2 2.9v12.4c0 .4.3.7.7.7.4 0 .8-.3.8-.7V38c0-1.5-.6-2.9-1.6-3.9l-3-3c.4-.5 1-.9 1.6-1.2l4.4-1.7 3.4 5c.4.6 1 1 1.7 1h.2c.5 0 .9-.1 1.3-.4l-.7 16.5c0 .4.3.8.7.8.4 0 .7-.3.7-.7l.7-15.3h2l.7 15.3c0 .4.3.7.7.7.4 0 .7-.4.7-.8L20 33.9c.4.3.8.4 1.3.4h.2c.7-.1 1.3-.4 1.7-1l3.4-5L31 30c.7.3 1.2.7 1.6 1.2l-3 3c-1 1.1-1.6 2.4-1.6 3.9v12.4c0 .4.3.7.8.7.4 0 .8-.3.8-.7V38c0-1.1.4-2.1 1.2-2.9l2.7-2.7c.1.4.2.9.2 1.4L33 50.4c0 .4.3.8.7.8.4 0 .7-.3.7-.7l.7-16.6c.2-2.4-1.3-4.6-3.5-5.4M10.4 17.3c-.1-.8-.9-1.3-1.6-1.3h-.2c-.4-.1-.7-.5-.7-.9v-.6c0-.5.3-.9.7-.9.3-.1.6.1.8.3.1.2.3.3.6.4.3.1.7 0 .9-.2.7-.5 1.2-1 1.7-1.7.2-.4.1-.8-.2-1-.3-.2-.8-.1-1 .2-.3.4-.6.8-1 1.1-.3-.3-.6-.5-1-.5-.2-.8-.6-2.7-.6-4.9 0-3.1 2.3-3.3 2.6-3.3.2 0 .4-.1.5-.2 0 0 2.1-2 5.8-2.2 3.3-.3 5.8.6 7.4 2.4 1.6 1.8 2.1 4.6 1.5 8.1-.3 0-.6 0-.9.1l-.8-2c-.1-.3-.5-.5-.9-.4-.1 0-8.1 2-11.4-2.1-.3-.3-.7-.4-1.1-.1-.3.3-.4.7-.1 1.1 3.4 4.2 10.2 3.2 12.3 2.8l.7 1.6c.2.6.9.9 1.5.8.3-.1.6-.1.7 0 .4.1.7.5.7.9v.6c0 .5-.3.9-.7.9h-.2c-.8-.1-1.5.5-1.6 1.3-.6 3.4-3.6 5.9-7.1 5.9s-6.6-2.7-7.3-6.2m4 15.2c-.2.2-.4.3-.7.2-.3 0-.5-.2-.6-.4l-3.4-5.1 1.5-1.5 5.3 4.6-2.1 2.2zm2.3 1.2l.1-1.3.9-.9.9.9.1 1.3h-2zm.9-4.3l-4.9-4.3v-1.9c1.4.9 3.1 1.5 4.9 1.5s3.5-.5 4.9-1.5v1.9l-4.9 4.3zm4.4 3c-.1.2-.4.4-.6.4-.3 0-.5-.1-.7-.2l-2.1-2.1 5.3-4.6 1.5 1.5-3.4 5z"/></symbol><symbol viewBox="0 0 32.6 51.2" id="icon-person2"><path d="M29 31.8l-4.5-2-.6-.6c3.1-1 5.4-2.1 5.5-2.2.2-.1.4-.3.4-.5.1-.2.1-.5 0-.7 0 0-1.6-3.3-1.6-10.6v-3.4C28.2 5.3 22.9 0 16.3 0 9.8 0 4.4 5.3 4.4 11.9v3.4c0 7.3-1.6 10.6-1.6 10.6-.1.2-.1.4 0 .7 0 .2.2.4.4.5.1.1 2.4 1.2 5.5 2.2l-.6.6-4.5 2c-2.3 1-3.7 3.3-3.6 5.8l.5 12.8c0 .5.4.8.9.8s.9-.4.8-.9l-.5-12.9c0-.9.2-1.7.6-2.4L4.7 38c.9 1 1.3 2.1 1.3 3.3v9c0 .5.4.9.9.9s.9-.4.9-.9v-9c0-1.6-.6-3.2-1.6-4.4l-2.6-3.1c.2-.2.5-.3.7-.4l3.9-1.7 2.8 4.5c.3.4.7.7 1.2.8h.3c.4 0 .8-.1 1.1-.4l1.8-1.6v15.3c0 .5.4.9.9.9s.9-.4.9-.9V35.1l1.8 1.6c.3.3.7.4 1.1.4h.3c.5-.1.9-.4 1.2-.8l2.8-4.5 3.9 1.7c.3.1.5.3.7.4L26.4 37c-1 1.2-1.6 2.8-1.6 4.4v9c0 .5.4.9.9.9s.9-.4.9-.9v-9c0-1.2.4-2.4 1.2-3.3l2.4-2.9c.4.7.7 1.5.6 2.4l-.5 12.8c0 .5.4.9.8.9.5 0 .9-.4.9-.8l.5-12.8c.2-2.6-1.2-4.9-3.5-5.9M6.2 11.9c0-5.6 4.6-10.2 10.2-10.2s10.2 4.6 10.2 10.2v3.4c0 5.7.9 9.1 1.5 10.6-1 .5-3 1.3-5.4 2l-.5-.5c-.2-.2-.4-.3-.6-.3v-1.5c1.5-1 2.7-2.4 3.4-4 .4-1 .7-2.1.7-3.2.1-3.6-3-4.6-6.3-5.5-2.7-.8-5.8-1.7-8.3-4.2-.3-.3-.9-.3-1.2 0-.3.3-.3.9 0 1.2 2.8 2.8 6.3 3.8 9 4.6 3.4 1 5.1 1.6 5 3.8 0 .9-.2 1.8-.6 2.5-1.2 2.8-3.9 4.5-7 4.5-3.7 0-6.8-2.6-7.5-6.2-.2-.9-.9-1.5-1.8-1.4h-.2c-.4-.1-.6-.5-.6-.9v-.7c0-.4.3-.8.7-.9.3-.1.6.1.8.3.1.4.3.5.6.6.4.1.8 0 1.1-.2.7-.5 1.3-1.1 1.8-1.9.3-.4.1-.9-.3-1.2-.4-.3-.9-.1-1.2.3-.3.4-.6.8-1 1.1-.6-.5-1.4-.7-2.1-.6-.1 0-.2.1-.4.1v-1.8zm-1.5 14c.4-1.1 1-3.2 1.3-6.5.1.1.3.1.4.1.2.1.5.1.7.1.5 2.6 2 4.7 4 6.1v1.5c-.2 0-.4.1-.6.3l-.4.4c-2.3-.7-4.4-1.6-5.4-2m7.8 9.4l-2.8-4.5 1.5-1.5 3.9 3.9-2.6 2.1zm3.8-3.4l-3.4-3.4v-2c1.1.4 2.2.7 3.4.7 1.2 0 2.3-.2 3.4-.6v2l-3.4 3.3zm3.8 3.4l-2.5-2.2 3.9-3.9 1.5 1.5-2.9 4.6z"/></symbol><symbol viewBox="0 0 19.9 29" id="icon-person3"><path d="M17.9 16.1l-2.7-1-1.4-1.4c-.1-.1-.2-.1-.3-.1v-1.2c.6-.7 1.1-1.5 1.3-2.5h.4c.6-.1 1.1-.7 1.1-1.4v-.3c0-.4-.2-.8-.4-1 .4-2.3.1-4.2-1-5.5C13.8.5 12.1-.1 9.9 0c-2 .1-3.3 1.1-3.7 1.4-.5.1-2.1.4-2.1 2.7 0 1.3.2 2.3.3 2.9-.4.1-.8.6-.8 1.2v.3c0 .7.4 1.2 1.1 1.4h.4c.2 1 .6 1.8 1.3 2.5v1.2c-.1 0-.2 0-.3.1l-1.4 1.4-2.7 1c-1.3.5-2.1 1.7-2 3.1l.4 9.4c0 .2.2.4.4.4s.4-.2.4-.4l-.4-9.4c0-.3 0-.5.1-.8l1.5 1.5c.4.4.7 1 .7 1.6v7c0 .2.2.4.4.4.3.1.5-.1.5-.3v-7c0-.8-.3-1.6-.9-2.2l-1.7-1.7c.2-.3.6-.5.9-.7l2.5-1 1.9 2.9c.2.3.4.5.8.5.6-.3 1.2-.5 2-.6v-.4l.5-.5.5.5v.4c.6.1 1.2.3 1.8.6.4-.1.7-.3.9-.6l1.9-2.9 2.5 1c.4.1.7.4.9.7l-1.7 1.7c-.6.6-.9 1.4-.9 2.2v6c.2.5.4.9.5 1.4.2 0 .4-.2.4-.4v-7c0-.6.2-1.2.7-1.6l1.5-1.5c.1.3.1.5.1.8l-.4 9.4c0 .2.2.4.4.4s.4-.2.4-.4l.4-9.4c.1-1.3-.7-2.6-2-3.1zm-12-6.3c-.1-.4-.5-.7-.9-.7h-.1c-.3-.1-.4-.3-.4-.5v-.4c0-.3.2-.5.4-.5s.4 0 .5.2l.1.1c0-.1.1-.1.2-.2-.2-.3-.3-.6-.4-.9-.1-.5-.4-1.5-.4-2.8 0-1.8 1.3-1.8 1.5-1.8.1 0 .2 0 .3-.1 0 0 1.2-1.1 3.3-1.2 1.9-.1 3.4.4 4.2 1.4.9 1 1.2 2.6.8 4.6h-.4v.3c0 .2 0 .3.1.5h.3c.2 0 .4.3.4.5v.4c0 .3-.2.5-.4.5h-.1c-.4 0-.8.3-.9.7-.4 2-2.1 3.4-4 3.4-2-.1-3.7-1.5-4.1-3.5zm2.3 8.6c-.1.1-.2.2-.4.1-.1 0-.3-.1-.4-.2l-1.9-2.9.8-.8 3 2.6-1.1 1.2zm1.8-1.7l-2.8-2.4v-1.1c.8.5 1.8.8 2.8.8 1 0 2-.3 2.8-.8v1.1L10 16.7zm2.5 1.7c-.1.1-.2.2-.4.2-.1 0-.3 0-.4-.1l-1.2-1.2 3-2.6.8.8-1.8 2.9z"/></symbol><symbol viewBox="0 0 456.339 456.339" id="icon-play"><path d="M195.155 337.833c-1.93 0-3.875-.42-5.693-1.266a13.433 13.433 0 0 1-7.732-12.162v-192.47a13.427 13.427 0 1 1 22.024-10.316l115.482 96.235a13.425 13.425 0 0 1 0 20.632l-115.482 96.235a13.426 13.426 0 0 1-8.599 3.112zm13.432-177.23v135.134l81.079-67.567-81.079-67.567z"/><path d="M227.771 456.336c-38.232.007-76.687-9.533-111.516-29.143-6.462-3.637-8.753-11.827-5.112-18.289 3.633-6.462 11.823-8.756 18.289-5.112 78.345 44.103 177.517 30.465 241.161-33.2 78.533-78.534 78.533-206.31 0-284.844-78.534-78.547-206.321-78.54-284.851 0-78.53 78.534-78.53 206.31 0 284.844 5.245 5.245 5.245 13.75 0 18.995-5.238 5.245-13.743 5.245-18.988 0-89.003-89.01-89.003-233.824 0-322.834 89.007-88.996 233.817-89.003 322.834 0 89.003 89.01 89.003 233.824 0 322.834-43.845 43.844-102.566 66.749-161.817 66.749z"/></symbol><symbol viewBox="0 0 36 33.3" id="icon-review"><style><![CDATA[.st0{enable-background:new}.st1{fill:#8198ce}]]></style><g class="st0"><path class="st1" d="M1.1 14.5V0h13.4v11.4c0 6.2-.7 10.7-2.1 13.4-2 3.7-5.1 6.6-9.3 8.5L0 28.4c2.5-1 4.4-2.6 5.6-4.8 1.2-2.2 1.9-5.2 2-9H1.1zm21.5 0V0H36v11.4c0 6.2-.7 10.7-2.1 13.4-2 3.7-5.1 6.6-9.3 8.5l-3.1-4.9c2.5-1 4.4-2.6 5.6-4.8 1.2-2.2 1.9-5.2 2-9h-6.5z"/></g></symbol><symbol viewBox="0 0 128 128" id="icon-supply"><path d="M66.1 34.9l-.4-.4-.2-.1c-.2-.1-.4-.2-.6-.2l-.2-.1c-.4-.1-.8-.1-1.2 0l-.3.1-.3.1c-.1 0-.2.1-.3.2l-.2.1c-.2.1-.3.2-.5.4L35 61.8c-1.3 1-1.5 2.9-.5 4.2s2.9 1.5 4.2.5c.2-.2.4-.3.5-.5L61 44.2V125c0 1.7 1.3 3 3 3s3-1.3 3-3V44.2L88.8 66c1.3 1 3.2.8 4.2-.5.8-1.1.8-2.6 0-3.7L66.1 34.9z"/><path d="M3 40c1.7 0 3-1.3 3-3V15c0-5 4-9 9-9h98c5 0 9 4 9 9v22c0 1.7 1.3 3 3 3s3-1.3 3-3V15c0-8.3-6.7-15-15-15H15C6.7 0 0 6.7 0 15v22c0 1.7 1.3 3 3 3z"/></symbol><symbol viewBox="0 0 512 431" id="icon-telegram"><path d="M470.4 4.9L16.8 180.7c-18.3 8.2-24.4 24.6-4.4 33.5l116.4 37.2L410.2 76.6c15.4-11 31.1-8 17.6 4l-241.7 220-7.6 93.1c7 14.4 19.9 14.4 28.1 7.3l66.9-63.6L388 423.6c26.6 15.8 41.1 5.6 46.8-23.4l75.1-357.5c7.7-35.8-5.6-51.5-39.5-37.8z"/></symbol><symbol viewBox="0 0 512 512" id="icon-twitter"><path d="M4 440.5c55.6 5 105.7-9 151.3-43.2-47.7-4.2-79.6-28-97.4-72.6 15.6 1.9 30.2 2.4 45.7-1.8-51.4-16-78.8-49.6-82.5-103.8 15.4 7.2 29.9 12.4 47 12.6-30.5-22.9-46.1-52.6-45.5-90 .3-17.2 4.9-33.4 14-48.7C93.1 159.1 164 195.7 251.3 201.8c-.5-3.8-.8-6.8-1.2-9.9-7.2-55.4 28.8-105.8 83.8-116.3 34.5-6.6 65 2.5 90.8 26.3 4 3.6 7.4 4.4 12.4 3.1 20.1-5.1 39.2-12.5 57.7-22.5-7.1 23.4-21.7 41-41.5 55.8 4.5-.8 9.1-1.4 13.6-2.3 4.7-1 9.4-2.1 14.1-3.4 4.5-1.2 8.9-2.6 13.3-4.1 4.5-1.5 9-3.2 14.3-4.1-2.6 3.6-5.1 7.4-7.9 10.9-11.6 14.7-25 27.6-39.7 39.1-1.5 1.2-2.8 3.8-2.7 5.6.8 35.5-4.2 70.1-15.7 103.7-22.6 66.2-62 119.8-121.1 158.1-29.2 18.9-61.1 31.3-95.2 38.5-33.8 7.1-67.8 8.4-101.9 4.4-34.2-4-66.7-14.1-97.3-29.9-8.1-4.1-15.9-8.7-23.8-13.1.3-.4.5-.8.7-1.2z"/></symbol><symbol viewBox="0 0 18 18" id="icon-user"><path d="M9 10c-2.8 0-5-2.2-5-5s2.2-5 5-5 5 2.2 5 5-2.2 5-5 5zm0-8C7.3 2 6 3.3 6 5s1.3 3 3 3 3-1.3 3-3-1.3-3-3-3z"/><path d="M17 18c-.6 0-1-.4-1-1 0-3.9-3.1-7-7-7s-7 3.1-7 7c0 .6-.4 1-1 1s-1-.4-1-1c0-5 4-9 9-9s9 4 9 9c0 .6-.4 1-1 1z"/></symbol><symbol viewBox="0 0 19.6 17.6" id="icon-wallet"><path d="M19.6 2.3c0-1.3-1-2.3-2.3-2.3h-15C1 0 0 1 0 2.3v13c0 1.3 1 2.3 2.3 2.3h15c1.3 0 2.3-1 2.3-2.3v-13zM19 13h-3.7c-.9 0-1.7-.8-1.7-1.7s.8-1.7 1.7-1.7H19V13zm0-4h-3.7C14 9 13 10 13 11.3s1 2.3 2.3 2.3H19v1.7c0 .9-.8 1.7-1.7 1.7h-15c-.9 0-1.7-.8-1.7-1.7V4.9l.3.2c.4.3.9.5 1.4.5h15c.9 0 1.7.8 1.7 1.7V9zM3.6 5l.1-.3c.2-.7.9-1.1 1.6-1.1h9c.7 0 1.4.5 1.6 1.1l.1.3H3.6zm15.4.7l-.3-.2c-.4-.3-.9-.5-1.4-.5h-.7v-.2c-.3-1-1.2-1.8-2.3-1.8h-9c-1.1 0-2 .8-2.3 1.8V5h-.7C1.4 5 .6 4.2.6 3.3v-1c0-.9.8-1.7 1.7-1.7h15c.9 0 1.7.8 1.7 1.7v3.4z"/></symbol><symbol viewBox="0 0 343.9 318.7" id="icon-wallet2"><path d="M284.9 188.3c-2 0-3.9.8-5.3 2.2-1.4 1.4-2.2 3.3-2.2 5.3s.8 3.9 2.2 5.3c1.4 1.4 3.3 2.2 5.3 2.2s3.9-.8 5.3-2.2c1.4-1.4 2.2-3.3 2.2-5.3s-.8-3.9-2.2-5.3c-1.4-1.4-3.4-2.2-5.3-2.2z"/><path d="M328 162.4h-18.9V83.6c0-4.1-3.4-7.5-7.5-7.5h-37.3V24.2c0-4.1-3.4-7.5-7.5-7.5H156.1V7.5c0-4.1-3.4-7.5-7.5-7.5H40.3c-4.1 0-7.5 3.4-7.5 7.5v68.6H7.5c-4.1 0-7.5 3.4-7.5 7.5v227.6c0 4.1 3.4 7.5 7.5 7.5h294.2c4.1 0 7.5-3.4 7.5-7.5v-78.8h18.9c8.7 0 15.8-7.1 15.8-15.8v-38.3c-.1-8.8-7.2-15.9-15.9-15.9zM249.3 31.7v44.4h-14.5V58.3c0-4.1-3.5-7.5-7.6-7.5-1.2 0-2.1-.9-2.2-2-.4-3.8-3.6-6.8-7.5-6.8h-30.6c-3.8 0-7.1 2.9-7.5 6.7-.1 1.2-1.1 2-2.2 2h-.1c-4.1 0-7.5 3.4-7.5 7.5V76h-13.5V31.6h93.2v.1zm-64.7 44.4v-12c3.2-1.5 5.9-4 7.7-7.1h19.9c1.7 3.1 4.4 5.6 7.6 7.1v12h-35.2zM47.8 14.9H141V76h-14.5V41.4c0-2-.8-4-2.3-5.4-1.4-1.4-3.4-2.2-5.4-2.1-1.1 0-2-.9-2.2-2-.4-3.8-3.6-6.7-7.5-6.7H78.5c-3.8 0-7.1 2.9-7.5 6.7-.1 1.1-1 2-2.2 2-2-.1-4 .7-5.4 2.1-1.5 1.4-2.3 3.4-2.3 5.4V76H47.6V14.9h.2zm28.5 61.2V47.4c3.2-1.5 5.9-4 7.7-7.1h19.9c1.7 3.1 4.4 5.6 7.6 7.1v28.7H76.3zm217.8 182h-17.2c-4.8 0-8.7 4-8.7 9s3.9 9 8.7 9h17.2v27.7H15v-27.7h17.2c4.8 0 8.7-4 8.7-9s-3.9-9-8.7-9H15V136.7h17.2c4.8 0 8.7-4 8.7-9s-3.9-9-8.7-9H15V91h279.2v27.7H277c-4.8 0-8.7 4-8.7 9s3.9 9 8.7 9h17.2v25.7h-26c-8.7 0-15.8 7.1-15.8 15.8v38.3c0 8.7 7.1 15.8 15.8 15.8h26l-.1 25.8zm34.7-41.6c0 .5-.4.8-.8.8H268.1c-.5 0-.8-.4-.8-.8v-38.3c0-.5.4-.8.8-.8H328c.5 0 .8.4.8.8v38.3z"/><path d="M102.1 118.7h-35c-4.8 0-8.7 4-8.7 9s3.9 9 8.7 9h35c4.8 0 8.7-4 8.7-9 0-4.9-3.9-9-8.7-9zM172 118.7h-35c-4.8 0-8.7 4-8.7 9s3.9 9 8.7 9h35c4.8 0 8.7-4 8.7-9 0-4.9-3.9-9-8.7-9zM242 118.7h-35c-4.8 0-8.7 4-8.7 9s3.9 9 8.7 9h35c4.8 0 8.7-4 8.7-9 0-4.9-3.9-9-8.7-9zM172 258.1h-35c-4.8 0-8.7 4-8.7 9s3.9 9 8.7 9h35c4.8 0 8.7-4 8.7-9s-3.9-9-8.7-9zM242 258.1h-35c-4.8 0-8.7 4-8.7 9s3.9 9 8.7 9h35c4.8 0 8.7-4 8.7-9s-3.9-9-8.7-9zM102.1 258.1h-35c-4.8 0-8.7 4-8.7 9s3.9 9 8.7 9h35c4.8 0 8.7-4 8.7-9s-3.9-9-8.7-9z"/></symbol><symbol viewBox="0 0 7 5.2" id="icon-wallets"><path d="M4.6 3.5c-.5 0-.9-.4-.9-.9s.4-.9.9-.9h1.8v1.9c0-.1-1.8-.1-1.8-.1zm0-1.2c-.1 0-.2.1-.2.2-.1.2 0 .3.2.3.1 0 .2-.1.2-.2 0-.2-.1-.3-.2-.3zM5.8.1H1.1C1 .1.9.2.9.3s.1.2.2.2h4.7c.3 0 .6.3.6.6v.1H4.6c-.8 0-1.4.6-1.4 1.4S3.8 4 4.6 4h1.8v.1c0 .3-.3.6-.6.6H1.1c-.3 0-.6-.3-.6-.6v-3C.5 1 .4.9.3.9s-.2.1-.2.2V4c0 .6.5 1 1 1h4.7c.6 0 1-.5 1-1V1.1c0-.6-.4-1-1-1z"/><path d="M5.8 5.2H1.1C.6 5.2 0 4.7 0 4V1.1C0 1 .2.8.3.8c.2 0 .3.2.3.3v3c0 .2.2.5.5.5h4.7c.2 0 .5-.2.5-.5H4.6c-.9 0-1.5-.7-1.5-1.5 0-.9.7-1.5 1.5-1.5h1.7c0-.2-.3-.4-.5-.4H1.1C1 .7.8.5.8.3S1 0 1.1 0h4.7C6.5 0 7 .5 7 1.1V4c0 .6-.5 1.2-1.2 1.2zM.3 1.1s-.1 0 0 0L.2 4c0 .5.5.9.9.9h4.7c.5 0 .9-.5.9-.9V1.1c0-.5-.3-.9-.9-.9H1.1S1 .2 1 .3s0 .1.1.1h4.7c.4 0 .7.4.7.7v.2H4.6c-.7 0-1.3.5-1.3 1.3s.5 1.3 1.3 1.3h1.9v.2c0 .4-.4.7-.7.7H1.1c-.4 0-.7-.4-.7-.7l-.1-3c.1 0 .1 0 0 0zm6.1 2.6c-.1 0-1-.1-1.7-.1-.6 0-1-.5-1-1 0-.6.5-1 1-1h1.9v2l-.2.1zM4.6 1.9c-.4 0-.8.3-.8.8 0 .4.3.8.8.8 1 0 1.4 0 1.7.1V1.9H4.6zm0 1.1c-.2 0-.3-.1-.3-.2s-.1-.2 0-.3c0-.2.2-.3.3-.3.2 0 .4.1.4.4 0 .2-.2.4-.4.4zm0-.5s-.1 0 0 0l-.1.1v.1h.1s.1 0 .1-.1 0-.1-.1-.1z"/></symbol><symbol viewBox="0 0 155.3 155.4" id="icon-withdraw"><style><![CDATA[.st0{fill:#231f20}]]></style><path class="st0" d="M60 118.2c-2.8 0-5-2.3-5-5 0-1.3.5-2.5 1.4-3.5l32.2-32.2-32.1-32.2c-1.9-2-1.9-5.2.1-7.1 1.9-1.9 5-1.9 6.9 0l35.7 35.7c2 2 2 5.1 0 7.1l-35.7 35.7c-.9 1-2.2 1.5-3.5 1.5z"/><path d="M60 120.2c-3.9 0-7-3.1-7-7 0-1.8.7-3.4 1.9-4.8l.1-.1 30.8-30.8-30.7-30.8c-2.7-2.9-2.6-7.3.1-10 2.6-2.6 7-2.6 9.7 0l35.7 35.7c1.3 1.3 2.1 3.1 2.1 5s-.7 3.6-2.1 5l-35.7 35.7c-1.2 1.3-3 2.1-4.9 2.1zm-2.1-9.1c-.6.6-.9 1.4-.9 2.1 0 1.7 1.3 3 3 3 .8 0 1.5-.3 2-.8l.1-.1 35.7-35.7c1.2-1.2 1.2-3.1 0-4.3L62.1 39.6c-1.1-1.1-3-1.1-4.1 0-1.2 1.2-1.2 3.1-.1 4.3l33.5 33.6-33.5 33.6z"/><g><path class="st0" d="M131.8 153.4H23.5c-11.9 0-21.5-9.7-21.5-21.5V23.5C2 11.6 11.7 2 23.5 2h108.3c11.9 0 21.5 9.7 21.5 21.5v108.3c.1 11.9-9.6 21.6-21.5 21.6zM23.5 12C17.1 12 12 17.2 12 23.5v108.3c0 6.4 5.2 11.5 11.5 11.5h108.3c6.4 0 11.5-5.2 11.5-11.5V23.5c0-6.4-5.2-11.5-11.5-11.5H23.5z"/><path d="M131.8 155.4H23.5c-13 0-23.5-10.5-23.5-23.5V23.5C0 10.5 10.5 0 23.5 0h108.3c13 0 23.5 10.5 23.5 23.5v108.3c.1 6.2-2.4 12.2-6.8 16.6-4.4 4.5-10.4 7-16.7 7zM23.5 4C12.7 4 4 12.7 4 23.5v108.4c0 10.8 8.7 19.5 19.5 19.5h108.3c5.2 0 10.2-2.1 13.9-5.8 3.7-3.7 5.7-8.6 5.6-13.8V23.5c0-10.8-8.7-19.5-19.5-19.5H23.5zm108.3 141.3H23.5c-7.4 0-13.5-6.1-13.5-13.5V23.5C10 16.1 16.1 10 23.5 10h108.3c7.4 0 13.5 6.1 13.5 13.5v108.3c0 7.4-6.1 13.5-13.5 13.5zM23.5 14c-5.2 0-9.5 4.3-9.5 9.5v108.3c0 5.2 4.3 9.5 9.5 9.5h108.3c5.2 0 9.5-4.3 9.5-9.5V23.5c0-5.2-4.3-9.5-9.5-9.5H23.5z"/></g></symbol></svg>