<svg version="1.1" id="Layer_1" xmlns="http://www.w3.org/2000/svg" x="0" y="0" viewBox="0 0 1774.1 804.8" xml:space="preserve"><style>.st0{fill:#fff}</style><path class="st0" d="M764.3 305.2c30-16.6 59.6-28 91.6-32.8 39.4-5.9 78.1-3.9 116.3 7.4 48.2 14.2 88.2 41.7 122.7 77.5 80.9 84 164.3 165.4 246.6 248 22.6 22.6 43.3 47.3 69.5 66.1 56.2 40.4 132.8 42.5 185 9.8 60.2-37.7 89.2-108.6 74.5-178-13.9-65.7-68.9-119.1-135.6-129.7-69-11-126.8 9.8-171.3 64.5-4.9 6-8.5 6-14.8 3.5-21.6-8.6-43.2-17.1-65.2-24.8-9-3.1-12.1-7.1-11.5-17.1 6.4-103.3 12.2-206.7 18.2-310.1 1.5-25.7 3.3-51.5 4.4-77.2.3-7.5 1.8-10.9 10.6-10.8 134.1.3 268.3.3 402.4.1 7.6 0 10.1 1.7 9.9 9.8-.6 23.2-.8 46.5 0 69.8.4 10.2-2.8 12.6-12.7 12.6-102.4-.4-204.8 0-307.2-.5-11.2-.1-14.8 2.7-15.4 14.2-3.2 62.9-7.3 125.7-11 188.6-.2 4 0 8.1 0 13.6 16.3-8.4 31.2-16.8 47.2-23.1 111.4-43.3 244.1-6.3 310.9 100.7 51.6 82.5 59 171 19.9 260.2-37.9 86.5-105.4 138.6-199.6 152.4-61 8.9-119.1-2-172.3-34.7-18.8-11.6-35.7-25.4-51.2-41-98.6-98.7-197.3-197.4-295.8-296.2-16.2-16.2-33.1-31.6-54.4-40.8-72.2-31.3-161.8-20.5-217 48.5-6 7.5-10.4 8.3-18.6 4.9-21.9-8.9-44-17.3-66.3-25.3-6.7-2.4-8.9-5.6-8.5-12.9 7.8-130.3 15.4-260.7 22.8-391.1.4-7.3 2.1-10 10.1-9.9 134.1.3 268.3.3 402.4 0 8.3 0 10.8 2.1 10.5 10.6-.6 23.2-.7 46.5 0 69.8.3 9.8-2.8 11.8-12.1 11.8-102.8-.3-205.6 0-308.5-.5-10.8 0-14 2.4-14.6 13.6-3.3 65.4-7.7 130.7-11.9 198.5z"/><linearGradient id="SVGID_1_" gradientUnits="userSpaceOnUse" x1="530.138" y1="713.821" x2="-14.254" y2="169.429" gradientTransform="matrix(1 0 0 -1 0 818.49)"><stop offset=".237" stop-color="#7ac6f2"/><stop offset=".819" stop-color="#a2a7f1"/></linearGradient><path d="M467.3 379.7c68.2 31.2 108.7 83.7 118 157.1 9.1 72.2-3.2 140.3-53.9 196.6-43 47.7-99.1 68.4-161.8 70.3-63 1.9-126.1.7-189.1.7-56.3.1-112.5-.2-168.8.3-9.6.1-11.7-2.4-11.7-11.8.3-260.5.3-521.1 0-781.6C0 2.8 1.6 0 10.8 0 117 .4 223.2-.2 329.4.3c113.3.6 199 70.2 217.3 180.9 13 78.8-7.8 147.6-77.2 195.4-.7.6-1 1.5-2.2 3.1zM118.9 565.1c0 39.3.1 78.7-.1 118 0 6-.2 10.1 8.3 10.1 71.5-.4 143 .4 214.4-.8 33.8-.6 64.7-12.2 89.8-35.9 35.9-33.9 46.7-89.9 27.4-139.5-18.5-47.5-62.8-77.6-117.1-78-71.1-.6-142.1 0-213.2-.3-7.9 0-9.9 1.9-9.8 9.7.5 38.9.3 77.8.3 116.7zm109.6-237.4c30 0 60.1.1 90.1 0 77.5-.2 127.9-67.1 106.9-142.1-12.9-46-53.3-75-107.9-75.7-63-.7-126.1 0-189.1-.4-8.2 0-9.7 2.7-9.7 10.2.3 66 .3 132-.1 197.9-.1 8.7 2.9 10.3 10.8 10.2 33-.3 66-.1 99-.1z" fill="url(#SVGID_1_)"/><path class="st0" d="M918.2 802.5c-137.6-.1-238.8-73.9-273.3-182.1-3.2-10-3-14.6 9-17.2 24.3-5.3 48.2-12.5 72.2-19.3 6.2-1.8 9-1.6 11.5 5.7 22 67.1 81.6 113.5 150.2 117.9 69.5 4.4 132.4-32.3 163.6-96.2 3.9-8 6.2-8.7 13.3-3.7 20.7 14.7 41.5 29.2 63 42.7 8.9 5.6 8.3 10.1 3.4 17.8C1076 754.5 998 800.2 918.2 802.5z"/></svg>