<svg version="1.1" id="Слой_1" xmlns="http://www.w3.org/2000/svg" x="0" y="0" viewBox="0 0 523 617" xml:space="preserve"><style>.st1{fill:#fff}</style><linearGradient id="SVGID_1_" gradientUnits="userSpaceOnUse" x1="136.642" y1="305.193" x2="183.903" y2="305.193" gradientTransform="rotate(42.994 158.446 305.203)"><stop offset="0" stop-color="#00b478"/><stop offset="1" stop-color="#00e3ac"/></linearGradient><circle cx="158.4" cy="305.2" r="21.8" fill="url(#SVGID_1_)"/><path class="st1" d="M155.4 297.3c1 0 2 .2 2.8.7.8.5 1.5 1.2 2 2s.7 1.8.7 3v4.8c0 1.2-.2 2.2-.7 3.1s-1.1 1.6-2 2c-.9.5-1.9.7-3 .7-.8 0-1.5-.1-2.3-.4s-1.3-.7-1.9-1.3l1.9-1.8c.3.3.6.6 1 .8.4.2.8.3 1.2.3.6 0 1.1-.1 1.6-.4.5-.3.8-.7 1.1-1.1.3-.5.4-1 .4-1.5v-2.6l.5.5c-.4.5-1 .9-1.6 1.2-.6.3-1.3.4-2 .4-1 0-1.9-.2-2.6-.7-.8-.5-1.4-1.1-1.8-1.8-.4-.8-.7-1.7-.7-2.6s.2-1.9.7-2.7c.5-.8 1.2-1.4 2-1.9s1.7-.7 2.7-.7zm0 2.5c-.5 0-1 .1-1.4.4-.4.2-.8.6-1 1-.2.4-.4.9-.4 1.4s.1 1 .4 1.4c.2.4.6.8 1 1 .4.2.9.4 1.4.4.5 0 1-.1 1.4-.4.4-.2.8-.6 1-1 .3-.4.4-.9.4-1.4 0-.5-.1-1-.4-1.4-.2-.4-.6-.8-1-1-.4-.3-.9-.4-1.4-.4zm9.1 1.1c-.3 0-.6-.1-.8-.2-.2-.1-.4-.3-.6-.6s-.2-.5-.2-.8c0-.3.1-.5.2-.8.1-.2.3-.4.6-.6.2-.1.5-.2.8-.2.3 0 .6.1.8.2.2.1.4.3.6.6.1.2.2.5.2.8s-.1.6-.2.8c-.1.2-.3.4-.6.6-.2.1-.5.2-.8.2zm-.6 3.3l-.7-.7 5.6-5.6.7.7-5.6 5.6zm.6-4.2c.1 0 .2 0 .3-.1.1-.1.2-.1.2-.2.1-.1.1-.2.1-.3 0-.1 0-.2-.1-.3-.1-.1-.1-.2-.2-.2-.1-.1-.2-.1-.3-.1s-.2 0-.3.1-.2.1-.2.2c-.1.1-.1.2-.1.3 0 .1 0 .2.1.3.1.1.1.2.2.2.1.1.2.1.3.1zm3.7 4.3c-.3 0-.6-.1-.8-.2-.2-.1-.4-.3-.6-.6-.1-.2-.2-.5-.2-.8 0-.3.1-.5.2-.8.1-.2.3-.4.6-.6.2-.1.5-.2.8-.2.3 0 .6.1.8.2s.4.3.6.6c.1.2.2.5.2.8s-.1.6-.2.8c-.1.2-.3.4-.6.6-.2.2-.5.2-.8.2zm0-.9c.1 0 .2 0 .3-.1s.2-.1.2-.2c.1-.1.1-.2.1-.3 0-.1 0-.2-.1-.3-.1-.1-.1-.2-.2-.2-.1-.1-.2-.1-.3-.1-.1 0-.2 0-.3.1-.1.1-.2.1-.2.2s-.1.2-.1.3c0 .1 0 .2.1.3.1.1.1.2.2.2.1.1.2.1.3.1z"/><linearGradient id="SVGID_00000176038957813782706450000017579371789481247422_" gradientUnits="userSpaceOnUse" x1="289.4" y1="164.14" x2="336.661" y2="164.14" gradientTransform="rotate(42.994 158.446 305.203)"><stop offset="0" stop-color="#00b478"/><stop offset="1" stop-color="#00e3ac"/></linearGradient><circle cx="366.4" cy="306.2" r="21.8" fill="url(#SVGID_00000176038957813782706450000017579371789481247422_)"/><path class="st1" d="M363.3 298.3c1 0 2 .2 2.8.7.8.5 1.5 1.2 2 2s.7 1.8.7 3v4.8c0 1.2-.2 2.2-.7 3.1s-1.1 1.6-2 2c-.9.5-1.9.7-3 .7-.8 0-1.5-.1-2.3-.4s-1.3-.7-1.9-1.3l1.9-1.8c.3.3.6.6 1 .8.4.2.8.3 1.2.3.6 0 1.1-.1 1.6-.4.5-.3.8-.7 1.1-1.1.3-.5.4-1 .4-1.5v-2.6l.5.5c-.4.5-1 .9-1.6 1.2-.6.3-1.3.4-2 .4-1 0-1.9-.2-2.6-.7-.8-.5-1.4-1.1-1.8-1.8-.4-.8-.7-1.7-.7-2.6s.2-1.9.7-2.7c.5-.8 1.2-1.4 2-1.9s1.7-.7 2.7-.7zm0 2.5c-.5 0-1 .1-1.4.4-.4.2-.8.6-1 1-.2.4-.4.9-.4 1.4s.1 1 .4 1.4c.2.4.6.8 1 1 .4.2.9.4 1.4.4.5 0 1-.1 1.4-.4.4-.2.8-.6 1-1 .3-.4.4-.9.4-1.4 0-.5-.1-1-.4-1.4-.2-.4-.6-.8-1-1-.4-.3-.9-.4-1.4-.4zm9.2 1.1c-.3 0-.6-.1-.8-.2-.2-.1-.4-.3-.6-.6-.1-.2-.2-.5-.2-.8 0-.3.1-.5.2-.8s.3-.4.6-.6c.2-.1.5-.2.8-.2.3 0 .6.1.8.2.2.1.4.3.6.6.1.2.2.5.2.8s-.1.6-.2.8-.3.4-.6.6c-.3.1-.5.2-.8.2zm-.7 3.3l-.7-.7 5.6-5.6.7.7-5.6 5.6zm.7-4.2c.1 0 .2 0 .3-.1.1-.1.2-.1.2-.2.1-.1.1-.2.1-.3 0-.1 0-.2-.1-.3-.1-.1-.1-.2-.2-.2-.1-.1-.2-.1-.3-.1s-.2 0-.3.1-.2.1-.2.2c-.1.1-.1.2-.1.3 0 .1 0 .2.1.3.1.1.1.2.2.2 0 .1.1.1.3.1zm3.7 4.3c-.3 0-.6-.1-.8-.2-.2-.1-.4-.3-.6-.6s-.2-.5-.2-.8c0-.3.1-.5.2-.8.1-.2.3-.4.6-.6.2-.1.5-.2.8-.2.3 0 .6.1.8.2.2.1.4.3.6.6.1.2.2.5.2.8s-.1.6-.2.8c-.1.2-.3.4-.6.6-.3.2-.6.2-.8.2zm-.1-.9c.1 0 .2 0 .3-.1.1-.1.2-.1.2-.2.1-.1.1-.2.1-.3 0-.1 0-.2-.1-.3-.1-.1-.1-.2-.2-.2s-.2-.1-.3-.1-.2 0-.3.1-.2.1-.2.2c-.1.1-.1.2-.1.3 0 .1 0 .2.1.3.1.1.1.2.2.2s.2.1.3.1z"/><linearGradient id="SVGID_00000026121114115303949490000013972874185002375075_" gradientUnits="userSpaceOnUse" x1="456.463" y1="207.334" x2="499.243" y2="207.334" gradientTransform="rotate(42.994 158.446 305.203)"><stop offset="0" stop-color="#949eee"/><stop offset="1" stop-color="#4d5dcd"/></linearGradient><circle cx="457.6" cy="450.3" r="19.7" fill="url(#SVGID_00000026121114115303949490000013972874185002375075_)"/><path class="st1" d="M454.3 457.9c-.7 0-1.4-.1-2-.4-.6-.3-1.2-.7-1.6-1.2-.5-.5-.8-1.1-1-1.8l2.3-.6c.2.6.5 1 .9 1.3s.9.5 1.5.5c.5 0 .9-.1 1.3-.3.4-.2.7-.5.9-.9.2-.4.3-.8.3-1.3 0-.7-.2-1.3-.7-1.8-.5-.5-1-.7-1.8-.7-.2 0-.4 0-.6.1s-.4.1-.6.2l-1.1-1.9 4.8-4.1.2.6h-6.8v-2.2h8.7v2.3l-3.9 3.7v-.7c.9.1 1.6.3 2.2.7s1.1 1 1.4 1.6c.3.7.5 1.4.5 2.2 0 .9-.2 1.7-.7 2.4-.4.7-1 1.3-1.8 1.7s-1.5.6-2.4.6zm8.8-11.5c-.3 0-.5-.1-.7-.2-.2-.1-.4-.3-.5-.5-.1-.2-.2-.5-.2-.7 0-.3.1-.5.2-.7.1-.2.3-.4.5-.5s.5-.2.7-.2c.3 0 .5.1.7.2.2.1.4.3.5.5s.2.5.2.7-.1.5-.2.7-.3.4-.5.5c-.2.2-.4.2-.7.2zm-.5 3l-.6-.6 5.1-5.1.6.6-5.1 5.1zm.5-3.8c.1 0 .2 0 .3-.1s.2-.1.2-.2.1-.2.1-.3 0-.2-.1-.3-.1-.2-.2-.2-.2-.1-.3-.1-.2 0-.3.1-.2.1-.2.2-.1.2-.1.3 0 .2.1.3.1.2.2.2.2.1.3.1zm3.4 3.9c-.3 0-.5-.1-.7-.2-.2-.1-.4-.3-.5-.5-.1-.2-.2-.5-.2-.7 0-.3.1-.5.2-.7.1-.2.3-.4.5-.5.2-.1.5-.2.7-.2.3 0 .5.1.7.2.2.1.4.3.5.5.1.2.2.5.2.7s-.1.5-.2.7c-.1.2-.3.4-.5.5-.2.2-.5.2-.7.2zm-.1-.8c.1 0 .2 0 .3-.1s.2-.1.2-.2.1-.2.1-.3 0-.2-.1-.3-.1-.2-.2-.2-.2-.1-.3-.1-.2 0-.3.1-.2.1-.2.2c-.1.1-.1.2-.1.3s0 .2.1.3c.1.1.1.2.2.2s.2.1.3.1z"/><linearGradient id="SVGID_00000164496670210759427010000011772148261925954946_" gradientUnits="userSpaceOnUse" x1="303.522" y1="350.22" x2="346.302" y2="350.22" gradientTransform="rotate(42.994 158.446 305.203)"><stop offset="0" stop-color="#949eee"/><stop offset="1" stop-color="#4d5dcd"/></linearGradient><circle cx="248.3" cy="450.5" r="19.7" fill="url(#SVGID_00000164496670210759427010000011772148261925954946_)"/><path class="st1" d="M245 458.1c-.7 0-1.4-.1-2-.4-.6-.3-1.2-.7-1.6-1.2-.5-.5-.8-1.1-1-1.8l2.3-.6c.2.6.5 1 .9 1.3s.9.5 1.5.5c.5 0 .9-.1 1.3-.3.4-.2.7-.5.9-.9.2-.4.3-.8.3-1.3 0-.7-.2-1.3-.7-1.8-.5-.5-1-.7-1.8-.7-.2 0-.4 0-.6.1s-.4.1-.6.2l-1.1-1.9 4.8-4.1.2.6H241v-2.2h8.7v2.3l-3.9 3.7v-.7c.9.1 1.6.3 2.2.7s1.1 1 1.4 1.6c.3.7.5 1.4.5 2.2 0 .9-.2 1.7-.7 2.4-.4.7-1 1.3-1.8 1.7s-1.5.6-2.4.6zm8.8-11.5c-.3 0-.5-.1-.7-.2-.2-.1-.4-.3-.5-.5-.1-.2-.2-.5-.2-.7 0-.3.1-.5.2-.7.1-.2.3-.4.5-.5s.5-.2.7-.2c.3 0 .5.1.7.2.2.1.4.3.5.5s.2.5.2.7-.1.5-.2.7-.3.4-.5.5c-.2.2-.4.2-.7.2zm-.5 3l-.6-.6 5.1-5.1.6.6-5.1 5.1zm.5-3.8c.1 0 .2 0 .3-.1s.2-.1.2-.2.1-.2.1-.3 0-.2-.1-.3-.1-.2-.2-.2-.2-.1-.3-.1-.2 0-.3.1-.2.1-.2.2-.1.2-.1.3 0 .2.1.3.1.2.2.2.2.1.3.1zm3.4 3.9c-.3 0-.5-.1-.7-.2-.2-.1-.4-.3-.5-.5-.1-.2-.2-.5-.2-.7 0-.3.1-.5.2-.7.1-.2.3-.4.5-.5.2-.1.5-.2.7-.2.3 0 .5.1.7.2.2.1.4.3.5.5.1.2.2.5.2.7s-.1.5-.2.7c-.1.2-.3.4-.5.5-.2.2-.5.2-.7.2zm-.1-.8c.1 0 .2 0 .3-.1s.2-.1.2-.2.1-.2.1-.3 0-.2-.1-.3-.1-.2-.2-.2-.2-.1-.3-.1-.2 0-.3.1-.2.1-.2.2c-.1.1-.1.2-.1.3s0 .2.1.3c.1.1.1.2.2.2s.2.1.3.1z"/><linearGradient id="SVGID_00000138537556303193448810000001639127898866239624_" gradientUnits="userSpaceOnUse" x1="166.556" y1="475.019" x2="209.336" y2="475.019" gradientTransform="rotate(42.994 158.446 305.203)"><stop offset="0" stop-color="#949eee"/><stop offset="1" stop-color="#4d5dcd"/></linearGradient><circle cx="63" cy="448.4" r="19.7" fill="url(#SVGID_00000138537556303193448810000001639127898866239624_)"/><path class="st1" d="M59.7 456c-.7 0-1.4-.1-2-.4-.6-.3-1.2-.7-1.6-1.2-.5-.5-.8-1.1-1-1.8l2.3-.6c.2.6.5 1 .9 1.3s.9.5 1.5.5c.5 0 .9-.1 1.3-.3.4-.2.7-.5.9-.9.2-.4.3-.8.3-1.3 0-.7-.2-1.3-.7-1.8-.5-.5-1-.7-1.8-.7-.2 0-.4 0-.6.1s-.4.1-.6.2l-1.1-1.9 4.8-4.1.2.6h-6.8v-2.2h8.7v2.3l-3.9 3.7v-.7c.9.1 1.6.3 2.2.7s1.1 1 1.4 1.6c.3.7.5 1.4.5 2.2 0 .9-.2 1.7-.7 2.4-.4.7-1 1.3-1.8 1.7s-1.5.6-2.4.6zm8.8-11.5c-.3 0-.5-.1-.7-.2-.2-.1-.4-.3-.5-.5-.1-.2-.2-.5-.2-.7 0-.3.1-.5.2-.7.1-.2.3-.4.5-.5s.5-.2.7-.2c.3 0 .5.1.7.2.2.1.4.3.5.5s.2.5.2.7-.1.5-.2.7-.3.4-.5.5c-.2.2-.4.2-.7.2zm-.5 3l-.6-.6 5.1-5.1.6.6-5.1 5.1zm.5-3.8c.1 0 .2 0 .3-.1s.2-.1.2-.2.1-.2.1-.3 0-.2-.1-.3-.1-.2-.2-.2-.2-.1-.3-.1-.2 0-.3.1-.2.1-.2.2-.1.2-.1.3 0 .2.1.3.1.2.2.2.2.1.3.1zm3.4 3.9c-.3 0-.5-.1-.7-.2-.2-.1-.4-.3-.5-.5-.1-.2-.2-.5-.2-.7 0-.3.1-.5.2-.7.1-.2.3-.4.5-.5.2-.1.5-.2.7-.2.3 0 .5.1.7.2.2.1.4.3.5.5.1.2.2.5.2.7s-.1.5-.2.7c-.1.2-.3.4-.5.5-.2.1-.5.2-.7.2zm0-.8c.1 0 .2 0 .3-.1s.2-.1.2-.2.1-.2.1-.3 0-.2-.1-.3-.1-.2-.2-.2-.2-.1-.3-.1-.2 0-.3.1-.2.1-.2.2c-.1.1-.1.2-.1.3s0 .2.1.3c.1.1.1.2.2.2s.2.1.3.1z"/><linearGradient id="SVGID_00000173876515065747564040000010010591659088343450_" gradientUnits="userSpaceOnUse" x1="267.115" y1="577.59" x2="305.93" y2="577.59" gradientTransform="rotate(42.994 158.446 305.203)"><stop offset="0" stop-color="#98adf4"/><stop offset="1" stop-color="#41c7f4"/></linearGradient><circle cx="65.3" cy="590.7" r="17.9" fill="url(#SVGID_00000173876515065747564040000010010591659088343450_)"/><path class="st1" d="M61.8 597.4v-10.6l-2.4 1.5v-2.4l2.4-1.5H64v12.9h-2.2zm6.5-10.2c-.2 0-.5-.1-.7-.2-.2-.1-.4-.3-.5-.5-.1-.2-.2-.4-.2-.7 0-.2.1-.5.2-.6.1-.2.3-.4.5-.5.2-.1.4-.2.6-.2.2 0 .5.1.7.2s.4.3.5.5c.1.2.2.4.2.7s-.1.5-.2.7c-.1.2-.3.4-.5.5-.2.1-.4.1-.6.1zm-.5 2.7l-.6-.6 4.6-4.6.6.6-4.6 4.6zm.5-3.4c.1 0 .2 0 .3-.1.1-.1.2-.1.2-.2.1-.1.1-.2.1-.3 0-.1 0-.2-.1-.3-.1-.1-.1-.2-.2-.2-.1-.1-.2-.1-.3-.1-.1 0-.2 0-.3.1-.1 0-.2.1-.2.2-.1.1-.1.2-.1.3 0 .1 0 .2.1.3.1.1.1.2.2.2s.2.1.3.1zm3 3.5c-.2 0-.5-.1-.7-.2-.2-.1-.4-.3-.5-.5-.1-.2-.2-.4-.2-.7 0-.2.1-.5.2-.6.1-.2.3-.4.5-.5.2-.1.4-.2.6-.2.2 0 .5.1.7.2s.4.3.5.5c.1.2.2.4.2.7s-.1.5-.2.7c-.1.2-.3.4-.5.5-.1.1-.3.1-.6.1zm0-.7c.1 0 .2 0 .3-.1.1-.1.2-.1.2-.2.1-.1.1-.2.1-.3 0-.1 0-.2-.1-.3s-.1-.2-.2-.2c-.1-.1-.2-.1-.3-.1-.1 0-.2 0-.3.1-.1 0-.2.1-.2.2s-.1.2-.1.3c0 .1 0 .2.1.3.1.1.1.2.2.2s.2.1.3.1z"/><linearGradient id="SVGID_00000121277514834335866650000014901293738144706197_" gradientUnits="userSpaceOnUse" x1="400.464" y1="453.661" x2="439.278" y2="453.661" gradientTransform="rotate(42.994 158.446 305.203)"><stop offset="0" stop-color="#98adf4"/><stop offset="1" stop-color="#41c7f4"/></linearGradient><circle cx="247.3" cy="591" r="17.9" fill="url(#SVGID_00000121277514834335866650000014901293738144706197_)"/><path class="st1" d="M243.9 597.7v-10.6l-2.4 1.5v-2.4l2.4-1.5h2.2v12.9h-2.2zm6.4-10.2c-.2 0-.5-.1-.7-.2-.2-.1-.4-.3-.5-.5-.1-.2-.2-.4-.2-.7 0-.2.1-.5.2-.6.1-.2.3-.4.5-.5.2-.1.4-.2.6-.2.2 0 .5.1.7.2s.4.3.5.5c.1.2.2.4.2.7s-.1.5-.2.7c-.1.2-.3.4-.5.5-.1.1-.3.1-.6.1zm-.5 2.7l-.6-.6 4.6-4.6.6.6-4.6 4.6zm.5-3.4c.1 0 .2 0 .3-.1.1-.1.2-.1.2-.2.1-.1.1-.2.1-.3 0-.1 0-.2-.1-.3-.1-.1-.1-.2-.2-.2-.1-.1-.2-.1-.3-.1-.1 0-.2 0-.3.1-.1 0-.2.1-.2.2-.1.1-.1.2-.1.3 0 .1 0 .2.1.3.1.1.1.2.2.2s.2.1.3.1zm3.1 3.5c-.2 0-.5-.1-.7-.2-.2-.1-.4-.3-.5-.5-.1-.2-.2-.4-.2-.7 0-.2.1-.5.2-.6.1-.2.3-.4.5-.5.2-.1.4-.2.6-.2.2 0 .5.1.7.2s.4.3.5.5c.1.2.2.4.2.7s-.1.5-.2.7c-.1.2-.3.4-.5.5-.2.1-.4.1-.6.1zm0-.7c.1 0 .2 0 .3-.1.1-.1.2-.1.2-.2.1-.1.1-.2.1-.3 0-.1 0-.2-.1-.3s-.1-.2-.2-.2c-.1-.1-.2-.1-.3-.1-.1 0-.2 0-.3.1-.1 0-.2.1-.2.2s-.1.2-.1.3c0 .1 0 .2.1.3.1.1.1.2.2.2s.2.1.3.1z"/><linearGradient id="SVGID_00000109733473448099020990000008860454816517607067_" gradientUnits="userSpaceOnUse" x1="557.309" y1="306.064" x2="596.123" y2="306.064" gradientTransform="rotate(42.994 158.446 305.203)"><stop offset="0" stop-color="#98adf4"/><stop offset="1" stop-color="#41c7f4"/></linearGradient><circle cx="462.7" cy="590" r="17.9" fill="url(#SVGID_00000109733473448099020990000008860454816517607067_)"/><path class="st1" d="M459.2 596.7v-10.6l-2.4 1.5v-2.4l2.4-1.5h2.2v12.9h-2.2zm6.5-10.2c-.2 0-.5-.1-.7-.2-.2-.1-.4-.3-.5-.5-.1-.2-.2-.4-.2-.7 0-.2.1-.5.2-.6.1-.2.3-.4.5-.5.2-.1.4-.2.6-.2.2 0 .5.1.7.2.2.1.4.3.5.5.1.2.2.4.2.7s-.1.5-.2.7c-.1.2-.3.4-.5.5-.1.1-.4.1-.6.1zm-.5 2.7l-.6-.6 4.6-4.6.6.6-4.6 4.6zm.5-3.4c.1 0 .2 0 .3-.1.1-.1.2-.1.2-.2.1-.1.1-.2.1-.3 0-.1 0-.2-.1-.3s-.1-.2-.2-.2c-.1-.1-.2-.1-.3-.1-.1 0-.2 0-.3.1-.1 0-.2.1-.2.2-.1.1-.1.2-.1.3 0 .1 0 .2.1.3 0 .1.1.2.2.2s.2.1.3.1zm3 3.5c-.2 0-.5-.1-.7-.2-.2-.1-.4-.3-.5-.5-.1-.2-.2-.4-.2-.7 0-.2.1-.5.2-.6.1-.2.3-.4.5-.5.2-.1.4-.2.6-.2.2 0 .5.1.7.2.2.1.4.3.5.5.1.2.2.4.2.7s-.1.5-.2.7c-.1.2-.3.4-.5.5-.1.1-.3.1-.6.1zm0-.7c.1 0 .2 0 .3-.1.1-.1.2-.1.2-.2.1-.1.1-.2.1-.3 0-.1 0-.2-.1-.3 0-.1-.1-.2-.2-.2-.1-.1-.2-.1-.3-.1-.1 0-.2 0-.3.1-.1 0-.2.1-.2.2s-.1.2-.1.3c0 .1 0 .2.1.3.1.1.1.2.2.2s.2.1.3.1z"/></svg>