<svg xmlns="http://www.w3.org/2000/svg" width="71" height="66" viewBox="0 0 71 66">
    <defs>
        <radialGradient id="a" cx="48.886%" cy="48.028%" r="521.556%" fx="48.886%" fy="48.028%" gradientTransform="matrix(.09547 0 0 1 .442 0)">
            <stop offset="0%" stop-color="#006BB1"/>
            <stop offset="100%" stop-color="#0068A8" stop-opacity="0"/>
        </radialGradient>
    </defs>
    <g fill="none" fill-rule="evenodd">
        <path fill="#1A2C46" d="M23.248 12.29C35.71-.03 56.82 6.73 59.94 24.04 66.187 24.955 71 30.397 71 36.953 71 44.147 65.202 50 58.075 50H18.927C8.49 50 0 41.43 0 30.894 0 18.655 11.332 9.477 23.248 12.289z"/>
        <ellipse cx="34.339" cy="63.56" fill="url(#a)" fill-rule="nonzero" opacity=".2" rx="16.339" ry="1.56" style="mix-blend-mode:multiply"/>
        <g fill-rule="nonzero">
            <path fill="#FBDA35" d="M19.807 19.614a9.743 9.743 0 0 1-6.935-2.872A9.743 9.743 0 0 1 10 9.807c0-2.62 1.02-5.082 2.872-6.935A9.743 9.743 0 0 1 19.807 0c2.62 0 5.082 1.02 6.935 2.872a9.743 9.743 0 0 1 2.872 6.935c0 2.62-1.02 5.082-2.872 6.935a9.743 9.743 0 0 1-6.935 2.872z"/>
            <path fill="#F7BA35" d="M26.742 16.742a9.743 9.743 0 0 0 2.872-6.935c0-2.62-1.02-5.082-2.872-6.935A9.743 9.743 0 0 0 19.807 0v19.614c2.62 0 5.082-1.02 6.935-2.872z"/>
            <path fill="#F7BA35" d="M19.807 17.306c-4.135 0-7.499-3.364-7.499-7.5 0-4.134 3.364-7.498 7.499-7.498s7.499 3.364 7.499 7.499-3.364 7.499-7.5 7.499zm0-13.849a6.357 6.357 0 0 0-6.35 6.35 6.357 6.357 0 0 0 6.35 6.35 6.357 6.357 0 0 0 6.35-6.35 6.357 6.357 0 0 0-6.35-6.35z"/>
            <path fill="#FC9602" d="M26.157 9.807a6.357 6.357 0 0 1-6.35 6.35v1.149c4.135 0 7.499-3.364 7.499-7.5 0-4.134-3.364-7.498-7.5-7.498v1.15a6.357 6.357 0 0 1 6.35 6.349z"/>
        </g>
        <g fill-rule="nonzero">
            <path fill="#FBDA35" d="M35.537 54.073a23.383 23.383 0 0 1-16.643-6.893A23.383 23.383 0 0 1 12 30.537a23.383 23.383 0 0 1 6.894-16.643A23.383 23.383 0 0 1 35.537 7a23.383 23.383 0 0 1 16.643 6.894 23.383 23.383 0 0 1 6.893 16.643A23.383 23.383 0 0 1 52.18 47.18a23.383 23.383 0 0 1-16.643 6.893z"/>
            <path fill="#F7BA35" d="M52.18 47.18a23.383 23.383 0 0 0 6.893-16.643 23.383 23.383 0 0 0-6.893-16.643A23.383 23.383 0 0 0 35.537 7v47.073A23.383 23.383 0 0 0 52.18 47.18z"/>
            <path fill="#F7BA35" d="M35.537 48.534c-9.924 0-17.998-8.074-17.998-17.997 0-9.924 8.074-17.998 17.998-17.998 9.923 0 17.997 8.074 17.997 17.998 0 9.923-8.074 17.997-17.997 17.997zm0-33.236c-8.403 0-15.24 6.836-15.24 15.239s6.837 15.239 15.24 15.239 15.239-6.836 15.239-15.24c0-8.402-6.836-15.238-15.24-15.238z"/>
            <path fill="#FC9602" d="M50.776 30.537c0 8.403-6.836 15.239-15.24 15.239v2.758c9.924 0 17.998-8.074 17.998-17.997 0-9.924-8.074-17.998-17.997-17.998v2.759c8.403 0 15.239 6.836 15.239 15.239z"/>
        </g>
    </g>
</svg>
