<svg xmlns="http://www.w3.org/2000/svg" width="71" height="62" viewBox="0 0 71 62">
    <defs>
        <radialGradient id="a" cx="48.886%" cy="48.028%" r="521.556%" fx="48.886%" fy="48.028%" gradientTransform="matrix(.09547 0 0 1 .442 0)">
            <stop offset="0%" stop-color="#006BB1"/>
            <stop offset="100%" stop-color="#0068A8" stop-opacity="0"/>
        </radialGradient>
        <linearGradient id="b" x1="64.993%" x2="50%" y1="50%" y2="100%">
            <stop offset="0%" stop-color="#35CBFD"/>
            <stop offset="100%" stop-color="#189BFA"/>
        </linearGradient>
        <linearGradient id="c" x1="50%" x2="50%" y1="0%" y2="100%">
            <stop offset="0%" stop-color="#35CBFD"/>
            <stop offset="100%" stop-color="#189BFA"/>
        </linearGradient>
    </defs>
    <g fill="none" fill-rule="evenodd">
        <path fill="#1A2C46" d="M23.248 8.29C35.71-4.03 56.82 2.73 59.94 20.04 66.187 20.955 71 26.397 71 32.953 71 40.147 65.202 46 58.075 46H18.927C8.49 46 0 37.43 0 26.894 0 14.655 11.332 5.477 23.248 8.289z"/>
        <ellipse cx="34.339" cy="59.56" fill="url(#a)" fill-rule="nonzero" opacity=".2" rx="16.339" ry="1.56" style="mix-blend-mode:multiply"/>
        <g fill-rule="nonzero">
            <path fill="url(#b)" d="M32 52.738a36.83 36.83 0 0 0 23.925-34.495v-9.31A8.932 8.932 0 0 1 46.993 0H17.007a8.932 8.932 0 0 1-8.932 8.932v9.311A36.83 36.83 0 0 0 32 52.738z" transform="translate(2)"/>
            <path fill="#FBDA35" d="M11.807 48.614a9.743 9.743 0 0 1-6.935-2.872A9.743 9.743 0 0 1 2 38.807c0-2.62 1.02-5.082 2.872-6.935A9.743 9.743 0 0 1 11.807 29c2.62 0 5.082 1.02 6.935 2.872a9.743 9.743 0 0 1 2.872 6.935c0 2.62-1.02 5.082-2.872 6.935a9.743 9.743 0 0 1-6.935 2.872z"/>
            <path fill="#F7BA35" d="M18.742 45.742a9.743 9.743 0 0 0 2.872-6.935c0-2.62-1.02-5.082-2.872-6.935A9.743 9.743 0 0 0 11.807 29v19.614c2.62 0 5.082-1.02 6.935-2.872z"/>
            <path fill="#F7BA35" d="M11.807 46.306c-4.135 0-7.499-3.364-7.499-7.5 0-4.134 3.364-7.498 7.499-7.498s7.499 3.364 7.499 7.499-3.364 7.499-7.5 7.499zm0-13.849a6.357 6.357 0 0 0-6.35 6.35 6.357 6.357 0 0 0 6.35 6.35 6.357 6.357 0 0 0 6.35-6.35 6.357 6.357 0 0 0-6.35-6.35z"/>
            <path fill="#FC9602" d="M18.157 38.807a6.357 6.357 0 0 1-6.35 6.35v1.149c4.135 0 7.499-3.364 7.499-7.5 0-4.134-3.364-7.498-7.5-7.498v1.15a6.357 6.357 0 0 1 6.35 6.349z"/>
            <path fill="url(#c)" d="M32 52.738a36.83 36.83 0 0 0 23.925-34.495v-9.31A8.932 8.932 0 0 1 46.993 0H32v52.738z" transform="translate(2)"/>
            <path fill="#FFF" d="M31.985 32L26 26.146l3.298-3.226 2.687 2.629L39.702 18 43 21.226z"/>
        </g>
    </g>
</svg>
