<svg xmlns="http://www.w3.org/2000/svg" width="71" height="60" viewBox="0 0 71 60">
    <defs>
        <radialGradient id="a" cx="48.886%" cy="48.028%" r="521.556%" fx="48.886%" fy="48.028%" gradientTransform="matrix(.09547 0 0 1 .442 0)">
            <stop offset="0%" stop-color="#006BB1"/>
            <stop offset="100%" stop-color="#0068A8" stop-opacity="0"/>
        </radialGradient>
        <linearGradient id="b" x1="68.213%" x2="50%" y1="50%" y2="100%">
            <stop offset="0%" stop-color="#35CBFD"/>
            <stop offset="100%" stop-color="#189BFA"/>
        </linearGradient>
        <linearGradient id="c" x1="50%" x2="50%" y1="0%" y2="100%">
            <stop offset="0%" stop-color="#35CBFD"/>
            <stop offset="100%" stop-color="#189BFA"/>
        </linearGradient>
        <linearGradient id="d" x1="50%" x2="50%" y1=".23%" y2="100%">
            <stop offset="0%" stop-color="#FBDA35"/>
            <stop offset="100%" stop-color="#F7BA35"/>
        </linearGradient>
        <linearGradient id="e" x1="50%" x2="50%" y1=".23%" y2="100%">
            <stop offset="0%" stop-color="#FBDA35"/>
            <stop offset="100%" stop-color="#F7BA35"/>
        </linearGradient>
    </defs>
    <g fill="none" fill-rule="evenodd">
        <path fill="#1A2C46" d="M23.248 6.29C35.71-6.03 56.82.73 59.94 18.04 66.187 18.955 71 24.397 71 30.953 71 38.147 65.202 44 58.075 44H18.927C8.49 44 0 35.43 0 24.894 0 12.655 11.332 3.477 23.248 6.289z"/>
        <ellipse cx="34.339" cy="57.56" fill="url(#a)" fill-rule="nonzero" opacity=".2" rx="16.339" ry="1.56" style="mix-blend-mode:multiply"/>
        <g fill-rule="nonzero">
            <path fill="url(#b)" d="M24 48a23.844 23.844 0 0 1-16.97-7.03A23.844 23.844 0 0 1 0 24c0-6.41 2.496-12.438 7.03-16.97A23.844 23.844 0 0 1 24 0c6.41 0 12.438 2.496 16.97 7.03A23.844 23.844 0 0 1 48 24c0 6.41-2.496 12.438-7.03 16.97A23.844 23.844 0 0 1 24 48z" transform="translate(10)"/>
            <path fill="url(#c)" d="M40.97 7.03A23.844 23.844 0 0 0 24 0v48c6.41 0 12.438-2.496 16.97-7.03A23.844 23.844 0 0 0 48 24c0-6.41-2.496-12.438-7.03-16.97z" transform="translate(10)"/>
            <path fill="url(#d)" d="M24 40.406c-9.046 0-16.406-7.36-16.406-16.406S14.954 7.594 24 7.594h.563v2.812H24c-7.496 0-13.594 6.098-13.594 13.594 0 7.496 6.098 13.594 13.594 13.594 7.496 0 13.594-6.098 13.594-13.594h2.812c0 9.046-7.36 16.406-16.406 16.406z" transform="translate(10)"/>
            <path fill="url(#e)" d="M24 12.977V5.023L29.009 9z" transform="translate(10)"/>
            <path fill="#FFF" d="M26.594 27.006c0-.441.035-.83.106-1.165.07-.336.185-.638.344-.908.159-.269.364-.51.616-.721.251-.212.562-.42.933-.623.477-.256.854-.46 1.132-.615.279-.155.488-.28.63-.378.14-.097.231-.178.27-.245a.416.416 0 0 0 .06-.218c0-.22-.07-.384-.211-.49-.142-.106-.336-.16-.583-.16-.291 0-.567.076-.828.226-.26.15-.532.393-.814.728l-1.59-1.867c.168-.185.385-.355.65-.51.265-.154.558-.286.88-.397a6.59 6.59 0 0 1 2.139-.35c1.015 0 1.785.209 2.31.628.525.42.788 1.004.788 1.755 0 .273-.035.516-.106.728a2.27 2.27 0 0 1-.715 1.046 5.902 5.902 0 0 1-.53.397c-.22.15-.452.294-.694.43-.243.138-.484.29-.722.458h2.913v2.25h-6.978zM37.783 28.688v-1.642H34.38v-2.251l4.197-5.35H40.3v5.35h1.165v2.25h-1.165v1.642h-2.516zm-.927-3.893h1.218v-1.59l-1.218 1.59z"/>
            <path fill="url(#d)" d="M24 37.594v2.812c9.046 0 16.406-7.36 16.406-16.406h-2.812c0 7.496-6.098 13.594-13.594 13.594z" transform="translate(10)"/>
        </g>
    </g>
</svg>
