<svg xmlns="http://www.w3.org/2000/svg" width="30" height="29" viewBox="0 0 30 29">
    <defs>
        <linearGradient id="a" x1="50%" x2="50%" y1=".23%" y2="100%">
            <stop offset="0%" stop-color="#FBDA35"/>
            <stop offset="100%" stop-color="#F7BA35"/>
        </linearGradient>
    </defs>
    <g fill="none" fill-rule="evenodd">
        <path fill="url(#a)" d="M18.745.048h-7.539C5.038.048.038 5.048.038 11.217v.558c0 6.024 4.77 10.932 10.74 11.158-.158 1.533-.763 3.452-2.662 4.525-.502.284-.315 1.048.262 1.05 2.551.004 6.275-.862 7.812-5.565h2.555c6.168 0 11.169-5 11.169-11.168v-.558c0-6.169-5-11.169-11.169-11.169z"/>
        <path fill="#FFF" fill-rule="nonzero" d="M18.745 22.309a.38.38 0 1 1 0-.762c5.389 0 9.772-4.383 9.772-9.772a.38.38 0 1 1 .762 0c0 5.808-4.725 10.534-10.534 10.534z" opacity=".3"/>
        <path fill="#090F18" fill-rule="nonzero" d="M15.523 1.883c3.614 0 6.068 2.131 6.068 5.637 0 3.538-2.334 5.232-5.569 5.45a.837.837 0 0 0-.78.793l-.03.568a.838.838 0 0 1-.836.795h-1.063a.838.838 0 0 1-.837-.811l-.081-2.56a.838.838 0 0 1 .837-.863h.025c3.048 0 5.394-.54 5.394-3.372 0-1.888-1.16-3.047-3.101-3.047-1.674 0-2.812.824-3.072 2.293a.829.829 0 0 1-.821.673h-1.23a.833.833 0 0 1-.83-.94c.39-2.755 2.621-4.616 5.926-4.616zm-1.726 19.203c-1.492 0-2.542-1.57-1.628-3.188a.884.884 0 0 1 .267-.292c1.608-1.11 3.303-.038 3.303 1.512 0 1.105-.864 1.968-1.942 1.968z"/>
        <circle cx="7.791" cy="16.975" r="1.142" fill="#F9BB32" fill-rule="nonzero"/>
        <circle cx="6.179" cy="14.228" r="1.142" fill="#F9BB32" fill-rule="nonzero"/>
    </g>
</svg>
