<svg xmlns="http://www.w3.org/2000/svg" width="50" height="46" viewBox="0 0 50 46">
    <defs>
        <linearGradient id="a" x1="50%" x2="50%" y1="0%" y2="100%">
            <stop offset="0%" stop-color="#35CBFD"/>
            <stop offset="100%" stop-color="#189BFA"/>
        </linearGradient>
        <linearGradient id="b" x1="50%" x2="50%" y1=".23%" y2="100%">
            <stop offset="0%" stop-color="#FBDA35"/>
            <stop offset="100%" stop-color="#F7BA35"/>
        </linearGradient>
    </defs>
    <g fill="none" fill-rule="nonzero">
        <path fill="url(#a)" d="M39 0H14a4 4 0 0 0-4 4v1H4a4 4 0 0 0-4 4v5a4 4 0 0 0 4 4h6v24c0 2.21 1.79 4 4 4h32a4 4 0 0 0 4-4V10L40 0h-1zm-5 9zm0 5z"/>
        <path fill="url(#b)" d="M34 9v5a4 4 0 0 1-4 4H4a4 4 0 0 1-4-4V9a4 4 0 0 1 4-4h26a4 4 0 0 1 4 4z"/>
        <path fill="#289FE4" d="M40 0h-1v7a4 4 0 0 0 4 4h7v-1L40 0z"/>
        <g fill="#FFF">
            <path d="M3 13h2v2H3zM8.442 15.12c1.766 0 2.395-1.334 2.395-2.582V8.021h-2v4.372c0 .902-.318.978-.645.978-.278 0-.569-.226-.761-.589l-.058-.109-1.38 1.036.047.081c.527.907 1.29 1.33 2.402 1.33zM14.808 8.021H12.08v6.974h2v-2.144h.728c1.297 0 2.812-.649 2.812-2.478-.001-1.539-.974-2.352-2.812-2.352zm-.728 1.625h.645c.655 0 .935.218.935.728 0 .566-.314.853-.935.853h-.645V9.646zM21.755 9.646c.507 0 .776.152 1.097.432l.079.069 1.112-1.255-.07-.07a3.144 3.144 0 0 0-2.238-.926c-2.071 0-3.519 1.507-3.519 3.664 0 2.163 1.365 3.56 3.477 3.56a3.903 3.903 0 0 0 2.398-.857l.038-.031v-3.38h-2.791v1.667h.999v.771c-.103.05-.259.081-.415.081-1.12 0-1.664-.612-1.664-1.873 0-1.108.601-1.852 1.497-1.852z"/>
        </g>
        <path fill="#FFF" d="M35.906 31.53a.745.745 0 0 0-.68-.437H32.24v-6.346a.747.747 0 0 0-.747-.747h-2.986a.747.747 0 0 0-.747.747v6.346h-2.987a.747.747 0 0 0-.561 1.238l5.227 5.974a.744.744 0 0 0 1.122 0l5.227-5.974a.744.744 0 0 0 .118-.8z"/>
    </g>
</svg>
