<svg xmlns="http://www.w3.org/2000/svg" width="30" height="28" viewBox="0 0 30 28">
    <defs>
        <linearGradient id="a" x1="50%" x2="50%" y1=".23%" y2="100%">
            <stop offset="0%" stop-color="#FBDA35"/>
            <stop offset="100%" stop-color="#F7BA35"/>
        </linearGradient>
        <linearGradient id="b" x1="50%" x2="50%" y1=".23%" y2="100%">
            <stop offset="0%" stop-color="#FBDA35"/>
            <stop offset="100%" stop-color="#F7BA35"/>
        </linearGradient>
    </defs>
    <g fill="none" fill-rule="nonzero">
        <path fill="url(#a)" d="M23.4 0h-15A2.4 2.4 0 0 0 6 2.4V3H2.4A2.4 2.4 0 0 0 0 5.4v3a2.4 2.4 0 0 0 2.4 2.4H6v14.4a2.4 2.4 0 0 0 2.4 2.4h19.2a2.4 2.4 0 0 0 2.4-2.4V6l-6-6h-.6zm-3 5.4zm0 3z"/>
        <path fill="url(#b)" d="M20.4 5.4v3a2.4 2.4 0 0 1-2.4 2.4H2.4A2.4 2.4 0 0 1 0 8.4v-3A2.4 2.4 0 0 1 2.4 3H18a2.4 2.4 0 0 1 2.4 2.4z"/>
        <path fill="#E3C113" d="M24 0h-.6v4.2a2.4 2.4 0 0 0 2.4 2.4H30V6l-6-6z"/>
        <g fill="#FFF">
            <path d="M1.8 7.8H3V9H1.8zM5.64 4.813H4.002v4.185h1.2V7.711h.436c.778 0 1.687-.39 1.687-1.487 0-.924-.583-1.411-1.687-1.411zm-.437.975h.387c.394 0 .562.13.562.436 0 .34-.19.512-.562.512h-.387v-.948zM11.27 6.886c0-1.356-.743-2.073-2.149-2.073H7.86v4.185h1.324c1.326 0 2.086-.77 2.086-2.112zM9.06 8.01V5.801c.512 0 .985.132.985 1.085 0 .996-.527 1.123-.986 1.123zM14.639 5.838V4.813h-2.773v4.185h1.2V7.512h1.348V6.486h-1.348v-.648z"/>
        </g>
        <g fill="#090F18">
            <path d="M20.531 16.428a.32.32 0 0 0-.291-.188h-1.28v-2.72a.32.32 0 0 0-.32-.32h-1.28a.32.32 0 0 0-.32.32v2.72h-1.28a.32.32 0 0 0-.24.53l2.24 2.56a.319.319 0 0 0 .48 0l2.24-2.56a.319.319 0 0 0 .051-.342z"/>
            <path d="M21.52 18.8v1.92h-7.04V18.8H13.2v2.56c0 .354.287.64.64.64h8.32a.64.64 0 0 0 .64-.64V18.8h-1.28z"/>
        </g>
    </g>
</svg>
