<svg xmlns="http://www.w3.org/2000/svg" width="50" height="46" viewBox="0 0 50 46">
    <defs>
        <linearGradient id="a" x1="50%" x2="50%" y1="0%" y2="100%">
            <stop offset="0%" stop-color="#35CBFD"/>
            <stop offset="100%" stop-color="#189BFA"/>
        </linearGradient>
        <linearGradient id="b" x1="50%" x2="50%" y1=".23%" y2="100%">
            <stop offset="0%" stop-color="#FBDA35"/>
            <stop offset="100%" stop-color="#F7BA35"/>
        </linearGradient>
    </defs>
    <g fill="none" fill-rule="nonzero">
        <path fill="url(#a)" d="M39 0H14a4 4 0 0 0-4 4v1H4a4 4 0 0 0-4 4v5a4 4 0 0 0 4 4h6v24c0 2.21 1.79 4 4 4h32a4 4 0 0 0 4-4V10L40 0h-1zm-5 9zm0 5z"/>
        <path fill="#FFF" d="M35.88 31.53a.745.745 0 0 0-.68-.437h-2.987v-6.346a.747.747 0 0 0-.746-.747H28.48a.747.747 0 0 0-.747.747v6.346h-2.986a.747.747 0 0 0-.562 1.238l5.227 5.974a.744.744 0 0 0 1.123 0l5.227-5.974a.744.744 0 0 0 .118-.8z"/>
        <path fill="url(#b)" d="M34 9v5a4 4 0 0 1-4 4H4a4 4 0 0 1-4-4V9a4 4 0 0 1 4-4h26a4 4 0 0 1 4 4z"/>
        <path fill="#289FE4" d="M40 0h-1v7a4 4 0 0 0 4 4h7v-1L40 0z"/>
        <g fill="#FFF">
            <path d="M3 13h2v2H3zM9.399 8.021H6.671v6.976h2v-2.145h.728c1.296 0 2.811-.649 2.811-2.479 0-1.539-.972-2.352-2.811-2.352zm-.727 1.625h.645c.656 0 .936.217.936.727 0 .566-.315.853-.936.853h-.645v-1.58zM18.783 11.477c0-2.261-1.238-3.456-3.581-3.456H13.1v6.976h2.207c2.209-.001 3.476-1.284 3.476-3.52zm-3.684 1.872V9.668c.854 0 1.643.22 1.643 1.809 0 1.659-.878 1.872-1.643 1.872zM24.398 9.73V8.021h-4.622v6.975h2V12.52h2.248v-1.71h-2.248V9.73z"/>
        </g>
    </g>
</svg>
