<svg xmlns="http://www.w3.org/2000/svg" width="71" height="60" viewBox="0 0 71 60">
    <defs>
        <radialGradient id="a" cx="48.886%" cy="48.028%" r="521.556%" fx="48.886%" fy="48.028%" gradientTransform="matrix(.09547 0 0 1 .442 0)">
            <stop offset="0%" stop-color="#006BB1"/>
            <stop offset="100%" stop-color="#0068A8" stop-opacity="0"/>
        </radialGradient>
        <linearGradient id="b" x1="50%" x2="50%" y1="0%" y2="100%">
            <stop offset="0%" stop-color="#35CBFD"/>
            <stop offset="100%" stop-color="#189BFA"/>
        </linearGradient>
    </defs>
    <g fill="none" fill-rule="evenodd">
        <path fill="#1A2C46" d="M23.248 6.29C35.71-6.03 56.82.73 59.94 18.04 66.187 18.955 71 24.397 71 30.953 71 38.147 65.202 44 58.075 44H18.927C8.49 44 0 35.43 0 24.894 0 12.655 11.332 3.477 23.248 6.289z"/>
        <ellipse cx="34.339" cy="57.56" fill="url(#a)" fill-rule="nonzero" opacity=".2" rx="16.339" ry="1.56" style="mix-blend-mode:multiply"/>
        <g fill-rule="nonzero">
            <path fill="url(#b)" d="M50 11.603L37.713.095 25.426 11.603h5.601v38.302h13.371V11.603z" transform="translate(10 1)"/>
            <path fill="#FBDA35" d="M28.9 51.801a18.778 18.778 0 0 1-13.364-5.535A18.778 18.778 0 0 1 10 32.9c0-5.049 1.966-9.795 5.536-13.365A18.778 18.778 0 0 1 28.9 14c5.048 0 9.795 1.966 13.365 5.536A18.778 18.778 0 0 1 47.8 32.9c0 5.048-1.966 9.795-5.535 13.365A18.778 18.778 0 0 1 28.9 51.8z"/>
            <path fill="#F7BA35" d="M42.266 46.266A18.778 18.778 0 0 0 47.8 32.9c0-5.049-1.966-9.795-5.535-13.365A18.778 18.778 0 0 0 28.9 14v37.801c5.048 0 9.795-1.966 13.365-5.535z"/>
            <path fill="#F7BA35" d="M28.9 47.353c-7.968 0-14.452-6.483-14.452-14.452 0-7.97 6.484-14.453 14.453-14.453 7.969 0 14.452 6.484 14.452 14.453 0 7.969-6.483 14.452-14.452 14.452zm0-26.69c-6.747 0-12.237 5.49-12.237 12.238 0 6.748 5.49 12.237 12.238 12.237 6.748 0 12.237-5.49 12.237-12.237 0-6.748-5.49-12.238-12.237-12.238z"/>
            <path fill="#FC9602" d="M41.138 32.9c0 6.749-5.49 12.238-12.237 12.238v2.215c7.969 0 14.452-6.483 14.452-14.452 0-7.97-6.483-14.453-14.452-14.453v2.215c6.748 0 12.237 5.49 12.237 12.238z"/>
        </g>
    </g>
</svg>
