<svg xmlns="http://www.w3.org/2000/svg" width="102" height="80" viewBox="0 0 102 80">
    <defs>
        <radialGradient id="a" cx="48.886%" cy="48.028%" r="521.556%" fx="48.886%" fy="48.028%" gradientTransform="matrix(.09547 0 0 1 .442 0)">
            <stop offset="0%" stop-color="#006BB1"/>
            <stop offset="100%" stop-color="#0068A8" stop-opacity="0"/>
        </radialGradient>
        <linearGradient id="b" x1="50%" x2="50%" y1="0%" y2="100%">
            <stop offset="0%" stop-color="#35CBFD"/>
            <stop offset="100%" stop-color="#189BFA"/>
        </linearGradient>
        <linearGradient id="c" x1="45.772%" x2="59.297%" y1="29.249%" y2="95.35%">
            <stop offset="0%" stop-color="#35CBFD"/>
            <stop offset="100%" stop-color="#189BFA"/>
        </linearGradient>
    </defs>
    <g fill="none" fill-rule="evenodd">
        <g fill-rule="nonzero">
            <path fill="#FBDA35" d="M54.205 59.41a19.08 19.08 0 0 1-13.58-5.625A19.08 19.08 0 0 1 35 40.205a19.08 19.08 0 0 1 5.625-13.58A19.08 19.08 0 0 1 54.205 21a19.08 19.08 0 0 1 13.58 5.625 19.08 19.08 0 0 1 5.626 13.58 19.08 19.08 0 0 1-5.626 13.58 19.08 19.08 0 0 1-13.58 5.626z"/>
            <path fill="#F7BA35" d="M67.785 53.785a19.08 19.08 0 0 0 5.626-13.58 19.08 19.08 0 0 0-5.626-13.58A19.08 19.08 0 0 0 54.205 21v38.41a19.08 19.08 0 0 0 13.58-5.625z"/>
            <path fill="#F7BA35" d="M54.205 54.89c-8.097 0-14.685-6.587-14.685-14.685 0-8.097 6.588-14.685 14.685-14.685 8.098 0 14.686 6.588 14.686 14.685 0 8.098-6.588 14.686-14.686 14.686zm0-27.12c-6.856 0-12.434 5.579-12.434 12.435 0 6.857 5.578 12.435 12.434 12.435 6.857 0 12.435-5.578 12.435-12.435 0-6.856-5.578-12.434-12.435-12.434z"/>
            <path fill="#FC9602" d="M66.64 40.205c0 6.857-5.578 12.435-12.435 12.435v2.25c8.098 0 14.686-6.587 14.686-14.685 0-8.097-6.588-14.685-14.686-14.685v2.25c6.857 0 12.435 5.579 12.435 12.435z"/>
        </g>
        <g fill-rule="nonzero">
            <path fill="#FBDA35" d="M86.057 55.114a14.959 14.959 0 0 1-10.647-4.41A14.959 14.959 0 0 1 71 40.057c0-4.022 1.566-7.803 4.41-10.647A14.959 14.959 0 0 1 86.057 25c4.022 0 7.803 1.566 10.647 4.41a14.959 14.959 0 0 1 4.41 10.647c0 4.022-1.566 7.803-4.41 10.647a14.959 14.959 0 0 1-10.647 4.41z"/>
            <path fill="#F7BA35" d="M96.704 50.704a14.959 14.959 0 0 0 4.41-10.647c0-4.022-1.566-7.803-4.41-10.647A14.959 14.959 0 0 0 86.057 25v30.114c4.022 0 7.803-1.566 10.647-4.41z"/>
            <path fill="#F7BA35" d="M86.057 51.57c-6.349 0-11.513-5.165-11.513-11.513 0-6.349 5.164-11.513 11.513-11.513 6.348 0 11.513 5.164 11.513 11.513 0 6.348-5.165 11.513-11.513 11.513zm0-21.262c-5.376 0-9.749 4.373-9.749 9.749 0 5.375 4.373 9.749 9.749 9.749 5.375 0 9.749-4.374 9.749-9.75 0-5.375-4.374-9.748-9.75-9.748z"/>
            <path fill="#FC9602" d="M95.806 40.057c0 5.375-4.374 9.749-9.75 9.749v1.764c6.35 0 11.514-5.165 11.514-11.513 0-6.349-5.165-11.513-11.513-11.513v1.764c5.375 0 9.749 4.373 9.749 9.749z"/>
        </g>
        <g fill-rule="nonzero">
            <path fill="#FBDA35" d="M75.895 63.79a11.817 11.817 0 0 1-8.411-3.484A11.817 11.817 0 0 1 64 51.895c0-3.177 1.237-6.164 3.484-8.411A11.817 11.817 0 0 1 75.895 40c3.177 0 6.164 1.237 8.411 3.484a11.817 11.817 0 0 1 3.484 8.411c0 3.177-1.237 6.164-3.484 8.411a11.817 11.817 0 0 1-8.411 3.484z"/>
            <path fill="#F7BA35" d="M84.306 60.306a11.817 11.817 0 0 0 3.484-8.411c0-3.177-1.237-6.164-3.484-8.411A11.817 11.817 0 0 0 75.895 40v23.79c3.177 0 6.164-1.237 8.411-3.484z"/>
            <path fill="#F7BA35" d="M75.895 60.99c-5.015 0-9.096-4.08-9.096-9.095 0-5.015 4.08-9.096 9.096-9.096 5.015 0 9.095 4.08 9.095 9.096 0 5.015-4.08 9.095-9.095 9.095zm0-16.797c-4.247 0-7.702 3.455-7.702 7.702s3.455 7.701 7.702 7.701 7.701-3.454 7.701-7.701-3.454-7.702-7.701-7.702z"/>
            <path fill="#FC9602" d="M83.596 51.895c0 4.247-3.454 7.701-7.701 7.701v1.394c5.015 0 9.095-4.08 9.095-9.095 0-5.015-4.08-9.096-9.095-9.096v1.394c4.247 0 7.701 3.455 7.701 7.702z"/>
        </g>
        <g transform="translate(-1)">
            <ellipse cx="23.208" cy="78.04" fill="url(#a)" fill-rule="nonzero" opacity=".2" rx="18.763" ry="1.791" style="mix-blend-mode:multiply"/>
            <path fill="url(#b)" fill-rule="nonzero" d="M42.62 38.68l-6.735-2.649H11.979l-6.735 2.65a6.52 6.52 0 0 0-4.127 6.328l.818 20.414a2.173 2.173 0 0 0 2.171 2.086h39.652c1.166 0 2.125-.92 2.171-2.086l.818-20.414a6.52 6.52 0 0 0-4.128-6.328z"/>
            <path fill="#1A2C46" d="M22.345 43.603l-1.39 23.906h5.954l-1.39-23.906z"/>
            <path fill="#1A2C46" d="M24.858 44.69h-1.852a1.248 1.248 0 0 1-1.247-1.247v-3.1h4.346v3.1c0 .689-.558 1.247-1.247 1.247z"/>
            <path fill="#EDEBED" fill-rule="nonzero" d="M16.326 27.304h15.213v13.04H16.326z"/>
            <path fill="#BCBCBC" fill-rule="nonzero" d="M16.326 31.362a12.986 12.986 0 0 0 7.606 2.462c2.82 0 5.451-.91 7.606-2.462v-4.058H16.326v4.058z"/>
            <path fill="#1A2C46" d="M23.932.173c-5.425.293-8.512 3.26-8.512 3.26s-4.528 0-4.528 5.433c0 4.346 1.087 8.659 1.087 8.659H36.97C39.144 5.572 33.983-.37 23.931.173z"/>
            <path fill="#090F18" fill-rule="nonzero" d="M17.412 13.04C13.42 8.05 15.42 3.433 15.42 3.433s-4.528 0-4.528 5.433c0 4.346 1.087 8.658 1.087 8.658h5.433V13.04z"/>
            <path fill="#EDEBED" fill-rule="nonzero" d="M35.885 16.438h-1.087l-1.432-2.613a1.093 1.093 0 0 0-1.16-.54c-7.156 1.31-11.859-.354-13.641-1.186a1.069 1.069 0 0 0-1.323.344 22.95 22.95 0 0 1-3.04 3.416 2.177 2.177 0 0 1-1.478.58h-.782-.001c-.12.002-.241.014-.365.038-1.058.204-1.77 1.216-1.77 2.293v.787c0 1.04.665 2.02 1.677 2.256.228.054.45.068.663.052.54-.044 1.012.35 1.109.883.924 5.063 5.347 8.903 10.677 8.903 5.33 0 9.753-3.84 10.677-8.903a1.056 1.056 0 0 1 1.052-.877h.224c1.2 0 2.173-.973 2.173-2.173V18.61c0-1.2-.973-2.173-2.173-2.173z"/>
            <path fill="#DADADA" fill-rule="nonzero" d="M17.412 20.784v-8.507c-.059.052-.122.1-.17.166a22.95 22.95 0 0 1-3.04 3.416 2.177 2.177 0 0 1-1.478.58h-.782-.001c-.12.002-.241.014-.365.038-1.058.204-1.77 1.216-1.77 2.293v.787c0 1.04.665 2.02 1.677 2.256.228.054.45.068.663.052.54-.044 1.012.35 1.109.883.924 5.063 5.347 8.903 10.677 8.903.739 0 1.458-.08 2.155-.222-4.951-1.014-8.675-5.394-8.675-10.645z"/>
            <g fill-rule="nonzero">
                <path fill="#17AEEA" d="M23.932 40.378l-7.928-6.937a1.087 1.087 0 0 0-1.484.05l-2.54 2.54 5.048 7.574a2.173 2.173 0 0 0 3.345.331l3.559-3.558z"/>
                <path fill="#17AEEA" d="M23.932 40.378l7.928-6.937a1.087 1.087 0 0 1 1.483.05l2.541 2.54-5.049 7.574a2.173 2.173 0 0 1-3.345.331l-3.558-3.558z"/>
                <path fill="url(#c)" d="M40.182 13.006l4.728-4.727a6.499 6.499 0 0 1 .965 3.661l-.817 20.414a2.173 2.173 0 0 1-2.172 2.087h-4.613V17.616a6.52 6.52 0 0 1 1.91-4.61z" transform="translate(.872 33.068)"/>
                <path fill="url(#c)" d="M2.182 13.006L6.91 8.279a6.499 6.499 0 0 1 .965 3.661l-.817 20.414a2.173 2.173 0 0 1-2.172 2.087H.273V17.616a6.52 6.52 0 0 1 1.91-4.61z" transform="matrix(-1 0 0 1 9.025 33.068)"/>
                <path fill="#FFF" d="M13.227 53.383h5.11c.69 0 1.248-.559 1.248-1.248v-.764c0-.69-.558-1.248-1.247-1.248h-5.111c-.69 0-1.248.559-1.248 1.248v.764c0 .69.559 1.248 1.248 1.248z"/>
            </g>
        </g>
    </g>
</svg>
