<svg xmlns="http://www.w3.org/2000/svg" width="71" height="61" viewBox="0 0 71 61">
    <defs>
        <radialGradient id="a" cx="48.886%" cy="48.028%" r="521.556%" fx="48.886%" fy="48.028%" gradientTransform="matrix(.09547 0 0 1 .442 0)">
            <stop offset="0%" stop-color="#006BB1"/>
            <stop offset="100%" stop-color="#0068A8" stop-opacity="0"/>
        </radialGradient>
        <linearGradient id="b" x1="50%" x2="50%" y1="0%" y2="100%">
            <stop offset="0%" stop-color="#35CBFD"/>
            <stop offset="100%" stop-color="#189BFA"/>
        </linearGradient>
        <linearGradient id="c" x1="80.594%" x2="50%" y1="50%" y2="100%">
            <stop offset="0%" stop-color="#35CBFD"/>
            <stop offset="100%" stop-color="#189BFA"/>
        </linearGradient>
    </defs>
    <g fill="none" fill-rule="evenodd">
        <path fill="#1A2C46" d="M23.248 7.29C35.71-5.03 56.82 1.73 59.94 19.04 66.187 19.955 71 25.397 71 31.953 71 39.147 65.202 45 58.075 45H18.927C8.49 45 0 36.43 0 25.894 0 13.655 11.332 4.477 23.248 7.289z"/>
        <ellipse cx="41.339" cy="58.56" fill="url(#a)" fill-rule="nonzero" opacity=".2" rx="16.339" ry="1.56" style="mix-blend-mode:multiply"/>
        <g fill-rule="nonzero">
            <path fill="#FBDA35" d="M55.953 31.906a8.895 8.895 0 0 1-6.33-2.622A8.895 8.895 0 0 1 47 22.953c0-2.391.931-4.64 2.622-6.33A8.895 8.895 0 0 1 55.953 14c2.391 0 4.64.931 6.33 2.622a8.895 8.895 0 0 1 2.623 6.331c0 2.391-.931 4.64-2.622 6.33a8.895 8.895 0 0 1-6.331 2.623z"/>
            <path fill="#F7BA35" d="M62.284 29.284a8.895 8.895 0 0 0 2.622-6.331c0-2.391-.931-4.64-2.622-6.33A8.895 8.895 0 0 0 55.953 14v17.906c2.391 0 4.64-.931 6.33-2.622z"/>
            <path fill="#F7BA35" d="M55.953 29.799a6.854 6.854 0 0 1-6.846-6.846 6.854 6.854 0 0 1 6.846-6.846 6.854 6.854 0 0 1 6.846 6.846 6.854 6.854 0 0 1-6.846 6.846zm0-12.643a5.803 5.803 0 0 0-5.797 5.797c0 3.196 2.6 5.797 5.797 5.797 3.196 0 5.797-2.6 5.797-5.797 0-3.196-2.6-5.797-5.797-5.797z"/>
            <path fill="#FC9602" d="M61.75 22.953c0 3.196-2.6 5.797-5.797 5.797v1.049a6.854 6.854 0 0 0 6.846-6.846 6.854 6.854 0 0 0-6.846-6.846v1.05c3.196 0 5.797 2.6 5.797 5.796z"/>
            <g>
                <path fill="#FBDA35" d="M40.953 17.906a8.895 8.895 0 0 1-6.33-2.622A8.895 8.895 0 0 1 32 8.953c0-2.391.931-4.64 2.622-6.33A8.895 8.895 0 0 1 40.953 0c2.391 0 4.64.931 6.33 2.622a8.895 8.895 0 0 1 2.623 6.331c0 2.391-.931 4.64-2.622 6.33a8.895 8.895 0 0 1-6.331 2.623z"/>
                <path fill="#F7BA35" d="M47.284 15.284a8.895 8.895 0 0 0 2.622-6.331c0-2.391-.931-4.64-2.622-6.33A8.895 8.895 0 0 0 40.953 0v17.906c2.391 0 4.64-.931 6.33-2.622z"/>
                <path fill="#F7BA35" d="M40.953 15.799a6.854 6.854 0 0 1-6.846-6.846 6.854 6.854 0 0 1 6.846-6.846 6.854 6.854 0 0 1 6.846 6.846 6.854 6.854 0 0 1-6.846 6.846zm0-12.643a5.803 5.803 0 0 0-5.797 5.797c0 3.196 2.6 5.797 5.797 5.797 3.196 0 5.797-2.6 5.797-5.797 0-3.196-2.6-5.797-5.797-5.797z"/>
                <path fill="#FC9602" d="M46.75 8.953c0 3.196-2.6 5.797-5.797 5.797v1.049a6.854 6.854 0 0 0 6.846-6.846 6.854 6.854 0 0 0-6.846-6.846v1.05c3.196 0 5.797 2.6 5.797 5.796z"/>
            </g>
            <path fill="url(#b)" d="M56.693 38.584a7.742 7.742 0 0 0-8.847-4.07l-7.659 1.916c-.34-2.962-2.1-4.7-5.601-5.573l-21.307-4.735a1.184 1.184 0 0 0-1.406.869L8.32 41.196a1.184 1.184 0 0 0 .775 1.42l17.71 5.893a13.57 13.57 0 0 0 4.906 1.183c2.4 0 5.208-1.049 11.392-3.582l13.02-5.918a1.184 1.184 0 0 0 .569-1.608z" transform="translate(12)"/>
            <path fill="url(#c)" d="M14.205 25.012a1.184 1.184 0 0 0-.365-.964c-2.029-1.922-10.142-2.545-12.58-2.69-.325-.015-.642.1-.881.32-.24.224-.378.536-.379.865v21.306c0 .654.53 1.184 1.184 1.184h7.102c.513 0 .968-.329 1.127-.817a123.98 123.98 0 0 0 4.792-19.204z" transform="translate(12)"/>
            <path fill="#0682DA" d="M46.15 40.12a8.264 8.264 0 0 1-1.62-.158L35.42 38.14a1.184 1.184 0 1 1 .473-2.32l9.11 1.823c.862.17 1.751.15 2.604-.061l4.612-1.153a2.367 2.367 0 0 1-1.724 2.869l-2.317.58a8.244 8.244 0 0 1-2.027.244z"/>
        </g>
    </g>
</svg>
