<svg xmlns="http://www.w3.org/2000/svg" width="71" height="61" viewBox="0 0 71 61">
    <defs>
        <radialGradient id="a" cx="48.886%" cy="48.028%" r="521.556%" fx="48.886%" fy="48.028%" gradientTransform="matrix(.09547 0 0 1 .442 0)">
            <stop offset="0%" stop-color="#006BB1"/>
            <stop offset="100%" stop-color="#0068A8" stop-opacity="0"/>
        </radialGradient>
        <linearGradient id="b" x1="50%" x2="50%" y1="0%" y2="100%">
            <stop offset="0%" stop-color="#35CBFD"/>
            <stop offset="100%" stop-color="#189BFA"/>
        </linearGradient>
    </defs>
    <g fill="none" fill-rule="evenodd">
        <path fill="#1A2C46" d="M23.248 7.29C35.71-5.03 56.82 1.73 59.94 19.04 66.187 19.955 71 25.397 71 31.953 71 39.147 65.202 45 58.075 45H18.927C8.49 45 0 36.43 0 25.894 0 13.655 11.332 4.477 23.248 7.289z"/>
        <ellipse cx="35.339" cy="58.56" fill="url(#a)" fill-rule="nonzero" opacity=".2" rx="16.339" ry="1.56" style="mix-blend-mode:multiply"/>
        <g fill-rule="nonzero">
            <path fill="url(#b)" d="M38.982 44.318c-.452 0-.91-.114-1.329-.354L6.556 26.148 37.653 8.333a2.675 2.675 0 0 1 3.639.967 2.632 2.632 0 0 1-.975 3.61L17.21 26.149l23.107 13.238a2.632 2.632 0 0 1 .975 3.61 2.667 2.667 0 0 1-2.31 1.322z" transform="translate(9)"/>
            <path fill="#FBDA35" d="M51.953 17.906a8.895 8.895 0 0 1-6.33-2.622A8.895 8.895 0 0 1 43 8.953c0-2.391.931-4.64 2.622-6.33A8.895 8.895 0 0 1 51.953 0c2.391 0 4.64.931 6.33 2.622a8.895 8.895 0 0 1 2.623 6.331c0 2.391-.931 4.64-2.622 6.33a8.895 8.895 0 0 1-6.331 2.623z"/>
            <path fill="#F7BA35" d="M58.284 15.284a8.895 8.895 0 0 0 2.622-6.331c0-2.391-.931-4.64-2.622-6.33A8.895 8.895 0 0 0 51.953 0v17.906c2.391 0 4.64-.931 6.33-2.622z"/>
            <path fill="#F7BA35" d="M51.953 15.799a6.854 6.854 0 0 1-6.846-6.846 6.854 6.854 0 0 1 6.846-6.846 6.854 6.854 0 0 1 6.846 6.846 6.854 6.854 0 0 1-6.846 6.846zm0-12.643a5.803 5.803 0 0 0-5.797 5.797c0 3.196 2.6 5.797 5.797 5.797 3.196 0 5.797-2.6 5.797-5.797 0-3.196-2.6-5.797-5.797-5.797z"/>
            <path fill="#FC9602" d="M57.75 8.953c0 3.196-2.6 5.797-5.797 5.797v1.049a6.854 6.854 0 0 0 6.846-6.846 6.854 6.854 0 0 0-6.846-6.846v1.05c3.196 0 5.797 2.6 5.797 5.796z"/>
            <g>
                <path fill="#FBDA35" d="M51.953 52.906a8.895 8.895 0 0 1-6.33-2.622A8.895 8.895 0 0 1 43 43.953c0-2.391.931-4.64 2.622-6.33A8.895 8.895 0 0 1 51.953 35c2.391 0 4.64.931 6.33 2.622a8.895 8.895 0 0 1 2.623 6.331c0 2.391-.931 4.64-2.622 6.33a8.895 8.895 0 0 1-6.331 2.623z"/>
                <path fill="#F7BA35" d="M58.284 50.284a8.895 8.895 0 0 0 2.622-6.331c0-2.391-.931-4.64-2.622-6.33A8.895 8.895 0 0 0 51.953 35v17.906c2.391 0 4.64-.931 6.33-2.622z"/>
                <path fill="#F7BA35" d="M51.953 50.799a6.854 6.854 0 0 1-6.846-6.846 6.854 6.854 0 0 1 6.846-6.846 6.854 6.854 0 0 1 6.846 6.846 6.854 6.854 0 0 1-6.846 6.846zm0-12.643a5.803 5.803 0 0 0-5.797 5.797c0 3.196 2.6 5.797 5.797 5.797 3.196 0 5.797-2.6 5.797-5.797 0-3.196-2.6-5.797-5.797-5.797z"/>
                <path fill="#FC9602" d="M57.75 43.953c0 3.196-2.6 5.797-5.797 5.797v1.049a6.854 6.854 0 0 0 6.846-6.846 6.854 6.854 0 0 0-6.846-6.846v1.05c3.196 0 5.797 2.6 5.797 5.796z"/>
            </g>
            <g>
                <path fill="#FBDA35" d="M17.953 34.906a8.895 8.895 0 0 1-6.33-2.622A8.895 8.895 0 0 1 9 25.953c0-2.391.931-4.64 2.622-6.33A8.895 8.895 0 0 1 17.953 17c2.391 0 4.64.931 6.33 2.622a8.895 8.895 0 0 1 2.623 6.331c0 2.391-.931 4.64-2.622 6.33a8.895 8.895 0 0 1-6.331 2.623z"/>
                <path fill="#F7BA35" d="M24.284 32.284a8.895 8.895 0 0 0 2.622-6.331c0-2.391-.931-4.64-2.622-6.33A8.895 8.895 0 0 0 17.953 17v17.906c2.391 0 4.64-.931 6.33-2.622z"/>
                <path fill="#F7BA35" d="M17.953 32.799a6.854 6.854 0 0 1-6.846-6.846 6.854 6.854 0 0 1 6.846-6.846 6.854 6.854 0 0 1 6.846 6.846 6.854 6.854 0 0 1-6.846 6.846zm0-12.643a5.803 5.803 0 0 0-5.797 5.797c0 3.196 2.6 5.797 5.797 5.797 3.196 0 5.797-2.6 5.797-5.797 0-3.196-2.6-5.797-5.797-5.797z"/>
                <path fill="#FC9602" d="M23.75 25.953c0 3.196-2.6 5.797-5.797 5.797v1.049a6.854 6.854 0 0 0 6.846-6.846 6.854 6.854 0 0 0-6.846-6.846v1.05c3.196 0 5.797 2.6 5.797 5.796z"/>
            </g>
        </g>
    </g>
</svg>
