<svg xmlns="http://www.w3.org/2000/svg" width="40" height="80" viewBox="0 0 40 80">
    <defs>
        <radialGradient id="a" cx="48.886%" cy="48.028%" r="509.843%" fx="48.886%" fy="48.028%" gradientTransform="matrix(.09547 0 0 1 .442 0)">
            <stop offset="0%" stop-color="#C7840B"/>
            <stop offset="100%" stop-color="#D4BB16" stop-opacity="0"/>
        </radialGradient>
        <linearGradient id="b" x1="50%" x2="50%" y1=".23%" y2="100%">
            <stop offset="0%" stop-color="#FBDA35"/>
            <stop offset="100%" stop-color="#F7BA35"/>
        </linearGradient>
        <linearGradient id="c" x1="-55.484%" x2="50%" y1="28.428%" y2="28.428%">
            <stop offset="0%" stop-color="#FBDA35"/>
            <stop offset="100%" stop-color="#F7BA35"/>
        </linearGradient>
        <linearGradient id="d" x1="-55.484%" x2="50%" y1="28.428%" y2="28.428%">
            <stop offset="0%" stop-color="#FBDA35"/>
            <stop offset="100%" stop-color="#F7BA35"/>
        </linearGradient>
    </defs>
    <g fill="none" fill-rule="evenodd">
        <ellipse cx="18.763" cy="78.04" fill="url(#a)" fill-rule="nonzero" opacity=".2" rx="18.763" ry="1.791" style="mix-blend-mode:multiply"/>
        <path fill="url(#b)" fill-rule="nonzero" d="M35.183 45.045l-5.859-2.557H9.767L3.91 45.045a6.515 6.515 0 0 0-3.903 6.247l.597 14.09a2.172 2.172 0 0 0 2.17 2.08H36.32c1.163 0 2.12-.916 2.17-2.08l.597-14.09a6.516 6.516 0 0 0-3.903-6.247z"/>
        <path fill="#EDEBED" fill-rule="nonzero" d="M14.116 34.887h10.859v10.859H14.116z"/>
        <path fill="#BCBCBC" fill-rule="nonzero" d="M14.116 38.04a12.984 12.984 0 0 0 10.859 0v-3.154H14.116v3.155z"/>
        <circle cx="19.545" cy="6.653" r="6.516" fill="#090F18" fill-rule="nonzero"/>
        <ellipse cx="19.545" cy="18.055" fill="#1A2C46" rx="13.031" ry="12.488"/>
        <path fill="#090F18" fill-rule="nonzero" d="M15.202 19.684c-4.343-4.343-4.993-8.088-4.89-10.438-2.346 2.258-3.797 5.371-3.797 8.81 0 2.354.683 4.554 1.867 6.43l6.82-4.802z"/>
        <path fill="#EDEBED" fill-rule="nonzero" d="M31.927 21.901c-.087-.028-.623-.045-.623-.045a2.172 2.172 0 0 1-1.536-.636l-.937-.937a2.154 2.154 0 0 0-1.404-.632c-2.114-.119-7.975-.644-12.631-2.93-.497-.243-1.105-.11-1.403.356-1.22 1.91-2.729 3.426-3.575 4.204-.403.37-.925.575-1.473.575h-.782c-.12.002-.24.015-.365.039-1.057.204-1.769 1.214-1.769 2.29v.788c0 1.038.665 2.018 1.677 2.254.228.053.45.068.662.052.54-.044 1.01.35 1.108.882.923 5.06 5.343 8.897 10.67 8.897 5.326 0 9.746-3.837 10.67-8.897.097-.533.568-.926 1.108-.882.212.016.434.001.662-.052 1.01-.236 1.676-1.216 1.676-2.254v-.99c0-1.022-.763-1.766-1.735-2.082z"/>
        <path fill="#DADADA" fill-rule="nonzero" d="M13.03 26.2v-8.583c-1.144 1.653-2.448 2.961-3.212 3.665-.403.37-.925.574-1.473.574h-.782c-.12.002-.24.015-.365.039-1.056.204-1.769 1.214-1.769 2.29v.788c0 1.038.665 2.018 1.677 2.254.228.053.45.069.662.052.54-.043 1.011.35 1.108.882.923 5.06 5.344 8.897 10.67 8.897.738 0 1.456-.08 2.153-.221-4.947-1.013-8.669-5.39-8.669-10.638z"/>
        <g fill-rule="nonzero">
            <path fill="url(#c)" d="M5.84 11.698L1.871 6.937a6.498 6.498 0 0 0-1.866 4.82L.603 25.85a2.172 2.172 0 0 0 2.17 2.08H7.6V16.564a7.6 7.6 0 0 0-1.762-4.866zM33.252 11.698l3.968-4.761a6.498 6.498 0 0 1 1.866 4.82l-.598 14.092a2.172 2.172 0 0 1-2.17 2.08H31.49V16.563c0-1.778.624-3.5 1.762-4.866z" transform="translate(0 39.534)"/>
            <path fill="url(#d)" d="M26.829.464a1.086 1.086 0 0 0-1.536 0l-5.25 5.249a.704.704 0 0 1-.995 0l-5.25-5.25a1.086 1.086 0 0 0-1.535 0l-2.49 2.49 4.018 6.522c.35.567 1.122.689 1.63.257l2.407-2.055a.383.383 0 0 1 .632.291v19.96h2.172V7.969c0-.327.383-.503.631-.291l2.408 2.055c.507.432 1.28.31 1.63-.257l4.018-6.522-2.49-2.49z" transform="translate(0 39.534)"/>
            <path fill="#FFF" d="M11.02 58.776h4.021c.689 0 1.247-.559 1.247-1.247v-.764c0-.689-.558-1.247-1.247-1.247H11.02c-.689 0-1.247.558-1.247 1.247v.764c0 .688.558 1.247 1.247 1.247z"/>
        </g>
    </g>
</svg>
