<svg xmlns="http://www.w3.org/2000/svg" width="78" height="110" viewBox="0 0 78 110">
    <defs>
        <radialGradient id="a" cx="48.886%" cy="48.028%" r="522.715%" fx="48.886%" fy="48.028%" gradientTransform="matrix(.09547 0 0 1 .442 0)">
            <stop offset="0%" stop-color="#19033C"/>
            <stop offset="100%" stop-color="#19033C" stop-opacity="0"/>
        </radialGradient>
        <linearGradient id="b" x1="50%" x2="50%" y1="0%" y2="100%">
            <stop offset="0%" stop-color="#35CBFD"/>
            <stop offset="100%" stop-color="#189BFA"/>
        </linearGradient>
        <linearGradient id="c" x1="64.196%" x2="39.545%" y1="54.296%" y2="47.471%">
            <stop offset="1%" stop-color="#657CB5"/>
            <stop offset="100%" stop-color="#DFE5F1"/>
        </linearGradient>
        <linearGradient id="d" x1="37.326%" x2="54.87%" y1="111.63%" y2="30.396%">
            <stop offset="0%" stop-color="#A9B6D6"/>
            <stop offset="100%" stop-color="#DFE5F1"/>
        </linearGradient>
        <linearGradient id="e" x1="48.782%" x2="49.957%" y1="-16.884%" y2="46.93%">
            <stop offset="0%" stop-color="#0038AE"/>
            <stop offset="100%" stop-color="#002470"/>
        </linearGradient>
        <linearGradient id="f" x1="82.198%" x2="21.571%" y1="92.87%" y2="12.125%">
            <stop offset="0%" stop-color="#6DCDF5"/>
            <stop offset="100%" stop-color="#89D5F5"/>
        </linearGradient>
        <linearGradient id="g" x1="25.004%" x2="70.053%" y1="105.879%" y2="-14.52%">
            <stop offset="0%" stop-color="#6DCDF5"/>
            <stop offset="100%" stop-color="#B5E9FF"/>
        </linearGradient>
        <linearGradient id="h" x1="66.561%" x2="55.061%" y1="81.086%" y2="59.405%">
            <stop offset="0%" stop-color="#45A5CC"/>
            <stop offset="100%" stop-color="#45A5CC" stop-opacity="0"/>
        </linearGradient>
        <linearGradient id="i" x1="50%" x2="50%" y1="0%" y2="100%">
            <stop offset="0%" stop-color="#35CBFD"/>
            <stop offset="100%" stop-color="#189BFA"/>
        </linearGradient>
        <linearGradient id="j" x1="74.953%" x2="35.116%" y1="103.044%" y2="29.274%">
            <stop offset="2%" stop-color="#5A73B0"/>
            <stop offset="100%" stop-color="#DFE5F1"/>
        </linearGradient>
        <linearGradient id="k" x1="49.401%" x2="50.392%" y1="104.928%" y2="30.493%">
            <stop offset="0%" stop-color="#A9B6D6"/>
            <stop offset="100%" stop-color="#DFE5F1"/>
        </linearGradient>
        <linearGradient id="l" x1="107.294%" x2="-6.353%" y1="38.829%" y2="61.635%">
            <stop offset="0%" stop-color="#359AC4"/>
            <stop offset="100%" stop-color="#89D5F5"/>
        </linearGradient>
        <linearGradient id="m" x1="69.806%" x2="38.161%" y1="103.245%" y2="20.331%">
            <stop offset="0%" stop-color="#A9B6D6"/>
            <stop offset="100%" stop-color="#DFE5F1"/>
        </linearGradient>
        <linearGradient id="n" x1="54.323%" x2="50.793%" y1="120.987%" y2="67.894%">
            <stop offset="0%" stop-color="#A9B6D6"/>
            <stop offset="100%" stop-color="#DFE5F1"/>
        </linearGradient>
        <linearGradient id="o" x1="50%" x2="50%" y1="0%" y2="100%">
            <stop offset="0%" stop-color="#35CBFD"/>
            <stop offset="100%" stop-color="#189BFA"/>
        </linearGradient>
        <linearGradient id="p" x1="66.924%" x2="42.117%" y1="88.245%" y2="30.398%">
            <stop offset="1%" stop-color="#8194C3"/>
            <stop offset="100%" stop-color="#DFE5F1"/>
        </linearGradient>
        <linearGradient id="q" x1="-26.296%" x2="55.761%" y1="58.283%" y2="48.889%">
            <stop offset="0%" stop-color="#A9B6D6"/>
            <stop offset="100%" stop-color="#DFE5F1"/>
        </linearGradient>
        <linearGradient id="r" x1="51.296%" x2="47.288%" y1="-4.913%" y2="98.699%">
            <stop offset="0%" stop-color="#515766"/>
            <stop offset="100%" stop-color="#2C3038"/>
        </linearGradient>
        <linearGradient id="s" x1="49.716%" x2="50.115%" y1="106.595%" y2="-6.436%">
            <stop offset="0%" stop-color="#359AC4"/>
            <stop offset="100%" stop-color="#89D5F5"/>
        </linearGradient>
        <linearGradient id="t" x1="48.534%" x2="53.35%" y1="-.506%" y2="98.16%">
            <stop offset="0%" stop-color="#515766"/>
            <stop offset="100%" stop-color="#2C3038"/>
        </linearGradient>
        <linearGradient id="u" x1="49.877%" x2="50.22%" y1="104.756%" y2="-8.275%">
            <stop offset="0%" stop-color="#6DCDF5"/>
            <stop offset="100%" stop-color="#89D5F5"/>
        </linearGradient>
        <linearGradient id="v" x1="50%" x2="50%" y1="0%" y2="100%">
            <stop offset="0%" stop-color="#35CBFD"/>
            <stop offset="100%" stop-color="#189BFA"/>
        </linearGradient>
        <linearGradient id="w" x1="80.505%" x2="24.707%" y1="78.118%" y2="44.072%">
            <stop offset="0%" stop-color="#7388BC"/>
            <stop offset="100%" stop-color="#DFE5F1"/>
        </linearGradient>
        <linearGradient id="x" x1="4.311%" x2="93.365%" y1="92.807%" y2="36.726%">
            <stop offset="0%" stop-color="#A9B6D6"/>
            <stop offset="100%" stop-color="#DFE5F1"/>
        </linearGradient>
        <linearGradient id="y" x1="50%" x2="50%" y1=".23%" y2="100%">
            <stop offset="0%" stop-color="#FBDA35"/>
            <stop offset="100%" stop-color="#F7BA35"/>
        </linearGradient>
        <linearGradient id="z" x1="66.556%" x2="32.145%" y1="20.155%" y2="63.434%">
            <stop offset="0%" stop-color="#FFF"/>
            <stop offset="100%" stop-color="#FFF" stop-opacity="0"/>
        </linearGradient>
    </defs>
    <g fill="none" fill-rule="nonzero" transform="translate(.537)">
        <ellipse cx="38.63" cy="106.924" fill="url(#a)" opacity=".2" rx="26.119" ry="2.494" style="mix-blend-mode:multiply"/>
        <path fill="url(#b)" d="M60.143 38.688c-4.548-3.229-22.054-2.641-22.054-2.641s-17.506-.588-22.058 2.641c-4.551 3.229-3.376 23.038 1.907 40.206 5.283 17.168 13.153 22.49 20.151 22.49 6.999 0 14.865-5.322 20.132-22.49 5.268-17.168 6.474-36.977 1.922-40.206z"/>
        <path fill="#FFF" d="M20.58 37.852s-3.522.75-4.405 2.657c-.883 1.906-4.446 17.895 6.715 46.831 0 0-7.392-29.177-6.384-39.977 0 0 .33-5.722 1.432-7.154a10.893 10.893 0 0 1 2.641-2.357z" opacity=".55"/>
        <path fill="url(#c)" d="M60.497 38.988c-2.202-1.588-10.056-2.105-10.056-2.105l-.969.969s-8.644 4.228-10.294 8.08c-1.649 3.851 3.634 20.144 1.844 35.331-1.789 15.188-12.001 16.802-12.001 16.802 3.003 2.385 6.112 3.338 9.068 3.338 7.003 0 14.865-5.322 20.148-22.49 5.143-16.728 6.388-35.93 2.26-39.925z"/>
        <path fill="url(#d)" d="M33.88 100.71c1.359.447 2.78.674 4.21.674 7.002 0 14.864-5.322 20.147-22.49 1.5-4.885 2.67-9.865 3.501-14.907-2.058 7.846-5.995 20.98-10.893 28.15-5.111 7.516-12.853 8.593-16.965 8.574z" style="mix-blend-mode:multiply"/>
        <path fill="#334C6F" d="M49.927 33.203a2.02 2.02 0 0 0-1.762-1.323c-3.023.553-10.076.661-10.076.661s-7.053-.108-10.08-.66a2.02 2.02 0 0 0-1.762 1.322c-.548 1.319-1.595 4.396-1.21 5.17s7.5 3.14 13.052 3.14 12.663-2.366 13.048-3.14c.385-.774-.657-3.851-1.21-5.17z"/>
        <path fill="#1A2C46" d="M37.545 32.53c-.778 3.299-3.03 6.372-4.836 8.414 1.772.354 3.573.544 5.38.568 5.548 0 12.663-2.365 13.048-3.139.385-.774-.657-3.851-1.21-5.17a2.02 2.02 0 0 0-1.762-1.323c-3.023.553-10.076.661-10.076.661l-.544-.011z"/>
        <path fill="#5F779B" d="M28.01 31.88a2.02 2.02 0 0 0-1.763 1.323c-.463 1.109-1.268 3.447-1.291 4.63.066-.21 1.622-5.023 2.447-5.346.824-.323 3.777.195 5.683-.124a45.816 45.816 0 0 1-5.076-.483z"/>
        <circle cx="38.334" cy="41.166" r="7.376" fill="#334C6F"/>
        <path fill="#1A2C46" d="M38.334 48.542a7.392 7.392 0 0 0 4.762-13.024c-.774.662-1.6 1.262-2.47 1.793 0 0 1.863 5.5 1.342 6.45-.521.95-2.054 2.1-2.79 2.136-.735.035-1.248.443-1.614 1.525-.117.35-.61.618-1.23.825.65.19 1.323.289 2 .295z"/>
        <path fill="#5F779B" d="M31.25 41.353a7.372 7.372 0 0 1 11.247-6.275 7.392 7.392 0 1 0-8.03 12.363 7.364 7.364 0 0 1-3.217-6.088z"/>
        <circle cx="38.336" cy="41.167" r="4.567" fill="url(#e)" transform="rotate(-45 38.336 41.167)"/>
        <circle cx="38.334" cy="41.166" r="4.283" fill="url(#f)"/>
        <path fill="url(#g)" d="M34.051 41.166c0 1.291.581 2.513 1.583 3.326a21.824 21.824 0 0 0 2.7-1.742 5.59 5.59 0 0 0 2.206-5.252 4.28 4.28 0 0 0-6.489 3.668z"/>
        <path fill="#EDFAFF" d="M35.475 40.026c.128-.516.397-.986.778-1.357.568-.479 1.136-.129.899.221a7.866 7.866 0 0 0-.81 1.32c-.17.42-1.073.365-.867-.184zM35.677 41.742s-.35-.39 0-.584c.35-.194.724-.038.646.347-.078.385-.51.494-.646.237z" opacity=".38" style="mix-blend-mode:screen"/>
        <path fill="url(#h)" d="M42.42 39.87a4.45 4.45 0 0 1-.966 3.502c-1.365 1.65-3.77 1.708-5.057 1.599a4.28 4.28 0 0 0 6.022-5.112v.012z"/>
        <path fill="#FBDA35" d="M38.27 45.886a4.698 4.698 0 0 1-3.343-1.385 4.698 4.698 0 0 1-1.385-3.343c0-1.263.492-2.45 1.385-3.344a4.698 4.698 0 0 1 3.344-1.385c1.263 0 2.45.492 3.343 1.385A4.698 4.698 0 0 1 43 41.158c0 1.263-.491 2.45-1.385 3.343a4.698 4.698 0 0 1-3.343 1.385z"/>
        <path fill="#F7BA35" d="M41.614 44.501A4.698 4.698 0 0 0 43 41.158c0-1.263-.491-2.45-1.385-3.344a4.698 4.698 0 0 0-3.343-1.385v9.457c1.263 0 2.45-.492 3.343-1.385z"/>
        <path fill="#F7BA35" d="M38.27 44.773a3.62 3.62 0 0 1-3.615-3.615 3.62 3.62 0 0 1 3.616-3.616 3.62 3.62 0 0 1 3.616 3.616 3.62 3.62 0 0 1-3.616 3.615zm0-6.677a3.065 3.065 0 0 0-3.06 3.062 3.065 3.065 0 0 0 3.06 3.061 3.065 3.065 0 0 0 3.062-3.061 3.065 3.065 0 0 0-3.061-3.062z"/>
        <path fill="#FC9602" d="M41.332 41.158a3.065 3.065 0 0 1-3.061 3.061v.554a3.62 3.62 0 0 0 3.616-3.615 3.62 3.62 0 0 0-3.616-3.616v.554a3.065 3.065 0 0 1 3.061 3.062z"/>
        <path fill="url(#i)" d="M.155 63.528s-.825-6.56 1.766-12.06c2.591-5.501 5.602-7.555 7.158-6.952 1.557.603 3.113 3.976 2.914 9.298-.198 5.321-.778 9.725-.778 9.725s-8.154.619-11.06-.011z"/>
        <path fill="url(#j)" d="M.155 63.528c2.906.63 11.076 0 11.076 0s.56-4.404.778-9.726c.218-5.322-1.35-8.668-2.898-9.29.47 3.847-2.903 9.045-5.684 11.34C2.092 56.949.937 59.575.07 62.154c.019.864.085 1.374.085 1.374z"/>
        <path fill="url(#k)" d="M10.087 55.358c-1.167 4.843-7.535 6.224-7.485 6.458.137.687.353 1.357.642 1.996 3.501.077 7.987-.269 7.987-.269s.56-4.404.778-9.726c.109-2.8-.276-5.057-.891-6.656.198 2.136-.226 4.867-1.031 8.197z" style="mix-blend-mode:multiply"/>
        <path fill="#FFF" d="M6.87 45.438A20.428 20.428 0 0 0 .743 57.214s1.528-6.42 6.127-11.776z" opacity=".55"/>
        <path fill="#515766" d="M2.388 60.707l1.817-3.353 2.86.63-.915 3.244z"/>
        <path fill="url(#l)" d="M6.718 59.217l.346-1.233-2.86-.63-.447.863c.709.273 1.903.697 2.961 1z"/>
        <path fill="#DFE5F1" d="M3.225 57.692s2.042-4.314 4.034-4.446c1.992-.133 2.606 1.968.463 5.913a44.587 44.587 0 0 1-4.497-1.467z"/>
        <path fill="url(#m)" d="M7.73 59.159c1.921-3.537 1.63-5.579.112-5.875a6.804 6.804 0 0 1-2.423 3.692 3.466 3.466 0 0 0-1.125 1.125c1.483.52 3.435 1.058 3.435 1.058z"/>
        <path fill="url(#n)" d="M6.516 58.809c.7.21 1.213.35 1.213.35 1.417-2.607 1.627-4.4 1.035-5.283a8.695 8.695 0 0 1-.622 2.987 4.964 4.964 0 0 1-1.626 1.946z" style="mix-blend-mode:multiply"/>
        <path fill="#FFF" d="M4.656 55.82s1.397-2.112 2.113-2.22c0 0-1.455 1.816-2.113 2.22z" opacity=".55"/>
        <path fill="url(#o)" d="M4.956 70.775s-3.21.856-4.357-3.8c-1.148-4.657-.078-6.357 2.82-7.52 2.898-1.164 5.835-1.6 7.111-.83 1.276.771 1.996 2.724 2.3 4.362.303 1.638-.304 5.154-.755 5.707-.451.552-5.271 1.797-7.12 2.081z"/>
        <path fill="url(#p)" d="M12.806 65.694c0-2.357-.75-4.52-1.167-4.85-.622-.475-.587-.328-.622.221-.035.549-.33 2.533-2.334 3.19s-2.934 1.288-4.513 2.459c-.973.723-2.459.708-3.455.591 1.214 4.28 4.28 3.47 4.28 3.47 1.847-.284 6.671-1.529 7.119-2.081.225-.32.533-1.634.692-3z"/>
        <path fill="url(#q)" d="M11.83 68.64c-.292-.3-2.478 1.112-4.96 1.501-1.44.207-2.898.242-4.346.105.702.5 1.58.688 2.424.517 1.762-.272 6.224-1.416 7.03-2a.838.838 0 0 1-.148-.124z" style="mix-blend-mode:multiply"/>
        <path fill="#FFF" d="M4.78 59.42l.051.322c1.556-.529 3.606-1.062 3.606-1.062-1.242.113-2.468.36-3.656.74zm-1.369.525a7.174 7.174 0 0 0-2.24 1.984 17.895 17.895 0 0 1 2.22-1.6 8.765 8.765 0 0 1 1.226-.513l-.027-.334c-.403.126-.797.28-1.179.463z" opacity=".55"/>
        <path fill="url(#i)" d="M.125 19.113S-.7 12.554 1.89 7.053C4.481 1.553 7.493-.5 9.049.102c1.556.603 3.112 3.975 2.914 9.297-.198 5.322-.778 9.726-.778 9.726s-8.154.619-11.06-.012z" transform="matrix(-1 0 0 1 76.484 44.554)"/>
        <path fill="url(#j)" d="M.125 19.113c2.906.63 11.075 0 11.075 0s.56-4.403.778-9.725C12.196 4.066 10.628.72 9.08.098c.47 3.847-2.902 9.045-5.683 11.34C2.062 12.535.907 15.16.039 17.74c.02.864.086 1.373.086 1.373z" transform="matrix(-1 0 0 1 76.484 44.554)"/>
        <path fill="url(#k)" d="M10.057 10.944c-1.167 4.843-7.536 6.224-7.485 6.458.137.687.352 1.357.642 1.995 3.5.078 7.986-.268 7.986-.268s.56-4.404.778-9.726c.11-2.8-.276-5.057-.89-6.656.198 2.136-.226 4.867-1.031 8.197z" style="mix-blend-mode:multiply" transform="matrix(-1 0 0 1 76.484 44.554)"/>
        <path fill="#FFF" d="M69.645 45.577a20.428 20.428 0 0 1 6.127 11.776s-1.529-6.419-6.127-11.776z" opacity=".55"/>
        <path fill="#515766" d="M74.126 60.847l-1.816-3.354-2.86.63.914 3.245z"/>
        <path fill="url(#l)" d="M6.688 14.803l.346-1.233-2.86-.63-.447.863c.708.272 1.903.696 2.96 1z" transform="matrix(-1 0 0 1 76.484 44.554)"/>
        <path fill="#DFE5F1" d="M73.29 57.832s-2.042-4.315-4.034-4.447c-1.992-.132-2.607 1.969-.463 5.913a44.587 44.587 0 0 0 4.497-1.466z"/>
        <path fill="url(#m)" d="M7.7 14.745c1.921-3.537 1.63-5.58.112-5.875a6.804 6.804 0 0 1-2.424 3.692 3.466 3.466 0 0 0-1.124 1.124c1.482.522 3.435 1.059 3.435 1.059z" transform="matrix(-1 0 0 1 76.484 44.554)"/>
        <path fill="url(#n)" d="M6.485 14.394c.7.21 1.214.35 1.214.35 1.416-2.606 1.626-4.4 1.035-5.282a8.695 8.695 0 0 1-.622 2.987 4.964 4.964 0 0 1-1.627 1.945z" style="mix-blend-mode:multiply" transform="matrix(-1 0 0 1 76.484 44.554)"/>
        <path fill="#FFF" d="M71.858 55.96s-1.396-2.112-2.112-2.22c0 0 1.455 1.816 2.112 2.22z" opacity=".55"/>
        <path fill="url(#o)" d="M4.925 26.36s-3.21.857-4.357-3.8c-1.147-4.657-.078-6.357 2.82-7.52 2.899-1.163 5.836-1.599 7.112-.828 1.276.77 1.996 2.723 2.3 4.36.303 1.638-.304 5.155-.755 5.708-.452.552-5.272 1.797-7.12 2.08z" transform="matrix(-1 0 0 1 76.484 44.554)"/>
        <path fill="url(#p)" d="M12.776 21.28c0-2.357-.75-4.52-1.167-4.851-.623-.475-.588-.327-.623.222-.035.548-.33 2.532-2.334 3.19-2.003.657-2.933 1.287-4.512 2.458-.973.724-2.46.708-3.455.592 1.214 4.28 4.28 3.47 4.28 3.47 1.847-.284 6.671-1.529 7.119-2.081.225-.32.532-1.634.692-3z" transform="matrix(-1 0 0 1 76.484 44.554)"/>
        <path fill="url(#q)" d="M11.8 24.225c-.292-.3-2.479 1.113-4.96 1.502-1.44.207-2.898.242-4.346.105.701.5 1.579.688 2.424.517 1.762-.272 6.224-1.416 7.03-2a.838.838 0 0 1-.148-.124z" style="mix-blend-mode:multiply" transform="matrix(-1 0 0 1 76.484 44.554)"/>
        <path fill="#FFF" d="M71.734 59.56l-.05.322c-1.557-.53-3.607-1.062-3.607-1.062 1.242.113 2.468.36 3.657.74zm1.37.524a7.174 7.174 0 0 1 2.24 1.984 17.895 17.895 0 0 0-2.221-1.599 8.765 8.765 0 0 0-1.226-.513l.027-.335c.404.126.798.281 1.18.463z" opacity=".55"/>
        <path fill="url(#r)" d="M58.93 9.76a.806.806 0 0 1 .778.552 19.584 19.584 0 0 1 0 11.17.805.805 0 0 1-.779.548h-3.89V9.76h3.89z"/>
        <path fill="url(#s)" d="M58.758 22.03h-.482a17.79 17.79 0 0 0-.058-12.27h.482a18.475 18.475 0 0 1 .058 12.27z"/>
        <path fill="url(#t)" d="M17.245 9.76a.806.806 0 0 0-.778.552 19.584 19.584 0 0 0 0 11.17.805.805 0 0 0 .778.548h3.89V9.76h-3.89z"/>
        <path fill="url(#u)" d="M17.416 22.03h.483a17.79 17.79 0 0 1 .058-12.27h-.482a18.475 18.475 0 0 0-.059 12.27z"/>
        <ellipse cx="38.089" cy="15.825" fill="url(#v)" rx="20.074" ry="15.608"/>
        <path fill="url(#w)" d="M44.547 1.046c1.82 3.859-.634 8.99-.634 8.99s1.311 4.373-.661 6.493c-1.973 2.12-4.622 1.98-4.28 5.614.253 2.809-4.687 6.862-6.944 8.558a25.29 25.29 0 0 0 6.073.728c11.087 0 20.074-7.003 20.074-15.604-.012-6.863-5.711-12.686-13.628-14.78z"/>
        <path fill="url(#x)" d="M54.588 22.473c-4.668 7.345-15.234 8.532-20.521 8.645 1.33.209 2.675.313 4.022.31 11.088 0 20.074-7.002 20.074-15.603a12.523 12.523 0 0 0-1.19-5.306c.72 3.096.607 7.259-2.385 11.954z" opacity=".7" style="mix-blend-mode:multiply"/>
        <path fill="#FFF" d="M31.585 1.855s-4.953 1.167-8.29 4.73c0 0-.39.588 1.649-.548 2.038-1.136 6.897-3.338 7.002-3.851.106-.514-.361-.331-.361-.331z" opacity=".55"/>
        <path fill="url(#y)" d="M52.981 9.713C51.655 9.118 38.284 9.1 38.09 9.1c-.194 0-13.565 0-14.896.614-1.33.615-2.626 6.898-2.112 8.248.513 1.35 15.514.58 17.012.58 1.498 0 16.507.777 17.016-.58.51-1.358-.778-7.652-2.128-8.248z"/>
        <path fill="#FFF" d="M26.22 15.354h.945v-.945h-.945v.945zm.945-.945h.946v-.945h-.946v.945zm4.723.043v.945h.945v-.945h-.945zm0-.043v-.945h-.945v.945h.945zm-3.777-1.887v.942h2.832v-.942H28.11zM49.001 14.409v.945h.946v-.945H49zm-.945-.945v.945h.945v-.945h-.945zm-4.723 1.945h.946v-.946h-.946v.946zm.946-.988h.945v-.946h-.945v.946zm.945-1.887v.941h2.832v-.941h-2.832z"/>
        <path fill="url(#z)" d="M36.623 9.106c-3.537.024-12.372.129-13.441.607-1.339.596-2.626 6.898-2.113 8.248.296.778 5.52.852 10.115.778 2.844-3.062 4.626-7.341 5.439-9.633z" opacity=".36" style="mix-blend-mode:overlay"/>
    </g>
</svg>
