<svg xmlns="http://www.w3.org/2000/svg" width="471.848" height="90.74" viewBox="0 0 1040 200">
  <defs>
    <style>
      .cls-1, .cls-4 {
        fill: #fff;
      }

      .cls-2 {
        fill: #fefefe;
      }

      .cls-2, .cls-3, .cls-4 {
        fill-rule: evenodd;
      }

      .cls-3 {
        fill: #2d2059;
      }
    </style>
  </defs>
  <rect id="Rounded_Rectangle_1" data-name="Rounded Rectangle 1" class="cls-1" x="81" width="200" height="200" rx="40" ry="40"/>
  <path id="Cash_Stream" data-name="Cash Stream" class="cls-2" d="M411.847,104.973a7.356,7.356,0,0,0-.347-1.722,1.542,1.542,0,0,0-.619-0.842,1.852,1.852,0,0,0-.928-0.22,6.315,6.315,0,0,0-3.169,1.392q-2.013,1.392-5.142,3.113a41.533,41.533,0,0,1-7.576,3.113,34.9,34.9,0,0,1-10.4,1.391,31.769,31.769,0,0,1-12.6-2.38,24.408,24.408,0,0,1-9.393-7.031A32.46,32.46,0,0,1,355.8,90.214a56.226,56.226,0,0,1-2.049-15.93,56.088,56.088,0,0,1,2.126-16.15,35.811,35.811,0,0,1,5.992-11.975,25.29,25.29,0,0,1,9.317-7.434,28.416,28.416,0,0,1,12.1-2.527,33.912,33.912,0,0,1,10.476,1.428,41.466,41.466,0,0,1,7.421,3.15,49.3,49.3,0,0,1,4.988,3.149,5.875,5.875,0,0,0,3.015,1.428,1.653,1.653,0,0,0,1.044-.33A2.59,2.59,0,0,0,410.96,44a6.7,6.7,0,0,0,.464-1.721,16.9,16.9,0,0,0,.155-2.49,19.2,19.2,0,0,0-.115-2.271,11.492,11.492,0,0,0-.308-1.648,4.863,4.863,0,0,0-.5-1.209,8.641,8.641,0,0,0-1.345-1.5,20.844,20.844,0,0,0-3.73-2.527,35.137,35.137,0,0,0-6.153-2.71,55.836,55.836,0,0,0-7.536-1.941,45.129,45.129,0,0,0-8.383-.769,45.622,45.622,0,0,0-17.8,3.369,38.213,38.213,0,0,0-13.8,9.778A45.042,45.042,0,0,0,342.942,54a64.134,64.134,0,0,0-3.191,21.021,63.849,63.849,0,0,0,2.96,20.325,40.861,40.861,0,0,0,8.46,14.832,35.329,35.329,0,0,0,13.3,9.082,47.364,47.364,0,0,0,17.5,3.076,50.608,50.608,0,0,0,10.344-.989,52.742,52.742,0,0,0,8.382-2.417A39.4,39.4,0,0,0,406.811,116a22.233,22.233,0,0,0,3.23-2.234,6.54,6.54,0,0,0,1.077-1.245,5.051,5.051,0,0,0,.5-1.172,8.192,8.192,0,0,0,.269-1.538c0.05-.586.077-1.27,0.077-2.051A27.42,27.42,0,0,0,411.847,104.973ZM472.3,74.943a35.783,35.783,0,0,0-1.461-10.767,18.12,18.12,0,0,0-4.692-7.727,20.774,20.774,0,0,0-8.459-4.724A43.528,43.528,0,0,0,445,50.114a45.3,45.3,0,0,0-7.921.7,55.387,55.387,0,0,0-7.229,1.758,40.523,40.523,0,0,0-5.845,2.344,16.862,16.862,0,0,0-3.576,2.234,4.162,4.162,0,0,0-1.307,2.014,14.56,14.56,0,0,0-.116,4.907,4.352,4.352,0,0,0,.5,1.5,2.53,2.53,0,0,0,.808.879,1.957,1.957,0,0,0,1.076.293,6.673,6.673,0,0,0,2.807-1.062q1.884-1.061,4.691-2.344a46.538,46.538,0,0,1,6.537-2.344,30.784,30.784,0,0,1,8.421-1.062,23.815,23.815,0,0,1,7.383.989,11.831,11.831,0,0,1,4.884,2.93,11.413,11.413,0,0,1,2.73,4.871,24.387,24.387,0,0,1,.846,6.738v5.127h-9.537a71.112,71.112,0,0,0-14.535,1.355A34.662,34.662,0,0,0,424.7,86a19.306,19.306,0,0,0-6.844,6.812,18.9,18.9,0,0,0-2.384,9.668,19.988,19.988,0,0,0,1.73,8.5,17.654,17.654,0,0,0,4.845,6.3,21.685,21.685,0,0,0,7.537,3.919,33.661,33.661,0,0,0,9.882,1.355,27.931,27.931,0,0,0,11.805-2.564,34.114,34.114,0,0,0,10.113-7.177V119.4a1.6,1.6,0,0,0,.538,1.319,3.888,3.888,0,0,0,1.73.659,18.418,18.418,0,0,0,3.192.22,16.97,16.97,0,0,0,3.153-.22,4.454,4.454,0,0,0,1.692-.659,1.518,1.518,0,0,0,.615-1.319V74.943Zm-12.612,28.345a39.472,39.472,0,0,1-8.96,7.4,18.494,18.494,0,0,1-9.267,2.417q-6.153,0-9.574-3.04a10.375,10.375,0,0,1-3.423-8.167,11.4,11.4,0,0,1,1.192-5.31,10.489,10.489,0,0,1,3.73-3.955,19.222,19.222,0,0,1,6.383-2.49,42.91,42.91,0,0,1,9.075-.842h10.844v13.989Zm69.99-9.228a16.947,16.947,0,0,0-3.96-5.273,24.249,24.249,0,0,0-5.653-3.735q-3.192-1.538-6.46-2.783t-6.421-2.417a34.213,34.213,0,0,1-5.614-2.637,14.421,14.421,0,0,1-4-3.406,7.472,7.472,0,0,1-1.538-4.8,9.02,9.02,0,0,1,.807-3.809,8.411,8.411,0,0,1,2.384-3.04,11.127,11.127,0,0,1,4.038-1.978,21,21,0,0,1,5.69-.7,23.337,23.337,0,0,1,6.422.806,38.756,38.756,0,0,1,4.883,1.721,28.659,28.659,0,0,1,3.384,1.721,4.365,4.365,0,0,0,2,.806,1.49,1.49,0,0,0,.846-0.256,1.959,1.959,0,0,0,.653-0.842,5.2,5.2,0,0,0,.385-1.5,17.526,17.526,0,0,0,.115-2.161,14.28,14.28,0,0,0-.115-1.978Q527.413,57,527.3,56.45a3.106,3.106,0,0,0-.384-0.989,4.137,4.137,0,0,0-1.077-1.025,16.812,16.812,0,0,0-2.384-1.355,24.818,24.818,0,0,0-3.807-1.428,39.639,39.639,0,0,0-5-1.1,35.254,35.254,0,0,0-5.537-.44,34.264,34.264,0,0,0-11.036,1.611,24.028,24.028,0,0,0-7.882,4.285,17.322,17.322,0,0,0-4.73,6.226,18.134,18.134,0,0,0-1.576,7.434,16.691,16.691,0,0,0,5.46,12.964,24.383,24.383,0,0,0,5.575,3.845A66.672,66.672,0,0,0,501.3,89.3q3.267,1.246,6.344,2.38a33.586,33.586,0,0,1,5.537,2.6,14.245,14.245,0,0,1,3.961,3.369,7.343,7.343,0,0,1,1.5,4.688,9.953,9.953,0,0,1-1.038,4.687,8.775,8.775,0,0,1-2.961,3.26,14.514,14.514,0,0,1-4.537,1.941,23.959,23.959,0,0,1-5.845.659,26.618,26.618,0,0,1-7.613-.989,38.58,38.58,0,0,1-5.73-2.161q-2.423-1.17-4.076-2.16a5.644,5.644,0,0,0-2.5-.989,1.822,1.822,0,0,0-.961.256,1.644,1.644,0,0,0-.654.843,7.6,7.6,0,0,0-.384,1.538,14.85,14.85,0,0,0-.154,2.343,13.292,13.292,0,0,0,.384,3.589,4.162,4.162,0,0,0,1.231,2.051,13.281,13.281,0,0,0,2.691,1.648,32,32,0,0,0,4.5,1.758,44.143,44.143,0,0,0,13.036,1.941,40.956,40.956,0,0,0,11-1.392,25.663,25.663,0,0,0,8.613-4.1,18.537,18.537,0,0,0,5.576-6.665,20.021,20.021,0,0,0,1.961-9.009A16.559,16.559,0,0,0,529.681,94.06Zm71.375-14.868a50.077,50.077,0,0,0-1.269-12.122,23.28,23.28,0,0,0-4.191-8.752,20.8,20.8,0,0,0-7.652-5.969,27.188,27.188,0,0,0-11.651-2.234,25.432,25.432,0,0,0-11.151,2.673,40.774,40.774,0,0,0-11,8.166V21.477a1.751,1.751,0,0,0-.307-1.025,2.255,2.255,0,0,0-1-.733,7.386,7.386,0,0,0-1.923-.439,27.7,27.7,0,0,0-3.153-.146,26.847,26.847,0,0,0-3.076.146,8.009,8.009,0,0,0-1.961.439,1.986,1.986,0,0,0-1,.733,1.919,1.919,0,0,0-.269,1.025v97.851a1.734,1.734,0,0,0,.269.989,2.1,2.1,0,0,0,1,.7,8.016,8.016,0,0,0,1.961.439,26.9,26.9,0,0,0,3.076.147,27.751,27.751,0,0,0,3.153-.147,7.392,7.392,0,0,0,1.923-.439,2.4,2.4,0,0,0,1-.7,1.586,1.586,0,0,0,.307-0.989V73.259a50.566,50.566,0,0,1,10-9.448,16.934,16.934,0,0,1,9.536-3.223,15.13,15.13,0,0,1,6.5,1.318,11.528,11.528,0,0,1,4.576,3.809,18.36,18.36,0,0,1,2.692,5.933,36.226,36.226,0,0,1,.923,9.082v38.6a1.58,1.58,0,0,0,.307.989,2.4,2.4,0,0,0,1,.7,7.392,7.392,0,0,0,1.923.439,27.726,27.726,0,0,0,3.153.147,26.914,26.914,0,0,0,3.076-.147,7.4,7.4,0,0,0,1.923-.439,2.4,2.4,0,0,0,1-.7,1.581,1.581,0,0,0,.308-0.989V79.191Zm95.954,5.6a24.039,24.039,0,0,0-5.153-7.178,34.628,34.628,0,0,0-7.268-5.273q-4.077-2.233-8.305-4.1t-8.306-3.7a45.985,45.985,0,0,1-7.267-4.028,19.13,19.13,0,0,1-5.114-5.054,11.907,11.907,0,0,1-1.923-6.812,13.274,13.274,0,0,1,1-5.127,11.163,11.163,0,0,1,3-4.175,15,15,0,0,1,5.076-2.82,22.194,22.194,0,0,1,7.229-1.062,28.23,28.23,0,0,1,8.036,1.062,40.2,40.2,0,0,1,6.191,2.344q2.613,1.282,4.422,2.307A6.367,6.367,0,0,0,691.28,42.2a1.524,1.524,0,0,0,.961-0.33,2.088,2.088,0,0,0,.654-1.025,8.591,8.591,0,0,0,.346-1.721,21.136,21.136,0,0,0,.116-2.344c0-.927-0.027-1.685-0.077-2.27a10.158,10.158,0,0,0-.231-1.5,4.038,4.038,0,0,0-.385-1.025,5.646,5.646,0,0,0-.961-1.1,13.776,13.776,0,0,0-3.038-1.831,36.292,36.292,0,0,0-5.267-2.051,47.356,47.356,0,0,0-6.307-1.465,41,41,0,0,0-6.652-.549A42.278,42.278,0,0,0,658.4,26.64a28.649,28.649,0,0,0-9.613,4.8,21.979,21.979,0,0,0-6.307,7.8,23.844,23.844,0,0,0-2.268,10.584,22.994,22.994,0,0,0,1.961,9.924,24.807,24.807,0,0,0,5.114,7.214,34.725,34.725,0,0,0,7.152,5.347,91.3,91.3,0,0,0,8.229,4.138q4.228,1.868,8.267,3.662a45.259,45.259,0,0,1,7.191,3.955,18.906,18.906,0,0,1,5.075,5.017,12.048,12.048,0,0,1,1.923,6.885,15.43,15.43,0,0,1-1.384,6.665,13.551,13.551,0,0,1-3.961,4.944,18.889,18.889,0,0,1-6.152,3.113,26.77,26.77,0,0,1-7.883,1.1,35.531,35.531,0,0,1-10.036-1.282,50.7,50.7,0,0,1-7.421-2.746,48.244,48.244,0,0,1-5.038-2.71,6.454,6.454,0,0,0-3.037-1.245,2.191,2.191,0,0,0-1.077.256,1.926,1.926,0,0,0-.769.916,6.24,6.24,0,0,0-.461,1.721,18.975,18.975,0,0,0-.154,2.673,12.516,12.516,0,0,0,.423,3.626,5.3,5.3,0,0,0,1.307,2.234,14.963,14.963,0,0,0,3.153,2.124,37.688,37.688,0,0,0,5.614,2.417,52.824,52.824,0,0,0,7.614,1.977,50,50,0,0,0,9.267.806,46.876,46.876,0,0,0,13.343-1.831,31.526,31.526,0,0,0,10.766-5.457,25.673,25.673,0,0,0,7.152-8.826,26.382,26.382,0,0,0,2.577-11.865A22.639,22.639,0,0,0,697.01,84.794Zm47.38,27.5a8.147,8.147,0,0,0-.346-1.392,1.231,1.231,0,0,0-.538-0.7,1.556,1.556,0,0,0-.731-0.183,3.555,3.555,0,0,0-1.384.33q-0.769.33-1.846,0.7t-2.461.7a13.706,13.706,0,0,1-3.153.329q-5.462,0-7.575-3.479t-2.115-10.29V61.54h17.765a2.081,2.081,0,0,0,1.846-1.172,7.843,7.843,0,0,0,.692-3.808,15.106,15.106,0,0,0-.154-2.344,4.843,4.843,0,0,0-.5-1.575,1.964,1.964,0,0,0-1.884-1.135H724.241V35.832a1.636,1.636,0,0,0-.307-0.952,2.5,2.5,0,0,0-1-.769,6.358,6.358,0,0,0-1.923-.476,27.7,27.7,0,0,0-3.153-.146,26.847,26.847,0,0,0-3.076.146,6.856,6.856,0,0,0-1.961.476,2.17,2.17,0,0,0-1,.769,1.786,1.786,0,0,0-.269.952V51.506h-9.613a2.409,2.409,0,0,0-1.115.256,1.876,1.876,0,0,0-.808.879,6.46,6.46,0,0,0-.5,1.575,12.02,12.02,0,0,0-.193,2.344,7.843,7.843,0,0,0,.692,3.808,2.083,2.083,0,0,0,1.846,1.172h9.69v38.525a39.045,39.045,0,0,0,1.115,9.925,16.585,16.585,0,0,0,3.576,6.958,14.952,14.952,0,0,0,6.306,4.1,27.883,27.883,0,0,0,9.229,1.355,28.782,28.782,0,0,0,3.538-.219q1.767-.221,3.345-0.55a15.591,15.591,0,0,0,2.807-.842,6.063,6.063,0,0,0,1.846-1.1,3.718,3.718,0,0,0,.923-1.831,14.686,14.686,0,0,0,.307-3.369A13.126,13.126,0,0,0,744.39,112.3Zm49.457-57.239a8.961,8.961,0,0,0-.153-1.5,4.27,4.27,0,0,0-.269-0.842,2.11,2.11,0,0,0-.616-0.7,5.4,5.4,0,0,0-1.576-.732,24.17,24.17,0,0,0-2.5-.659,22.154,22.154,0,0,0-2.653-.4q-1.269-.11-2.269-0.11a18.123,18.123,0,0,0-4.422.549,14.994,14.994,0,0,0-4.422,1.977,29.1,29.1,0,0,0-4.729,3.919A52.036,52.036,0,0,0,764.893,63V53.41a1.745,1.745,0,0,0-.269-0.989,2.408,2.408,0,0,0-.885-0.732,4.72,4.72,0,0,0-1.73-.44q-1.116-.11-2.807-0.11-1.77,0-2.845.11a5.413,5.413,0,0,0-1.769.44,2.028,2.028,0,0,0-.923.732,1.962,1.962,0,0,0-.231.989v65.918a1.734,1.734,0,0,0,.269.989,2.1,2.1,0,0,0,1,.7,8.016,8.016,0,0,0,1.961.439,26.9,26.9,0,0,0,3.076.147,27.751,27.751,0,0,0,3.153-.147,7.392,7.392,0,0,0,1.923-.439,2.411,2.411,0,0,0,1-.7,1.586,1.586,0,0,0,.307-0.989V75.969q2.692-4.027,4.922-6.811a30.754,30.754,0,0,1,4.268-4.468,14.832,14.832,0,0,1,3.884-2.417,10.148,10.148,0,0,1,3.768-.733,14.538,14.538,0,0,1,3,.293q1.385,0.294,2.5.623t2,0.659a4.427,4.427,0,0,0,1.5.33,1.34,1.34,0,0,0,.962-0.33,2.482,2.482,0,0,0,.576-0.952,6.44,6.44,0,0,0,.308-1.721q0.075-1.1.077-2.71Q793.886,56.048,793.847,55.058Zm63.608,26.257a41.385,41.385,0,0,0-1.73-12.122,26.547,26.547,0,0,0-5.422-9.888,26.183,26.183,0,0,0-9.421-6.7A34.757,34.757,0,0,0,827,50.114a35.924,35.924,0,0,0-13.766,2.527,29.048,29.048,0,0,0-10.5,7.251,31.928,31.928,0,0,0-6.653,11.5,47.218,47.218,0,0,0-2.307,15.271,49.915,49.915,0,0,0,2.23,15.674,28.483,28.483,0,0,0,6.614,11.206,27.9,27.9,0,0,0,10.805,6.738,44.858,44.858,0,0,0,14.958,2.271,58.74,58.74,0,0,0,9.267-.7q4.344-.7,7.652-1.575a37.585,37.585,0,0,0,5.383-1.794,11.439,11.439,0,0,0,2.5-1.319,4.2,4.2,0,0,0,.692-0.842,3.077,3.077,0,0,0,.384-0.989c0.077-.366.141-0.78,0.193-1.245a15.568,15.568,0,0,0,.077-1.648,18.235,18.235,0,0,0-.117-2.234,5.159,5.159,0,0,0-.347-1.428,1.68,1.68,0,0,0-.658-0.769,1.835,1.835,0,0,0-.964-0.256,7.889,7.889,0,0,0-2.745.769q-1.817.769-4.637,1.721a54.068,54.068,0,0,1-6.685,1.721,45.385,45.385,0,0,1-8.809.769,29.266,29.266,0,0,1-10.587-1.684,17.361,17.361,0,0,1-7.032-4.834,18.712,18.712,0,0,1-3.865-7.544,38.848,38.848,0,0,1-1.158-9.888H852.51a5.342,5.342,0,0,0,3.438-1.209q1.508-1.208,1.507-4.065v-2.2Zm-50.526-1.392A25.887,25.887,0,0,1,808.4,72.2a20.193,20.193,0,0,1,3.715-6.482,17.8,17.8,0,0,1,5.959-4.468,19.157,19.157,0,0,1,8.279-1.685q9.207,0,13.888,5.42t4.45,14.941h-37.76Zm114.1-4.981a35.783,35.783,0,0,0-1.461-10.767,18.128,18.128,0,0,0-4.691-7.727,20.784,20.784,0,0,0-8.46-4.724,43.528,43.528,0,0,0-12.689-1.611,45.305,45.305,0,0,0-7.921.7,55.427,55.427,0,0,0-7.229,1.758,40.523,40.523,0,0,0-5.845,2.344,16.862,16.862,0,0,0-3.576,2.234,4.162,4.162,0,0,0-1.307,2.014,14.632,14.632,0,0,0-.116,4.907,4.394,4.394,0,0,0,.5,1.5,2.53,2.53,0,0,0,.808.879,1.957,1.957,0,0,0,1.076.293,6.664,6.664,0,0,0,2.807-1.062q1.884-1.061,4.692-2.344a46.522,46.522,0,0,1,6.536-2.344,30.8,30.8,0,0,1,8.421-1.062,23.815,23.815,0,0,1,7.383.989,11.831,11.831,0,0,1,4.884,2.93,11.413,11.413,0,0,1,2.73,4.871,24.387,24.387,0,0,1,.846,6.738v5.127h-9.536a71.1,71.1,0,0,0-14.535,1.355A34.659,34.659,0,0,0,873.42,86a19.306,19.306,0,0,0-6.844,6.812,18.9,18.9,0,0,0-2.384,9.668,20,20,0,0,0,1.73,8.5,17.654,17.654,0,0,0,4.845,6.3A21.685,21.685,0,0,0,878.3,121.2a33.661,33.661,0,0,0,9.882,1.355,27.931,27.931,0,0,0,11.8-2.564A34.114,34.114,0,0,0,910.1,112.81V119.4a1.6,1.6,0,0,0,.538,1.319,3.888,3.888,0,0,0,1.73.659,18.426,18.426,0,0,0,3.192.22,16.97,16.97,0,0,0,3.153-.22,4.454,4.454,0,0,0,1.692-.659,1.515,1.515,0,0,0,.615-1.319V74.943Zm-12.612,28.345a39.472,39.472,0,0,1-8.96,7.4,18.491,18.491,0,0,1-9.267,2.417q-6.153,0-9.574-3.04a10.374,10.374,0,0,1-3.422-8.167,11.39,11.39,0,0,1,1.192-5.31,10.481,10.481,0,0,1,3.73-3.955,19.2,19.2,0,0,1,6.383-2.49,42.9,42.9,0,0,1,9.074-.842h10.844v13.989ZM1039.12,77.653a45.92,45.92,0,0,0-1.19-10.583,23.477,23.477,0,0,0-4-8.752,20.094,20.094,0,0,0-7.35-5.969,25.264,25.264,0,0,0-11.23-2.234,22.17,22.17,0,0,0-5.49.7,25.24,25.24,0,0,0-5.62,2.234,39.58,39.58,0,0,0-6,4.028,70.03,70.03,0,0,0-6.576,6.079,23.4,23.4,0,0,0-3.076-5.31,18.412,18.412,0,0,0-4.46-4.1,21.325,21.325,0,0,0-6.037-2.673,28.89,28.89,0,0,0-7.729-.952,23.647,23.647,0,0,0-11.113,2.893,44.52,44.52,0,0,0-11.343,9.119V53.41a1.745,1.745,0,0,0-.269-0.989,2.416,2.416,0,0,0-.885-0.732,4.72,4.72,0,0,0-1.73-.44q-1.116-.11-2.807-0.11-1.77,0-2.846.11a5.413,5.413,0,0,0-1.768.44,2.028,2.028,0,0,0-.923.732,1.962,1.962,0,0,0-.231.989v65.918a1.734,1.734,0,0,0,.269.989,2.1,2.1,0,0,0,1,.7,8,8,0,0,0,1.961.439,26.9,26.9,0,0,0,3.076.147,27.751,27.751,0,0,0,3.153-.147,7.392,7.392,0,0,0,1.923-.439,2.411,2.411,0,0,0,1-.7,1.586,1.586,0,0,0,.307-0.989V73.259a56.465,56.465,0,0,1,9.69-9.448,15.082,15.082,0,0,1,8.844-3.223,13.269,13.269,0,0,1,6.114,1.318,11.374,11.374,0,0,1,4.268,3.809,18.23,18.23,0,0,1,2.538,5.933,31.93,31.93,0,0,1,.846,7.617v40.063a1.734,1.734,0,0,0,.269.989,2.1,2.1,0,0,0,1,.7,8.1,8.1,0,0,0,2,.439,31.859,31.859,0,0,0,6.114,0,8.016,8.016,0,0,0,1.961-.439,2.4,2.4,0,0,0,1.039-.7,1.586,1.586,0,0,0,.307-0.989V73.259a59.381,59.381,0,0,1,9.731-9.448,14.913,14.913,0,0,1,8.8-3.223,13.554,13.554,0,0,1,6.16,1.318,11.309,11.309,0,0,1,4.3,3.809,16.985,16.985,0,0,1,2.46,5.933,34.54,34.54,0,0,1,.77,7.617v40.063a1.552,1.552,0,0,0,.31.989,2.352,2.352,0,0,0,1.04.7,7.93,7.93,0,0,0,1.96.439,27.705,27.705,0,0,0,3.15.147,26.978,26.978,0,0,0,3.08-.147,7.355,7.355,0,0,0,1.92-.439,2.378,2.378,0,0,0,1-.7,1.613,1.613,0,0,0,.31-0.989V77.653Z"/>
  <path id="center_arrow" data-name="center arrow" class="cls-3" d="M81,93l169.61-1L232.073,66l8.342-8L271,100.494,240.415,142l-9.269-8,20.391-27H81V93Z"/>
  <path class="cls-3" d="M81,166v7H219l-17,16,3.193,5,24.457-24.07L205.193,145,202,150l17,16H81Z"/>
  <path id="up_arrow" data-name="up arrow" class="cls-3" d="M80,31v6l81.044,0.044-4.977,6.087L160.049,48,171,34.609,160.049,20l-3.982,3.652,4.977,7.3Z"/>
  <path id="investments" class="cls-4" d="M351.718,151.839a0.651,0.651,0,0,0-.124-0.38,0.893,0.893,0,0,0-.4-0.293,2.943,2.943,0,0,0-.77-0.176,11.036,11.036,0,0,0-1.261-.059,10.7,10.7,0,0,0-1.23.059,3.184,3.184,0,0,0-.785.176,0.783,0.783,0,0,0-.4.293,0.7,0.7,0,0,0-.108.38v26.368a0.685,0.685,0,0,0,.108.4,0.823,0.823,0,0,0,.4.278,3.184,3.184,0,0,0,.785.176,10.7,10.7,0,0,0,1.23.059,11.036,11.036,0,0,0,1.261-.059,2.943,2.943,0,0,0,.77-0.176,0.948,0.948,0,0,0,.4-0.278,0.631,0.631,0,0,0,.124-0.4V151.839Zm-0.077-11.176a3.714,3.714,0,0,0-2.446-.6,3.771,3.771,0,0,0-2.492.615,3.082,3.082,0,0,0-.676,2.315,3.021,3.021,0,0,0,.661,2.27,3.7,3.7,0,0,0,2.445.6,3.771,3.771,0,0,0,2.492-.615,3.083,3.083,0,0,0,.677-2.315A3.025,3.025,0,0,0,351.641,140.663ZM384,162.123a19.913,19.913,0,0,0-.507-4.82,9.329,9.329,0,0,0-1.677-3.5,8.318,8.318,0,0,0-3.061-2.387,10.864,10.864,0,0,0-4.66-.894,10.426,10.426,0,0,0-4.691,1.157,16.9,16.9,0,0,0-4.661,3.648v-3.487a0.7,0.7,0,0,0-.107-0.4,0.965,0.965,0,0,0-.354-0.293,1.885,1.885,0,0,0-.692-0.176q-0.447-.043-1.123-0.044-0.708,0-1.138.044a2.16,2.16,0,0,0-.708.176,0.819,0.819,0,0,0-.369.293,0.788,0.788,0,0,0-.092.4v26.368a0.692,0.692,0,0,0,.107.4,0.832,0.832,0,0,0,.4.278,3.184,3.184,0,0,0,.785.176,10.7,10.7,0,0,0,1.23.059,11.036,11.036,0,0,0,1.261-.059,2.943,2.943,0,0,0,.77-0.176,0.948,0.948,0,0,0,.4-0.278,0.631,0.631,0,0,0,.123-0.4V159.779a20.218,20.218,0,0,1,4-3.779,6.767,6.767,0,0,1,3.814-1.29,6.043,6.043,0,0,1,2.6.528,4.612,4.612,0,0,1,1.831,1.523,7.361,7.361,0,0,1,1.076,2.373,14.5,14.5,0,0,1,.369,3.633v15.44a0.625,0.625,0,0,0,.124.4,0.941,0.941,0,0,0,.4.278,2.935,2.935,0,0,0,.769.176,11.055,11.055,0,0,0,1.262.059,10.7,10.7,0,0,0,1.23-.059,2.925,2.925,0,0,0,.769-0.176,0.945,0.945,0,0,0,.4-0.278,0.631,0.631,0,0,0,.123-0.4V162.123Zm29.863-10.738a0.849,0.849,0,0,0-.369-0.278,2.162,2.162,0,0,0-.723-0.147q-0.462-.029-1.169-0.029-0.831,0-1.338.044a2.884,2.884,0,0,0-.8.161,1.154,1.154,0,0,0-.446.293,0.993,0.993,0,0,0-.215.44l-7.722,21.738-0.092.352-0.123-.352-7.813-21.738a2.252,2.252,0,0,0-.262-0.44,1.024,1.024,0,0,0-.43-0.293,2.981,2.981,0,0,0-.831-0.161q-0.538-.043-1.43-0.044-0.708,0-1.185.029a2.957,2.957,0,0,0-.769.132,0.816,0.816,0,0,0-.415.279,0.7,0.7,0,0,0-.123.41,2.022,2.022,0,0,0,.015.22,2.6,2.6,0,0,0,.093.395c0.051,0.176.117,0.381,0.2,0.615l9.413,25.049a1.423,1.423,0,0,0,.338.5,1.459,1.459,0,0,0,.6.322,5.216,5.216,0,0,0,1,.176q0.615,0.058,1.538.059t1.538-.044a4.939,4.939,0,0,0,1.015-.161,1.361,1.361,0,0,0,.6-0.323,1.515,1.515,0,0,0,.323-0.527l9.444-25.049c0.04-.136.077-0.263,0.107-0.381s0.056-.224.077-0.322,0.036-.19.046-0.278a2.222,2.222,0,0,0,.016-0.249A0.7,0.7,0,0,0,413.858,151.385ZM441.783,163a16.561,16.561,0,0,0-.692-4.849,10.63,10.63,0,0,0-2.169-3.955,10.47,10.47,0,0,0-3.768-2.681,13.9,13.9,0,0,0-5.553-1,14.365,14.365,0,0,0-5.506,1.011,11.613,11.613,0,0,0-4.2,2.9,12.769,12.769,0,0,0-2.661,4.6,18.893,18.893,0,0,0-.923,6.108,19.965,19.965,0,0,0,.892,6.27,11.392,11.392,0,0,0,2.646,4.482,11.145,11.145,0,0,0,4.322,2.695,17.921,17.921,0,0,0,5.983.909,23.407,23.407,0,0,0,3.707-.279q1.737-.279,3.061-0.63a15.081,15.081,0,0,0,2.153-.717,4.546,4.546,0,0,0,1-.528,1.674,1.674,0,0,0,.276-0.337,1.215,1.215,0,0,0,.154-0.395,5.017,5.017,0,0,0,.077-0.5,6.229,6.229,0,0,0,.031-0.659,7.254,7.254,0,0,0-.047-0.894,2.021,2.021,0,0,0-.139-0.571,0.672,0.672,0,0,0-.262-0.308,0.737,0.737,0,0,0-.386-0.1,3.151,3.151,0,0,0-1.1.307q-0.728.308-1.855,0.689a21.64,21.64,0,0,1-2.674.688,18.168,18.168,0,0,1-3.524.308,11.7,11.7,0,0,1-4.235-.674,6.942,6.942,0,0,1-2.812-1.934,7.469,7.469,0,0,1-1.546-3.017,15.528,15.528,0,0,1-.464-3.955h18.233a2.134,2.134,0,0,0,1.375-.484,1.968,1.968,0,0,0,.6-1.626V163Zm-20.211-.557a10.378,10.378,0,0,1,.588-3.091,8.08,8.08,0,0,1,1.486-2.593,7.128,7.128,0,0,1,2.384-1.787,7.658,7.658,0,0,1,3.311-.674,6.945,6.945,0,0,1,5.556,2.168,8.519,8.519,0,0,1,1.779,5.977h-15.1ZM465.34,168.1a6.784,6.784,0,0,0-1.585-2.109,9.67,9.67,0,0,0-2.261-1.494q-1.277-.617-2.584-1.114t-2.568-.966a13.757,13.757,0,0,1-2.246-1.055A5.8,5.8,0,0,1,452.5,160a2.991,2.991,0,0,1-.616-1.919,3.613,3.613,0,0,1,.323-1.524,3.367,3.367,0,0,1,.954-1.216,4.458,4.458,0,0,1,1.615-.791,8.415,8.415,0,0,1,2.276-.278,9.364,9.364,0,0,1,2.569.322,15.458,15.458,0,0,1,1.953.689,11.532,11.532,0,0,1,1.354.688,1.749,1.749,0,0,0,.8.323,0.593,0.593,0,0,0,.338-0.1,0.783,0.783,0,0,0,.261-0.337,2.039,2.039,0,0,0,.154-0.6,6.959,6.959,0,0,0,.046-0.864,5.682,5.682,0,0,0-.046-0.791q-0.045-.321-0.092-0.542a1.238,1.238,0,0,0-.154-0.4,1.63,1.63,0,0,0-.431-0.41,6.6,6.6,0,0,0-.953-0.542,9.852,9.852,0,0,0-1.523-.572,15.8,15.8,0,0,0-2-.439,14.142,14.142,0,0,0-2.215-.176,13.693,13.693,0,0,0-4.415.645,9.617,9.617,0,0,0-3.153,1.713,6.934,6.934,0,0,0-1.891,2.491,7.239,7.239,0,0,0-.631,2.973,6.68,6.68,0,0,0,2.184,5.186,9.788,9.788,0,0,0,2.23,1.538,26.883,26.883,0,0,0,2.553,1.128q1.308,0.5,2.538.952a13.457,13.457,0,0,1,2.215,1.04,5.678,5.678,0,0,1,1.584,1.348,2.937,2.937,0,0,1,.6,1.875,3.981,3.981,0,0,1-.415,1.875,3.511,3.511,0,0,1-1.184,1.3,5.808,5.808,0,0,1-1.815.777,9.571,9.571,0,0,1-2.338.263,10.641,10.641,0,0,1-3.046-.395,15.553,15.553,0,0,1-2.291-.864q-0.969-.469-1.631-0.865a2.262,2.262,0,0,0-1-.395,0.731,0.731,0,0,0-.385.1,0.657,0.657,0,0,0-.261.337,3.036,3.036,0,0,0-.154.616,5.883,5.883,0,0,0-.062.937,5.31,5.31,0,0,0,.154,1.436,1.664,1.664,0,0,0,.492.82,5.372,5.372,0,0,0,1.077.659,12.661,12.661,0,0,0,1.8.7,17.19,17.19,0,0,0,2.4.557,17.413,17.413,0,0,0,2.815.22,16.37,16.37,0,0,0,4.4-.557,10.268,10.268,0,0,0,3.446-1.641,7.4,7.4,0,0,0,2.23-2.666,8,8,0,0,0,.784-3.6A6.623,6.623,0,0,0,465.34,168.1Zm20.542,7.3a3.367,3.367,0,0,0-.139-0.557,0.493,0.493,0,0,0-.215-0.278,0.626,0.626,0,0,0-.292-0.073,1.422,1.422,0,0,0-.554.132q-0.308.132-.738,0.278t-0.985.278a5.456,5.456,0,0,1-1.261.132,3.254,3.254,0,0,1-3.03-1.391,8.046,8.046,0,0,1-.846-4.117V155.091h7.106a0.832,0.832,0,0,0,.738-0.468,3.135,3.135,0,0,0,.277-1.524,6.017,6.017,0,0,0-.061-0.937,1.963,1.963,0,0,0-.2-0.63,0.784,0.784,0,0,0-.754-0.454h-7.106v-6.27a0.653,0.653,0,0,0-.123-0.381,1,1,0,0,0-.4-0.307,2.552,2.552,0,0,0-.769-0.191,11.081,11.081,0,0,0-1.261-.058,10.75,10.75,0,0,0-1.231.058,2.76,2.76,0,0,0-.784.191,0.872,0.872,0,0,0-.4.307,0.716,0.716,0,0,0-.108.381v6.27H468.9a0.966,0.966,0,0,0-.446.1,0.754,0.754,0,0,0-.323.352,2.585,2.585,0,0,0-.2.63,4.849,4.849,0,0,0-.077.937,3.147,3.147,0,0,0,.277,1.524,0.834,0.834,0,0,0,.738.468h3.876V170.5a15.639,15.639,0,0,0,.446,3.969,6.618,6.618,0,0,0,1.431,2.783,5.974,5.974,0,0,0,2.522,1.641,11.161,11.161,0,0,0,3.692.542,11.4,11.4,0,0,0,1.415-.088q0.707-.087,1.338-0.22a6.272,6.272,0,0,0,1.123-.336,2.42,2.42,0,0,0,.738-0.44,1.481,1.481,0,0,0,.369-0.732,5.855,5.855,0,0,0,.123-1.348A5.233,5.233,0,0,0,485.882,175.394Zm46.889-13.857a18.264,18.264,0,0,0-.477-4.234,9.362,9.362,0,0,0-1.6-3.5,8.055,8.055,0,0,0-2.938-2.387,10.112,10.112,0,0,0-4.491-.894,8.9,8.9,0,0,0-2.2.278,10.11,10.11,0,0,0-2.245.894,15.788,15.788,0,0,0-2.4,1.611,28.083,28.083,0,0,0-2.63,2.432,9.375,9.375,0,0,0-1.23-2.124,7.335,7.335,0,0,0-1.785-1.641,8.535,8.535,0,0,0-2.414-1.069,11.546,11.546,0,0,0-3.092-.381,9.462,9.462,0,0,0-4.445,1.157,17.812,17.812,0,0,0-4.537,3.648v-3.487a0.692,0.692,0,0,0-.108-0.4,0.965,0.965,0,0,0-.354-0.293,1.879,1.879,0,0,0-.692-0.176c-0.3-.029-0.672-0.044-1.123-0.044q-0.708,0-1.138.044a2.153,2.153,0,0,0-.707.176,0.808,0.808,0,0,0-.369.293,0.777,0.777,0,0,0-.093.4v26.368a0.692,0.692,0,0,0,.108.4,0.832,0.832,0,0,0,.4.278,3.175,3.175,0,0,0,.784.176,10.72,10.72,0,0,0,1.231.059,11.048,11.048,0,0,0,1.261-.059,2.935,2.935,0,0,0,.769-0.176,0.945,0.945,0,0,0,.4-0.278,0.631,0.631,0,0,0,.123-0.4V159.779A22.524,22.524,0,0,1,500.656,156a6.029,6.029,0,0,1,3.537-1.29,5.3,5.3,0,0,1,2.446.528,4.546,4.546,0,0,1,1.707,1.523,7.271,7.271,0,0,1,1.015,2.373,12.757,12.757,0,0,1,.339,3.047v16.026a0.685,0.685,0,0,0,.108.4,0.823,0.823,0,0,0,.4.278,3.216,3.216,0,0,0,.8.176,12.7,12.7,0,0,0,2.446,0,3.175,3.175,0,0,0,.784-0.176,0.953,0.953,0,0,0,.416-0.278,0.637,0.637,0,0,0,.123-0.4V159.779A23.706,23.706,0,0,1,518.667,156a5.962,5.962,0,0,1,3.522-1.29,5.4,5.4,0,0,1,2.461.528,4.525,4.525,0,0,1,1.723,1.523,6.836,6.836,0,0,1,.984,2.373,14.007,14.007,0,0,1,.308,3.047v16.026a0.631,0.631,0,0,0,.123.4,0.937,0.937,0,0,0,.415.278,3.175,3.175,0,0,0,.784.176,11.055,11.055,0,0,0,1.262.059,10.7,10.7,0,0,0,1.23-.059,2.925,2.925,0,0,0,.769-0.176,0.945,0.945,0,0,0,.4-0.278,0.631,0.631,0,0,0,.123-0.4v-16.67ZM564.71,163a16.528,16.528,0,0,0-.692-4.849,10.614,10.614,0,0,0-2.168-3.955,10.474,10.474,0,0,0-3.769-2.681,13.9,13.9,0,0,0-5.552-1,14.37,14.37,0,0,0-5.507,1.011,11.622,11.622,0,0,0-4.2,2.9,12.782,12.782,0,0,0-2.66,4.6,18.866,18.866,0,0,0-.923,6.108,19.965,19.965,0,0,0,.892,6.27,11.379,11.379,0,0,0,2.645,4.482,11.152,11.152,0,0,0,4.322,2.695,17.923,17.923,0,0,0,5.984.909,23.394,23.394,0,0,0,3.706-.279,31.249,31.249,0,0,0,3.061-.63A15,15,0,0,0,562,177.87a4.546,4.546,0,0,0,1-.528,1.647,1.647,0,0,0,.277-0.337,1.238,1.238,0,0,0,.154-0.395c0.031-.147.056-0.312,0.077-0.5a6.229,6.229,0,0,0,.031-0.659,7.254,7.254,0,0,0-.047-0.894,2.056,2.056,0,0,0-.139-0.571,0.674,0.674,0,0,0-.263-0.308,0.735,0.735,0,0,0-.386-0.1,3.162,3.162,0,0,0-1.1.307q-0.726.308-1.855,0.689a21.667,21.667,0,0,1-2.673.688,18.175,18.175,0,0,1-3.524.308,11.7,11.7,0,0,1-4.235-.674,6.945,6.945,0,0,1-2.813-1.934,7.481,7.481,0,0,1-1.546-3.017,15.53,15.53,0,0,1-.463-3.955h18.233a2.134,2.134,0,0,0,1.375-.484,1.97,1.97,0,0,0,.6-1.626V163Zm-20.21-.557a10.347,10.347,0,0,1,.588-3.091,8.1,8.1,0,0,1,1.485-2.593,7.139,7.139,0,0,1,2.384-1.787,7.666,7.666,0,0,1,3.312-.674,6.941,6.941,0,0,1,5.555,2.168,8.519,8.519,0,0,1,1.78,5.977H544.5Zm50.827-.322a19.859,19.859,0,0,0-.508-4.82,9.312,9.312,0,0,0-1.676-3.5,8.327,8.327,0,0,0-3.061-2.387,10.867,10.867,0,0,0-4.66-.894,10.433,10.433,0,0,0-4.692,1.157,16.893,16.893,0,0,0-4.66,3.648v-3.487a0.692,0.692,0,0,0-.108-0.4,0.961,0.961,0,0,0-.353-0.293,1.885,1.885,0,0,0-.692-0.176q-0.447-.043-1.123-0.044c-0.472,0-.852.015-1.138,0.044a2.16,2.16,0,0,0-.708.176,0.808,0.808,0,0,0-.369.293,0.777,0.777,0,0,0-.092.4v26.368a0.692,0.692,0,0,0,.107.4,0.832,0.832,0,0,0,.4.278,3.174,3.174,0,0,0,.785.176,10.689,10.689,0,0,0,1.23.059,11.048,11.048,0,0,0,1.261-.059,2.925,2.925,0,0,0,.769-0.176,0.945,0.945,0,0,0,.4-0.278,0.631,0.631,0,0,0,.123-0.4V159.779a20.243,20.243,0,0,1,4-3.779,6.772,6.772,0,0,1,3.815-1.29,6.046,6.046,0,0,1,2.6.528,4.609,4.609,0,0,1,1.83,1.523,7.341,7.341,0,0,1,1.077,2.373,14.5,14.5,0,0,1,.369,3.633v15.44a0.631,0.631,0,0,0,.123.4,0.952,0.952,0,0,0,.4.278,2.935,2.935,0,0,0,.769.176,11.048,11.048,0,0,0,1.261.059,10.708,10.708,0,0,0,1.231-.059,2.935,2.935,0,0,0,.769-0.176,0.945,0.945,0,0,0,.4-0.278,0.631,0.631,0,0,0,.123-0.4V162.123Zm22.065,13.271a3.367,3.367,0,0,0-.139-0.557,0.493,0.493,0,0,0-.215-0.278,0.626,0.626,0,0,0-.292-0.073,1.422,1.422,0,0,0-.554.132q-0.308.132-.738,0.278t-0.985.278a5.456,5.456,0,0,1-1.261.132,3.254,3.254,0,0,1-3.03-1.391,8.046,8.046,0,0,1-.846-4.117V155.091h7.106a0.832,0.832,0,0,0,.738-0.468,3.135,3.135,0,0,0,.277-1.524,6.017,6.017,0,0,0-.061-0.937,1.963,1.963,0,0,0-.2-0.63,0.784,0.784,0,0,0-.754-0.454h-7.106v-6.27a0.653,0.653,0,0,0-.123-0.381,1,1,0,0,0-.4-0.307,2.552,2.552,0,0,0-.769-0.191,11.081,11.081,0,0,0-1.261-.058,10.75,10.75,0,0,0-1.231.058,2.76,2.76,0,0,0-.784.191,0.872,0.872,0,0,0-.4.307,0.716,0.716,0,0,0-.108.381v6.27h-3.845a0.966,0.966,0,0,0-.446.1,0.754,0.754,0,0,0-.323.352,2.585,2.585,0,0,0-.2.63,4.849,4.849,0,0,0-.077.937,3.147,3.147,0,0,0,.277,1.524,0.834,0.834,0,0,0,.739.468h3.875V170.5a15.591,15.591,0,0,0,.447,3.969,6.616,6.616,0,0,0,1.43,2.783,5.974,5.974,0,0,0,2.522,1.641,11.161,11.161,0,0,0,3.692.542,11.4,11.4,0,0,0,1.415-.088q0.707-.087,1.338-0.22a6.247,6.247,0,0,0,1.123-.336,2.42,2.42,0,0,0,.738-0.44,1.481,1.481,0,0,0,.369-0.732,5.855,5.855,0,0,0,.123-1.348A5.233,5.233,0,0,0,617.392,175.394Zm22.6-7.3a6.781,6.781,0,0,0-1.584-2.109,9.711,9.711,0,0,0-2.261-1.494q-1.278-.617-2.584-1.114T631,162.416a13.757,13.757,0,0,1-2.246-1.055,5.8,5.8,0,0,1-1.6-1.362,2.991,2.991,0,0,1-.615-1.919,3.6,3.6,0,0,1,.323-1.524,3.364,3.364,0,0,1,.953-1.216,4.466,4.466,0,0,1,1.615-.791,8.415,8.415,0,0,1,2.276-.278,9.364,9.364,0,0,1,2.569.322,15.458,15.458,0,0,1,1.953.689,11.532,11.532,0,0,1,1.354.688,1.749,1.749,0,0,0,.8.323,0.593,0.593,0,0,0,.338-0.1,0.777,0.777,0,0,0,.262-0.337,2.072,2.072,0,0,0,.153-0.6,6.94,6.94,0,0,0,.047-0.864,5.664,5.664,0,0,0-.047-0.791q-0.045-.321-0.092-0.542a1.238,1.238,0,0,0-.154-0.4,1.639,1.639,0,0,0-.43-0.41,6.68,6.68,0,0,0-.954-0.542,9.813,9.813,0,0,0-1.523-.572,15.8,15.8,0,0,0-2-.439,14.132,14.132,0,0,0-2.215-.176,13.682,13.682,0,0,0-4.414.645,9.6,9.6,0,0,0-3.153,1.713,6.937,6.937,0,0,0-1.892,2.491,7.239,7.239,0,0,0-.631,2.973,6.68,6.68,0,0,0,2.184,5.186,9.788,9.788,0,0,0,2.23,1.538,26.789,26.789,0,0,0,2.554,1.128q1.306,0.5,2.538.952a13.445,13.445,0,0,1,2.214,1.04,5.683,5.683,0,0,1,1.585,1.348,2.937,2.937,0,0,1,.6,1.875,3.981,3.981,0,0,1-.415,1.875,3.511,3.511,0,0,1-1.184,1.3,5.808,5.808,0,0,1-1.815.777,9.571,9.571,0,0,1-2.338.263,10.629,10.629,0,0,1-3.045-.395,15.568,15.568,0,0,1-2.292-.864q-0.969-.469-1.63-0.865a2.269,2.269,0,0,0-1-.395,0.731,0.731,0,0,0-.385.1,0.657,0.657,0,0,0-.261.337,3.036,3.036,0,0,0-.154.616,6,6,0,0,0-.062.937,5.31,5.31,0,0,0,.154,1.436,1.679,1.679,0,0,0,.492.82,5.372,5.372,0,0,0,1.077.659,12.63,12.63,0,0,0,1.8.7,17.14,17.14,0,0,0,2.4.557,17.413,17.413,0,0,0,2.815.22,16.383,16.383,0,0,0,4.4-.557,10.263,10.263,0,0,0,3.445-1.641,7.4,7.4,0,0,0,2.23-2.666,8,8,0,0,0,.785-3.6A6.623,6.623,0,0,0,640,168.1Z"/>
  <path id="tail_up" data-name="tail up" class="cls-4" d="M81,37H2l6-6H81v6Z"/>
  <path id="tail_center" data-name="tail center" class="cls-4" d="M81,107H13l9-14H81v14Z"/>
  <path id="tail_down" data-name="tail down" class="cls-4" d="M81,173H0l5-7H81v7Z"/>
</svg>
