<svg height="162px" version="1.1" width="52px" xmlns="http://www.w3.org/2000/svg" style="overflow: hidden; position: absolute; left: 0px; top: 0px;" xmlns:xlink="http://www.w3.org/1999/xlink"><defs style="-webkit-tap-highlight-color: rgba(0, 0, 0, 0);"><filter id="Sklwc3owpds" filterUnits="userSpaceOnUse"><feGaussianBlur stdDeviation="2.5"></feGaussianBlur><feColorMatrix values="0 0 0 0 0 0 0 0 0 0 0 0 0 0 0 0 0 0 0.5 0"></feColorMatrix></filter><linearGradient x1="0" y1="0" x2="1" y2="0" id="linearGradientSklwc3owpdz"><stop offset="0%" stop-color="#000000" stop-opacity="0.1"></stop><stop offset="75%" stop-color="#000000" stop-opacity="0.1"></stop><stop offset="100%" stop-color="#ffffff" stop-opacity="0"></stop></linearGradient><filter id="Sklwc3owpe5" filterUnits="userSpaceOnUse"><feGaussianBlur stdDeviation="1.5"></feGaussianBlur></filter><mask id="maskSklwc3owpe9"><g fill="#ffffff" style="" class="rhlp-shape" transform="matrix(-1,0,0,1,52,0)"><path d="M 0 6 L 40 6 A 6 6 0 0 1 46 12 L 46 144 A 12 12 0 0 1 22 144 L 0 144 Z" transform="matrix(-1,0,0,1,52,0)" id="pathSklwc3owpdu"></path></g></mask><path d="M29.788888888888877,130.74703055555557C29.788888888888877,130.74703055555557,28.349999999999987,130.74703055555557,28.349999999999987,130.74703055555557C28.349999999999987,130.74703055555557,27.494444444444433,128.5303638888889,27.494444444444433,128.5303638888889C27.494444444444433,128.5303638888889,22.516666666666655,128.5303638888889,22.516666666666655,128.5303638888889C22.516666666666655,128.5303638888889,21.622222222222213,130.74703055555557,21.622222222222213,130.74703055555557C21.622222222222213,130.74703055555557,20.183333333333323,130.74703055555557,20.183333333333323,130.74703055555557C20.183333333333323,130.74703055555557,24.227777777777767,120.75258611111113,24.227777777777767,120.75258611111113C24.227777777777767,120.75258611111113,25.744444444444433,120.75258611111113,25.744444444444433,120.75258611111113C25.744444444444433,120.75258611111113,29.788888888888877,130.74703055555557,29.788888888888877,130.74703055555557M27.105555555555544,127.40258611111112C27.105555555555544,127.40258611111112,25.005555555555546,122.03591944444446,25.005555555555546,122.03591944444446C25.005555555555546,122.03591944444446,22.866666666666656,127.40258611111112,22.866666666666656,127.40258611111112C22.866666666666656,127.40258611111112,27.105555555555544,127.40258611111112,27.105555555555544,127.40258611111112C27.105555555555544,127.40258611111112,27.105555555555544,127.40258611111112,27.105555555555544,127.40258611111112M34.999999999999986,126.97480833333334C37.17777777777776,128.06369722222223,35.89444444444443,130.94147500000003,33.32777777777777,130.94147500000003C32.08333333333332,130.94147500000003,31.1111111111111,130.5525861111111,30.4111111111111,129.77480833333334C30.4111111111111,129.77480833333334,30.994444444444433,128.95814166666668,30.994444444444433,128.95814166666668C31.655555555555544,130.3192527777778,35.6611111111111,130.51369722222225,34.9611111111111,128.33591944444447C33.83333333333332,127.05258611111113,30.605555555555544,127.86925277777779,30.605555555555544,125.41925277777779C30.605555555555544,122.89147500000001,34.64999999999999,122.81369722222223,35.972222222222214,124.36925277777779C35.972222222222214,124.36925277777779,35.466666666666654,125.14703055555557,35.466666666666654,125.14703055555557C34.844444444444434,123.90258611111112,30.994444444444433,123.90258611111112,31.849999999999987,125.80814166666669C32.54999999999999,126.54703055555557,34.066666666666656,126.50814166666667,34.999999999999986,126.97480833333334C34.999999999999986,126.97480833333334,34.999999999999986,126.97480833333334,34.999999999999986,126.97480833333334M44.33333333333332,130.74703055555557C44.33333333333332,130.74703055555557,42.89444444444443,130.74703055555557,42.89444444444443,130.74703055555557C42.89444444444443,130.74703055555557,40.28888888888888,127.5192527777778,40.28888888888888,127.5192527777778C40.28888888888888,127.5192527777778,39.08333333333332,128.68591944444447,39.08333333333332,128.68591944444447C39.08333333333332,128.68591944444447,39.08333333333332,130.74703055555557,39.08333333333332,130.74703055555557C39.08333333333332,130.74703055555557,37.95555555555555,130.74703055555557,37.95555555555555,130.74703055555557C37.95555555555555,130.74703055555557,37.95555555555555,120.75258611111113,37.95555555555555,120.75258611111113C37.95555555555555,120.75258611111113,39.08333333333332,120.75258611111113,39.08333333333332,120.75258611111113C39.08333333333332,120.75258611111113,39.08333333333332,127.36369722222223,39.08333333333332,127.36369722222223C39.08333333333332,127.36369722222223,42.89444444444443,123.51369722222223,42.89444444444443,123.51369722222223C42.89444444444443,123.51369722222223,44.29444444444444,123.51369722222223,44.29444444444444,123.51369722222223C44.29444444444444,123.51369722222223,41.10555555555555,126.7803638888889,41.10555555555555,126.7803638888889C41.10555555555555,126.7803638888889,44.33333333333332,130.74703055555557,44.33333333333332,130.74703055555557M49.42777777777777,124.52480833333334C50.90555555555555,122.69703055555557,55.10555555555555,122.77480833333334,55.10555555555555,125.7692527777778C55.10555555555555,125.7692527777778,55.10555555555555,130.74703055555557,55.10555555555555,130.74703055555557C55.10555555555555,130.74703055555557,53.977777777777774,130.74703055555557,53.977777777777774,130.74703055555557C53.977777777777774,130.74703055555557,53.977777777777774,129.9303638888889,53.977777777777774,129.9303638888889C52.57777777777777,131.60258611111112,49.038888888888884,131.13591944444445,49.038888888888884,128.5303638888889C49.038888888888884,125.92480833333335,52.61666666666666,125.49703055555557,53.977777777777774,127.13036388888891C54.17222222222222,125.41925277777779,53.70555555555555,124.25258611111113,52.14999999999999,124.29147500000002C51.13888888888888,124.36925277777779,50.51666666666666,124.7192527777778,49.93333333333332,125.30258611111113C49.93333333333332,125.30258611111113,49.42777777777777,124.52480833333334,49.42777777777777,124.52480833333334M50.20555555555555,128.5303638888889C50.20555555555555,130.43591944444447,53.23888888888888,130.5525861111111,53.977777777777774,129.2303638888889C53.977777777777774,129.2303638888889,53.977777777777774,127.86925277777779,53.977777777777774,127.86925277777779C53.27777777777777,126.58591944444446,50.20555555555555,126.62480833333335,50.20555555555555,128.5303638888889C50.20555555555555,128.5303638888889,50.20555555555555,128.5303638888889,50.20555555555555,128.5303638888889M70.73888888888888,125.7692527777778C70.73888888888888,127.36369722222223,70.15555555555555,128.5692527777778,69.33888888888887,129.46369722222224C69.33888888888887,129.46369722222224,70.3111111111111,130.47480833333336,70.3111111111111,130.47480833333336C70.3111111111111,130.47480833333336,69.45555555555555,131.21369722222224,69.45555555555555,131.21369722222224C69.45555555555555,131.21369722222224,68.48333333333332,130.16369722222223,68.48333333333332,130.16369722222223C65.0611111111111,132.18591944444447,60.58888888888888,129.9303638888889,60.822222222222216,125.7692527777778C60.97777777777777,122.61925277777779,62.64999999999999,120.59703055555556,65.7611111111111,120.59703055555556C68.9111111111111,120.59703055555556,70.73888888888888,122.65814166666668,70.73888888888888,125.7692527777778C70.73888888888888,125.7692527777778,70.73888888888888,125.7692527777778,70.73888888888888,125.7692527777778M62.10555555555555,125.7692527777778C61.949999999999996,128.841475,64.94444444444444,130.74703055555557,67.66666666666666,129.30814166666667C67.66666666666666,129.30814166666667,66.22777777777777,127.75258611111113,66.22777777777777,127.75258611111113C66.22777777777777,127.75258611111113,67.12222222222222,127.01369722222223,67.12222222222222,127.01369722222223C67.12222222222222,127.01369722222223,68.52222222222221,128.5692527777778,68.52222222222221,128.5692527777778C70.46666666666665,126.19703055555557,69.22222222222221,121.5303638888889,65.7611111111111,121.68591944444445C63.349999999999994,121.80258611111113,62.18333333333332,123.35814166666668,62.10555555555555,125.7692527777778C62.10555555555555,125.7692527777778,62.10555555555555,125.7692527777778,62.10555555555555,125.7692527777778M73.73333333333332,128.2581416666667C73.49999999999999,130.591475,76.84444444444443,130.12480833333333,77.46666666666665,128.841475C77.46666666666665,128.841475,77.46666666666665,123.51369722222223,77.46666666666665,123.51369722222223C77.46666666666665,123.51369722222223,78.59444444444443,123.51369722222223,78.59444444444443,123.51369722222223C78.59444444444443,123.51369722222223,78.59444444444443,130.74703055555557,78.59444444444443,130.74703055555557C78.59444444444443,130.74703055555557,77.46666666666665,130.74703055555557,77.46666666666665,130.74703055555557C77.46666666666665,130.74703055555557,77.46666666666665,129.73591944444445,77.46666666666665,129.73591944444445C76.41666666666664,131.3303638888889,72.60555555555554,131.60258611111112,72.60555555555554,128.60814166666668C72.60555555555554,128.60814166666668,72.60555555555554,123.51369722222223,72.60555555555554,123.51369722222223C72.60555555555554,123.51369722222223,73.73333333333332,123.51369722222223,73.73333333333332,123.51369722222223C73.73333333333332,123.51369722222223,73.73333333333332,128.2581416666667,73.73333333333332,128.2581416666667C73.73333333333332,128.2581416666667,73.73333333333332,128.2581416666667,73.73333333333332,128.2581416666667M81.58888888888887,127.5192527777778C81.47222222222221,130.04703055555558,85.04999999999998,130.70814166666668,86.4111111111111,129.07480833333335C86.4111111111111,129.07480833333335,86.95555555555555,129.81369722222223,86.95555555555555,129.81369722222223C86.21666666666665,130.5525861111111,85.24444444444444,130.94147500000003,84.07777777777777,130.94147500000003C81.74444444444444,130.94147500000003,80.38333333333333,129.46369722222224,80.38333333333333,127.13036388888891C80.38333333333333,124.91369722222224,81.74444444444444,123.31925277777779,83.9611111111111,123.31925277777779C86.33333333333333,123.31925277777779,87.4611111111111,124.99147500000001,87.42222222222222,127.5192527777778C87.42222222222222,127.5192527777778,81.58888888888887,127.5192527777778,81.58888888888887,127.5192527777778C81.58888888888887,127.5192527777778,81.58888888888887,127.5192527777778,81.58888888888887,127.5192527777778M86.33333333333333,126.66369722222224C86.52777777777777,123.94147500000001,82.17222222222222,123.47480833333334,81.70555555555555,126.00258611111113C81.62777777777777,126.23591944444446,81.58888888888887,126.4303638888889,81.58888888888887,126.66369722222224C81.58888888888887,126.66369722222224,86.33333333333333,126.66369722222224,86.33333333333333,126.66369722222224C86.33333333333333,126.66369722222224,86.33333333333333,126.66369722222224,86.33333333333333,126.66369722222224M93.17777777777776,126.97480833333334C95.35555555555554,128.06369722222223,94.07222222222221,130.94147500000003,91.50555555555553,130.94147500000003C90.26111111111109,130.94147500000003,89.28888888888886,130.5525861111111,88.58888888888887,129.77480833333334C88.58888888888887,129.77480833333334,89.1722222222222,128.95814166666668,89.1722222222222,128.95814166666668C89.83333333333331,130.3192527777778,93.83888888888887,130.51369722222225,93.13888888888887,128.33591944444447C92.01111111111109,127.05258611111113,88.78333333333332,127.86925277777779,88.78333333333332,125.41925277777779C88.78333333333332,122.89147500000001,92.82777777777775,122.81369722222223,94.14999999999998,124.36925277777779C94.14999999999998,124.36925277777779,93.64444444444443,125.14703055555557,93.64444444444443,125.14703055555557C93.0222222222222,123.90258611111112,89.1722222222222,123.90258611111112,90.02777777777776,125.80814166666669C90.72777777777776,126.54703055555557,92.24444444444443,126.50814166666667,93.17777777777776,126.97480833333334C93.17777777777776,126.97480833333334,93.17777777777776,126.97480833333334,93.17777777777776,126.97480833333334M97.49444444444444,128.99703055555557C97.33888888888887,129.9692527777778,98.50555555555555,130.16369722222223,98.97222222222221,129.6192527777778C98.97222222222221,129.6192527777778,99.32222222222221,130.47480833333336,99.32222222222221,130.47480833333336C98.35,131.40814166666667,96.36666666666666,130.94147500000003,96.36666666666666,129.2303638888889C96.36666666666666,129.2303638888889,96.36666666666666,124.48591944444446,96.36666666666666,124.48591944444446C96.36666666666666,124.48591944444446,95.1611111111111,124.48591944444446,95.1611111111111,124.48591944444446C95.1611111111111,124.48591944444446,95.1611111111111,123.51369722222223,95.1611111111111,123.51369722222223C95.1611111111111,123.51369722222223,96.36666666666666,123.51369722222223,96.36666666666666,123.51369722222223C96.36666666666666,123.51369722222223,96.36666666666666,121.5303638888889,96.36666666666666,121.5303638888889C96.36666666666666,121.5303638888889,97.49444444444444,121.5303638888889,97.49444444444444,121.5303638888889C97.49444444444444,121.5303638888889,97.49444444444444,123.51369722222223,97.49444444444444,123.51369722222223C97.49444444444444,123.51369722222223,98.93333333333332,123.51369722222223,98.93333333333332,123.51369722222223C98.93333333333332,123.51369722222223,98.93333333333332,124.48591944444446,98.93333333333332,124.48591944444446C98.93333333333332,124.48591944444446,97.49444444444444,124.48591944444446,97.49444444444444,124.48591944444446C97.49444444444444,124.48591944444446,97.49444444444444,128.99703055555557,97.49444444444444,128.99703055555557C97.49444444444444,128.99703055555557,97.49444444444444,128.99703055555557,97.49444444444444,128.99703055555557M101.84999999999998,121.72480833333334C101.84999999999998,122.11369722222224,101.4611111111111,122.50258611111113,101.0722222222222,122.46369722222224C100.68333333333331,122.50258611111113,100.33333333333331,122.07480833333335,100.33333333333331,121.72480833333334C100.33333333333331,121.33591944444446,100.68333333333331,120.94703055555557,101.0722222222222,120.94703055555557C101.4611111111111,120.90814166666668,101.84999999999998,121.33591944444446,101.84999999999998,121.72480833333334C101.84999999999998,121.72480833333334,101.84999999999998,121.72480833333334,101.84999999999998,121.72480833333334M101.65555555555554,130.74703055555557C101.65555555555554,130.74703055555557,100.52777777777776,130.74703055555557,100.52777777777776,130.74703055555557C100.52777777777776,130.74703055555557,100.52777777777776,123.51369722222223,100.52777777777776,123.51369722222223C100.52777777777776,123.51369722222223,101.65555555555554,123.51369722222223,101.65555555555554,123.51369722222223C101.65555555555554,123.51369722222223,101.65555555555554,130.74703055555557,101.65555555555554,130.74703055555557C101.65555555555554,130.74703055555557,101.65555555555554,130.74703055555557,101.65555555555554,130.74703055555557M110.59999999999998,127.13036388888891C110.59999999999998,129.42480833333335,109.31666666666665,130.94147500000003,107.0222222222222,130.94147500000003C104.76666666666665,130.94147500000003,103.44444444444443,129.38591944444445,103.44444444444443,127.13036388888891C103.44444444444443,124.79703055555557,104.72777777777776,123.31925277777779,107.0222222222222,123.31925277777779C109.27777777777776,123.31925277777779,110.59999999999998,124.83591944444446,110.59999999999998,127.13036388888891C110.59999999999998,127.13036388888891,110.59999999999998,127.13036388888891,110.59999999999998,127.13036388888891M104.61111111111109,127.13036388888891C104.61111111111109,128.76369722222225,105.42777777777776,129.9303638888889,107.0222222222222,129.9303638888889C108.61666666666665,129.9303638888889,109.43333333333331,128.76369722222225,109.43333333333331,127.13036388888891C109.43333333333331,125.53591944444446,108.61666666666665,124.3303638888889,107.0222222222222,124.3303638888889C105.38888888888887,124.3303638888889,104.61111111111109,125.53591944444446,104.61111111111109,127.13036388888891C104.61111111111109,127.13036388888891,104.61111111111109,127.13036388888891,104.61111111111109,127.13036388888891M113.55555555555554,124.56369722222223C114.09999999999998,123.90258611111112,114.99444444444443,123.35814166666668,116.1222222222222,123.31925277777779C119.54444444444442,123.12480833333335,118.14444444444443,127.79147500000002,118.41666666666666,130.74703055555557C118.41666666666666,130.74703055555557,117.28888888888888,130.74703055555557,117.28888888888888,130.74703055555557C117.28888888888888,130.74703055555557,117.28888888888888,126.00258611111113,117.28888888888888,126.00258611111113C117.48333333333332,123.6303638888889,114.21666666666665,124.17480833333335,113.55555555555554,125.45814166666668C113.55555555555554,125.45814166666668,113.55555555555554,130.74703055555557,113.55555555555554,130.74703055555557C113.55555555555554,130.74703055555557,112.42777777777776,130.74703055555557,112.42777777777776,130.74703055555557C112.42777777777776,130.74703055555557,112.42777777777776,123.51369722222223,112.42777777777776,123.51369722222223C112.42777777777776,123.51369722222223,113.55555555555554,123.51369722222223,113.55555555555554,123.51369722222223C113.55555555555554,123.51369722222223,113.55555555555554,124.56369722222223,113.55555555555554,124.56369722222223C113.55555555555554,124.56369722222223,113.55555555555554,124.56369722222223,113.55555555555554,124.56369722222223" transform="matrix(0,-1,1,0,-108.5,143.5)" id="pathSklwc3owpeb"></path></defs><use xlink:href="#pathSklwc3owpdu" filter="url('#Sklwc3owpds')" stroke="none" style="fill-opacity: 0.75;"></use><use xlink:href="#pathSklwc3owpdu" fill="#eb595e" stroke="none" style="fill-opacity: 0.9;"></use><use xlink:href="#pathSklwc3owpdu" fill="url('#linearGradientSklwc3owpdz')" stroke="none" style=""></use><path d="M 0 5 L 40 5 A 6 7 0 0 1 46 12 L 46 156 L 45 156 L 45 12 A 5 4 0 0 0 40 8 L 0 8 Z" stroke="rgba(255,255,255,0.175)" fill="rgba(255,255,255,0.175)" filter="url('#Sklwc3owpe5')" mask="url('#maskSklwc3owpe9')" style="stroke-width: 1;" class="rhlp-shape" transform="matrix(-1,0,0,1,52,0)"></path><use xlink:href="#pathSklwc3owpeb" fill="rgba(0,0,0,0.2)" style="stroke-width: 0;"></use><use xlink:href="#pathSklwc3owpeb" fill="#ffffff" transform="matrix(1,0,0,1,0,1)" style="stroke-width: 0;"></use><g stroke="#000000" fill="none" style="stroke-width: 1.1; fill-rule: evenodd; stroke-opacity: 0.2;" class="rhlp-shape" transform="matrix(-1,0,0,1,52,0)"><polyline points="30.4,12,33.2,14.8,30.4,17.6"></polyline><polyline points="32.8,12,35.6,14.8,32.8,17.6"></polyline></g><g stroke="#ffffff" fill="none" style="stroke-width: 1.1; fill-rule: evenodd; stroke-opacity: 1;" class="rhlp-shape" transform="matrix(-1,0,0,1,52,0)"><polyline points="30.4,13,33.2,15.8,30.4,18.6"></polyline><polyline points="32.8,13,35.6,15.8,32.8,18.6"></polyline></g></svg>