<svg width="24" height="24" viewBox="0 0 24 24" fill="none" xmlns="http://www.w3.org/2000/svg">
<path fill-rule="evenodd" clip-rule="evenodd" d="M2 7C2 4.23858 4.23858 2 7 2H17C19.7614 2 22 4.23858 22 7V17C22 19.7614 19.7614 22 17 22H7C4.23858 22 2 19.7614 2 17V7ZM7 4C5.34315 4 4 5.34315 4 7V17C4 18.6569 5.34315 20 7 20H17C18.6569 20 20 18.6569 20 17V7C20 5.34315 18.6569 4 17 4H7ZM8.41421 8.5C8.02368 8.10948 7.39052 8.1095 7 8.50003C6.60948 8.89056 6.6095 9.52372 7.00003 9.91424L9.293 12.2071L7.00003 14.5C6.6095 14.8905 6.60948 15.5237 7 15.9142C7.39052 16.3047 8.02368 16.3047 8.41421 15.9142L11.4143 12.9142C11.6019 12.7267 11.7072 12.4723 11.7072 12.2071C11.7072 11.9419 11.6019 11.6875 11.4143 11.5L8.41421 8.5Z" fill="black"/>
</svg>
